<?xml version="1.0" encoding="utf-8" standalone="no"?>
<!DOCTYPE svg PUBLIC "-//W3C//DTD SVG 1.1//EN"
  "http://www.w3.org/Graphics/SVG/1.1/DTD/svg11.dtd">
<!-- Created with matplotlib (https://matplotlib.org/) -->
<svg height="345.6pt" version="1.1" viewBox="0 0 460.8 345.6" width="460.8pt" xmlns="http://www.w3.org/2000/svg" xmlns:xlink="http://www.w3.org/1999/xlink">
 <defs>
  <style type="text/css">
*{stroke-linecap:butt;stroke-linejoin:round;}
  </style>
 </defs>
 <g id="figure_1">
  <g id="patch_1">
   <path d="M 0 345.6 
L 460.8 345.6 
L 460.8 0 
L 0 0 
z
" style="fill:#ffffff;"/>
  </g>
  <g id="axes_1">
   <g id="patch_2">
    <path d="M 57.6 140.032 
L 414.72 140.032 
L 414.72 41.472 
L 57.6 41.472 
z
" style="fill:#ffffff;"/>
   </g>
   <g id="matplotlib.axis_1">
    <g id="xtick_1">
     <g id="line2d_1">
      <path clip-path="url(#p82a31718b5)" d="M 73.784549 140.032 
L 73.784549 41.472 
" style="fill:none;stroke:#b0b0b0;stroke-linecap:square;stroke-width:0.8;"/>
     </g>
     <g id="line2d_2">
      <defs>
       <path d="M 0 0 
L 0 3.5 
" id="me2dcd02f5b" style="stroke:#000000;stroke-width:0.8;"/>
      </defs>
      <g>
       <use style="stroke:#000000;stroke-width:0.8;" x="73.784549" xlink:href="#me2dcd02f5b" y="140.032"/>
      </g>
     </g>
     <g id="text_1">
      <!-- 0 -->
      <defs>
       <path d="M 31.78125 66.40625 
Q 24.171875 66.40625 20.328125 58.90625 
Q 16.5 51.421875 16.5 36.375 
Q 16.5 21.390625 20.328125 13.890625 
Q 24.171875 6.390625 31.78125 6.390625 
Q 39.453125 6.390625 43.28125 13.890625 
Q 47.125 21.390625 47.125 36.375 
Q 47.125 51.421875 43.28125 58.90625 
Q 39.453125 66.40625 31.78125 66.40625 
z
M 31.78125 74.21875 
Q 44.046875 74.21875 50.515625 64.515625 
Q 56.984375 54.828125 56.984375 36.375 
Q 56.984375 17.96875 50.515625 8.265625 
Q 44.046875 -1.421875 31.78125 -1.421875 
Q 19.53125 -1.421875 13.0625 8.265625 
Q 6.59375 17.96875 6.59375 36.375 
Q 6.59375 54.828125 13.0625 64.515625 
Q 19.53125 74.21875 31.78125 74.21875 
z
" id="DejaVuSans-48"/>
      </defs>
      <g transform="translate(70.603299 154.630437)scale(0.1 -0.1)">
       <use xlink:href="#DejaVuSans-48"/>
      </g>
     </g>
    </g>
    <g id="xtick_2">
     <g id="line2d_3">
      <path clip-path="url(#p82a31718b5)" d="M 127.315506 140.032 
L 127.315506 41.472 
" style="fill:none;stroke:#b0b0b0;stroke-linecap:square;stroke-width:0.8;"/>
     </g>
     <g id="line2d_4">
      <g>
       <use style="stroke:#000000;stroke-width:0.8;" x="127.315506" xlink:href="#me2dcd02f5b" y="140.032"/>
      </g>
     </g>
     <g id="text_2">
      <!-- 10 -->
      <defs>
       <path d="M 12.40625 8.296875 
L 28.515625 8.296875 
L 28.515625 63.921875 
L 10.984375 60.40625 
L 10.984375 69.390625 
L 28.421875 72.90625 
L 38.28125 72.90625 
L 38.28125 8.296875 
L 54.390625 8.296875 
L 54.390625 0 
L 12.40625 0 
z
" id="DejaVuSans-49"/>
      </defs>
      <g transform="translate(120.953006 154.630437)scale(0.1 -0.1)">
       <use xlink:href="#DejaVuSans-49"/>
       <use x="63.623047" xlink:href="#DejaVuSans-48"/>
      </g>
     </g>
    </g>
    <g id="xtick_3">
     <g id="line2d_5">
      <path clip-path="url(#p82a31718b5)" d="M 180.846463 140.032 
L 180.846463 41.472 
" style="fill:none;stroke:#b0b0b0;stroke-linecap:square;stroke-width:0.8;"/>
     </g>
     <g id="line2d_6">
      <g>
       <use style="stroke:#000000;stroke-width:0.8;" x="180.846463" xlink:href="#me2dcd02f5b" y="140.032"/>
      </g>
     </g>
     <g id="text_3">
      <!-- 20 -->
      <defs>
       <path d="M 19.1875 8.296875 
L 53.609375 8.296875 
L 53.609375 0 
L 7.328125 0 
L 7.328125 8.296875 
Q 12.9375 14.109375 22.625 23.890625 
Q 32.328125 33.6875 34.8125 36.53125 
Q 39.546875 41.84375 41.421875 45.53125 
Q 43.3125 49.21875 43.3125 52.78125 
Q 43.3125 58.59375 39.234375 62.25 
Q 35.15625 65.921875 28.609375 65.921875 
Q 23.96875 65.921875 18.8125 64.3125 
Q 13.671875 62.703125 7.8125 59.421875 
L 7.8125 69.390625 
Q 13.765625 71.78125 18.9375 73 
Q 24.125 74.21875 28.421875 74.21875 
Q 39.75 74.21875 46.484375 68.546875 
Q 53.21875 62.890625 53.21875 53.421875 
Q 53.21875 48.921875 51.53125 44.890625 
Q 49.859375 40.875 45.40625 35.40625 
Q 44.1875 33.984375 37.640625 27.21875 
Q 31.109375 20.453125 19.1875 8.296875 
z
" id="DejaVuSans-50"/>
      </defs>
      <g transform="translate(174.483963 154.630437)scale(0.1 -0.1)">
       <use xlink:href="#DejaVuSans-50"/>
       <use x="63.623047" xlink:href="#DejaVuSans-48"/>
      </g>
     </g>
    </g>
    <g id="xtick_4">
     <g id="line2d_7">
      <path clip-path="url(#p82a31718b5)" d="M 234.377419 140.032 
L 234.377419 41.472 
" style="fill:none;stroke:#b0b0b0;stroke-linecap:square;stroke-width:0.8;"/>
     </g>
     <g id="line2d_8">
      <g>
       <use style="stroke:#000000;stroke-width:0.8;" x="234.377419" xlink:href="#me2dcd02f5b" y="140.032"/>
      </g>
     </g>
     <g id="text_4">
      <!-- 30 -->
      <defs>
       <path d="M 40.578125 39.3125 
Q 47.65625 37.796875 51.625 33 
Q 55.609375 28.21875 55.609375 21.1875 
Q 55.609375 10.40625 48.1875 4.484375 
Q 40.765625 -1.421875 27.09375 -1.421875 
Q 22.515625 -1.421875 17.65625 -0.515625 
Q 12.796875 0.390625 7.625 2.203125 
L 7.625 11.71875 
Q 11.71875 9.328125 16.59375 8.109375 
Q 21.484375 6.890625 26.8125 6.890625 
Q 36.078125 6.890625 40.9375 10.546875 
Q 45.796875 14.203125 45.796875 21.1875 
Q 45.796875 27.640625 41.28125 31.265625 
Q 36.765625 34.90625 28.71875 34.90625 
L 20.21875 34.90625 
L 20.21875 43.015625 
L 29.109375 43.015625 
Q 36.375 43.015625 40.234375 45.921875 
Q 44.09375 48.828125 44.09375 54.296875 
Q 44.09375 59.90625 40.109375 62.90625 
Q 36.140625 65.921875 28.71875 65.921875 
Q 24.65625 65.921875 20.015625 65.03125 
Q 15.375 64.15625 9.8125 62.3125 
L 9.8125 71.09375 
Q 15.4375 72.65625 20.34375 73.4375 
Q 25.25 74.21875 29.59375 74.21875 
Q 40.828125 74.21875 47.359375 69.109375 
Q 53.90625 64.015625 53.90625 55.328125 
Q 53.90625 49.265625 50.4375 45.09375 
Q 46.96875 40.921875 40.578125 39.3125 
z
" id="DejaVuSans-51"/>
      </defs>
      <g transform="translate(228.014919 154.630437)scale(0.1 -0.1)">
       <use xlink:href="#DejaVuSans-51"/>
       <use x="63.623047" xlink:href="#DejaVuSans-48"/>
      </g>
     </g>
    </g>
    <g id="xtick_5">
     <g id="line2d_9">
      <path clip-path="url(#p82a31718b5)" d="M 287.908376 140.032 
L 287.908376 41.472 
" style="fill:none;stroke:#b0b0b0;stroke-linecap:square;stroke-width:0.8;"/>
     </g>
     <g id="line2d_10">
      <g>
       <use style="stroke:#000000;stroke-width:0.8;" x="287.908376" xlink:href="#me2dcd02f5b" y="140.032"/>
      </g>
     </g>
     <g id="text_5">
      <!-- 40 -->
      <defs>
       <path d="M 37.796875 64.3125 
L 12.890625 25.390625 
L 37.796875 25.390625 
z
M 35.203125 72.90625 
L 47.609375 72.90625 
L 47.609375 25.390625 
L 58.015625 25.390625 
L 58.015625 17.1875 
L 47.609375 17.1875 
L 47.609375 0 
L 37.796875 0 
L 37.796875 17.1875 
L 4.890625 17.1875 
L 4.890625 26.703125 
z
" id="DejaVuSans-52"/>
      </defs>
      <g transform="translate(281.545876 154.630437)scale(0.1 -0.1)">
       <use xlink:href="#DejaVuSans-52"/>
       <use x="63.623047" xlink:href="#DejaVuSans-48"/>
      </g>
     </g>
    </g>
    <g id="xtick_6">
     <g id="line2d_11">
      <path clip-path="url(#p82a31718b5)" d="M 341.439332 140.032 
L 341.439332 41.472 
" style="fill:none;stroke:#b0b0b0;stroke-linecap:square;stroke-width:0.8;"/>
     </g>
     <g id="line2d_12">
      <g>
       <use style="stroke:#000000;stroke-width:0.8;" x="341.439332" xlink:href="#me2dcd02f5b" y="140.032"/>
      </g>
     </g>
     <g id="text_6">
      <!-- 50 -->
      <defs>
       <path d="M 10.796875 72.90625 
L 49.515625 72.90625 
L 49.515625 64.59375 
L 19.828125 64.59375 
L 19.828125 46.734375 
Q 21.96875 47.46875 24.109375 47.828125 
Q 26.265625 48.1875 28.421875 48.1875 
Q 40.625 48.1875 47.75 41.5 
Q 54.890625 34.8125 54.890625 23.390625 
Q 54.890625 11.625 47.5625 5.09375 
Q 40.234375 -1.421875 26.90625 -1.421875 
Q 22.3125 -1.421875 17.546875 -0.640625 
Q 12.796875 0.140625 7.71875 1.703125 
L 7.71875 11.625 
Q 12.109375 9.234375 16.796875 8.0625 
Q 21.484375 6.890625 26.703125 6.890625 
Q 35.15625 6.890625 40.078125 11.328125 
Q 45.015625 15.765625 45.015625 23.390625 
Q 45.015625 31 40.078125 35.4375 
Q 35.15625 39.890625 26.703125 39.890625 
Q 22.75 39.890625 18.8125 39.015625 
Q 14.890625 38.140625 10.796875 36.28125 
z
" id="DejaVuSans-53"/>
      </defs>
      <g transform="translate(335.076832 154.630437)scale(0.1 -0.1)">
       <use xlink:href="#DejaVuSans-53"/>
       <use x="63.623047" xlink:href="#DejaVuSans-48"/>
      </g>
     </g>
    </g>
    <g id="xtick_7">
     <g id="line2d_13">
      <path clip-path="url(#p82a31718b5)" d="M 394.970289 140.032 
L 394.970289 41.472 
" style="fill:none;stroke:#b0b0b0;stroke-linecap:square;stroke-width:0.8;"/>
     </g>
     <g id="line2d_14">
      <g>
       <use style="stroke:#000000;stroke-width:0.8;" x="394.970289" xlink:href="#me2dcd02f5b" y="140.032"/>
      </g>
     </g>
     <g id="text_7">
      <!-- 60 -->
      <defs>
       <path d="M 33.015625 40.375 
Q 26.375 40.375 22.484375 35.828125 
Q 18.609375 31.296875 18.609375 23.390625 
Q 18.609375 15.53125 22.484375 10.953125 
Q 26.375 6.390625 33.015625 6.390625 
Q 39.65625 6.390625 43.53125 10.953125 
Q 47.40625 15.53125 47.40625 23.390625 
Q 47.40625 31.296875 43.53125 35.828125 
Q 39.65625 40.375 33.015625 40.375 
z
M 52.59375 71.296875 
L 52.59375 62.3125 
Q 48.875 64.0625 45.09375 64.984375 
Q 41.3125 65.921875 37.59375 65.921875 
Q 27.828125 65.921875 22.671875 59.328125 
Q 17.53125 52.734375 16.796875 39.40625 
Q 19.671875 43.65625 24.015625 45.921875 
Q 28.375 48.1875 33.59375 48.1875 
Q 44.578125 48.1875 50.953125 41.515625 
Q 57.328125 34.859375 57.328125 23.390625 
Q 57.328125 12.15625 50.6875 5.359375 
Q 44.046875 -1.421875 33.015625 -1.421875 
Q 20.359375 -1.421875 13.671875 8.265625 
Q 6.984375 17.96875 6.984375 36.375 
Q 6.984375 53.65625 15.1875 63.9375 
Q 23.390625 74.21875 37.203125 74.21875 
Q 40.921875 74.21875 44.703125 73.484375 
Q 48.484375 72.75 52.59375 71.296875 
z
" id="DejaVuSans-54"/>
      </defs>
      <g transform="translate(388.607789 154.630437)scale(0.1 -0.1)">
       <use xlink:href="#DejaVuSans-54"/>
       <use x="63.623047" xlink:href="#DejaVuSans-48"/>
      </g>
     </g>
    </g>
    <g id="text_8">
     <!-- Tid [s] -->
     <defs>
      <path d="M -0.296875 72.90625 
L 61.375 72.90625 
L 61.375 64.59375 
L 35.5 64.59375 
L 35.5 0 
L 25.59375 0 
L 25.59375 64.59375 
L -0.296875 64.59375 
z
" id="DejaVuSans-84"/>
      <path d="M 9.421875 54.6875 
L 18.40625 54.6875 
L 18.40625 0 
L 9.421875 0 
z
M 9.421875 75.984375 
L 18.40625 75.984375 
L 18.40625 64.59375 
L 9.421875 64.59375 
z
" id="DejaVuSans-105"/>
      <path d="M 45.40625 46.390625 
L 45.40625 75.984375 
L 54.390625 75.984375 
L 54.390625 0 
L 45.40625 0 
L 45.40625 8.203125 
Q 42.578125 3.328125 38.25 0.953125 
Q 33.9375 -1.421875 27.875 -1.421875 
Q 17.96875 -1.421875 11.734375 6.484375 
Q 5.515625 14.40625 5.515625 27.296875 
Q 5.515625 40.1875 11.734375 48.09375 
Q 17.96875 56 27.875 56 
Q 33.9375 56 38.25 53.625 
Q 42.578125 51.265625 45.40625 46.390625 
z
M 14.796875 27.296875 
Q 14.796875 17.390625 18.875 11.75 
Q 22.953125 6.109375 30.078125 6.109375 
Q 37.203125 6.109375 41.296875 11.75 
Q 45.40625 17.390625 45.40625 27.296875 
Q 45.40625 37.203125 41.296875 42.84375 
Q 37.203125 48.484375 30.078125 48.484375 
Q 22.953125 48.484375 18.875 42.84375 
Q 14.796875 37.203125 14.796875 27.296875 
z
" id="DejaVuSans-100"/>
      <path id="DejaVuSans-32"/>
      <path d="M 8.59375 75.984375 
L 29.296875 75.984375 
L 29.296875 69 
L 17.578125 69 
L 17.578125 -6.203125 
L 29.296875 -6.203125 
L 29.296875 -13.1875 
L 8.59375 -13.1875 
z
" id="DejaVuSans-91"/>
      <path d="M 44.28125 53.078125 
L 44.28125 44.578125 
Q 40.484375 46.53125 36.375 47.5 
Q 32.28125 48.484375 27.875 48.484375 
Q 21.1875 48.484375 17.84375 46.4375 
Q 14.5 44.390625 14.5 40.28125 
Q 14.5 37.15625 16.890625 35.375 
Q 19.28125 33.59375 26.515625 31.984375 
L 29.59375 31.296875 
Q 39.15625 29.25 43.1875 25.515625 
Q 47.21875 21.78125 47.21875 15.09375 
Q 47.21875 7.46875 41.1875 3.015625 
Q 35.15625 -1.421875 24.609375 -1.421875 
Q 20.21875 -1.421875 15.453125 -0.5625 
Q 10.6875 0.296875 5.421875 2 
L 5.421875 11.28125 
Q 10.40625 8.6875 15.234375 7.390625 
Q 20.0625 6.109375 24.8125 6.109375 
Q 31.15625 6.109375 34.5625 8.28125 
Q 37.984375 10.453125 37.984375 14.40625 
Q 37.984375 18.0625 35.515625 20.015625 
Q 33.0625 21.96875 24.703125 23.78125 
L 21.578125 24.515625 
Q 13.234375 26.265625 9.515625 29.90625 
Q 5.8125 33.546875 5.8125 39.890625 
Q 5.8125 47.609375 11.28125 51.796875 
Q 16.75 56 26.8125 56 
Q 31.78125 56 36.171875 55.265625 
Q 40.578125 54.546875 44.28125 53.078125 
z
" id="DejaVuSans-115"/>
      <path d="M 30.421875 75.984375 
L 30.421875 -13.1875 
L 9.71875 -13.1875 
L 9.71875 -6.203125 
L 21.390625 -6.203125 
L 21.390625 69 
L 9.71875 69 
L 9.71875 75.984375 
z
" id="DejaVuSans-93"/>
     </defs>
     <g transform="translate(220.449844 168.308562)scale(0.1 -0.1)">
      <use xlink:href="#DejaVuSans-84"/>
      <use x="61.037109" xlink:href="#DejaVuSans-105"/>
      <use x="88.820312" xlink:href="#DejaVuSans-100"/>
      <use x="152.296875" xlink:href="#DejaVuSans-32"/>
      <use x="184.083984" xlink:href="#DejaVuSans-91"/>
      <use x="223.097656" xlink:href="#DejaVuSans-115"/>
      <use x="275.197266" xlink:href="#DejaVuSans-93"/>
     </g>
    </g>
   </g>
   <g id="matplotlib.axis_2">
    <g id="ytick_1">
     <g id="line2d_15">
      <path clip-path="url(#p82a31718b5)" d="M 57.6 135.552 
L 414.72 135.552 
" style="fill:none;stroke:#b0b0b0;stroke-linecap:square;stroke-width:0.8;"/>
     </g>
     <g id="line2d_16">
      <defs>
       <path d="M 0 0 
L -3.5 0 
" id="m616bf60090" style="stroke:#000000;stroke-width:0.8;"/>
      </defs>
      <g>
       <use style="stroke:#000000;stroke-width:0.8;" x="57.6" xlink:href="#m616bf60090" y="135.552"/>
      </g>
     </g>
     <g id="text_9">
      <!-- 0.0 -->
      <defs>
       <path d="M 10.6875 12.40625 
L 21 12.40625 
L 21 0 
L 10.6875 0 
z
" id="DejaVuSans-46"/>
      </defs>
      <g transform="translate(34.696875 139.351219)scale(0.1 -0.1)">
       <use xlink:href="#DejaVuSans-48"/>
       <use x="63.623047" xlink:href="#DejaVuSans-46"/>
       <use x="95.410156" xlink:href="#DejaVuSans-48"/>
      </g>
     </g>
    </g>
    <g id="ytick_2">
     <g id="line2d_17">
      <path clip-path="url(#p82a31718b5)" d="M 57.6 102.434957 
L 414.72 102.434957 
" style="fill:none;stroke:#b0b0b0;stroke-linecap:square;stroke-width:0.8;"/>
     </g>
     <g id="line2d_18">
      <g>
       <use style="stroke:#000000;stroke-width:0.8;" x="57.6" xlink:href="#m616bf60090" y="102.434957"/>
      </g>
     </g>
     <g id="text_10">
      <!-- 0.5 -->
      <g transform="translate(34.696875 106.234176)scale(0.1 -0.1)">
       <use xlink:href="#DejaVuSans-48"/>
       <use x="63.623047" xlink:href="#DejaVuSans-46"/>
       <use x="95.410156" xlink:href="#DejaVuSans-53"/>
      </g>
     </g>
    </g>
    <g id="ytick_3">
     <g id="line2d_19">
      <path clip-path="url(#p82a31718b5)" d="M 57.6 69.317914 
L 414.72 69.317914 
" style="fill:none;stroke:#b0b0b0;stroke-linecap:square;stroke-width:0.8;"/>
     </g>
     <g id="line2d_20">
      <g>
       <use style="stroke:#000000;stroke-width:0.8;" x="57.6" xlink:href="#m616bf60090" y="69.317914"/>
      </g>
     </g>
     <g id="text_11">
      <!-- 1.0 -->
      <g transform="translate(34.696875 73.117133)scale(0.1 -0.1)">
       <use xlink:href="#DejaVuSans-49"/>
       <use x="63.623047" xlink:href="#DejaVuSans-46"/>
       <use x="95.410156" xlink:href="#DejaVuSans-48"/>
      </g>
     </g>
    </g>
    <g id="text_12">
     <!-- Hastighet [m/s] -->
     <defs>
      <path d="M 9.8125 72.90625 
L 19.671875 72.90625 
L 19.671875 43.015625 
L 55.515625 43.015625 
L 55.515625 72.90625 
L 65.375 72.90625 
L 65.375 0 
L 55.515625 0 
L 55.515625 34.71875 
L 19.671875 34.71875 
L 19.671875 0 
L 9.8125 0 
z
" id="DejaVuSans-72"/>
      <path d="M 34.28125 27.484375 
Q 23.390625 27.484375 19.1875 25 
Q 14.984375 22.515625 14.984375 16.5 
Q 14.984375 11.71875 18.140625 8.90625 
Q 21.296875 6.109375 26.703125 6.109375 
Q 34.1875 6.109375 38.703125 11.40625 
Q 43.21875 16.703125 43.21875 25.484375 
L 43.21875 27.484375 
z
M 52.203125 31.203125 
L 52.203125 0 
L 43.21875 0 
L 43.21875 8.296875 
Q 40.140625 3.328125 35.546875 0.953125 
Q 30.953125 -1.421875 24.3125 -1.421875 
Q 15.921875 -1.421875 10.953125 3.296875 
Q 6 8.015625 6 15.921875 
Q 6 25.140625 12.171875 29.828125 
Q 18.359375 34.515625 30.609375 34.515625 
L 43.21875 34.515625 
L 43.21875 35.40625 
Q 43.21875 41.609375 39.140625 45 
Q 35.0625 48.390625 27.6875 48.390625 
Q 23 48.390625 18.546875 47.265625 
Q 14.109375 46.140625 10.015625 43.890625 
L 10.015625 52.203125 
Q 14.9375 54.109375 19.578125 55.046875 
Q 24.21875 56 28.609375 56 
Q 40.484375 56 46.34375 49.84375 
Q 52.203125 43.703125 52.203125 31.203125 
z
" id="DejaVuSans-97"/>
      <path d="M 18.3125 70.21875 
L 18.3125 54.6875 
L 36.8125 54.6875 
L 36.8125 47.703125 
L 18.3125 47.703125 
L 18.3125 18.015625 
Q 18.3125 11.328125 20.140625 9.421875 
Q 21.96875 7.515625 27.59375 7.515625 
L 36.8125 7.515625 
L 36.8125 0 
L 27.59375 0 
Q 17.1875 0 13.234375 3.875 
Q 9.28125 7.765625 9.28125 18.015625 
L 9.28125 47.703125 
L 2.6875 47.703125 
L 2.6875 54.6875 
L 9.28125 54.6875 
L 9.28125 70.21875 
z
" id="DejaVuSans-116"/>
      <path d="M 45.40625 27.984375 
Q 45.40625 37.75 41.375 43.109375 
Q 37.359375 48.484375 30.078125 48.484375 
Q 22.859375 48.484375 18.828125 43.109375 
Q 14.796875 37.75 14.796875 27.984375 
Q 14.796875 18.265625 18.828125 12.890625 
Q 22.859375 7.515625 30.078125 7.515625 
Q 37.359375 7.515625 41.375 12.890625 
Q 45.40625 18.265625 45.40625 27.984375 
z
M 54.390625 6.78125 
Q 54.390625 -7.171875 48.1875 -13.984375 
Q 42 -20.796875 29.203125 -20.796875 
Q 24.46875 -20.796875 20.265625 -20.09375 
Q 16.0625 -19.390625 12.109375 -17.921875 
L 12.109375 -9.1875 
Q 16.0625 -11.328125 19.921875 -12.34375 
Q 23.78125 -13.375 27.78125 -13.375 
Q 36.625 -13.375 41.015625 -8.765625 
Q 45.40625 -4.15625 45.40625 5.171875 
L 45.40625 9.625 
Q 42.625 4.78125 38.28125 2.390625 
Q 33.9375 0 27.875 0 
Q 17.828125 0 11.671875 7.65625 
Q 5.515625 15.328125 5.515625 27.984375 
Q 5.515625 40.671875 11.671875 48.328125 
Q 17.828125 56 27.875 56 
Q 33.9375 56 38.28125 53.609375 
Q 42.625 51.21875 45.40625 46.390625 
L 45.40625 54.6875 
L 54.390625 54.6875 
z
" id="DejaVuSans-103"/>
      <path d="M 54.890625 33.015625 
L 54.890625 0 
L 45.90625 0 
L 45.90625 32.71875 
Q 45.90625 40.484375 42.875 44.328125 
Q 39.84375 48.1875 33.796875 48.1875 
Q 26.515625 48.1875 22.3125 43.546875 
Q 18.109375 38.921875 18.109375 30.90625 
L 18.109375 0 
L 9.078125 0 
L 9.078125 75.984375 
L 18.109375 75.984375 
L 18.109375 46.1875 
Q 21.34375 51.125 25.703125 53.5625 
Q 30.078125 56 35.796875 56 
Q 45.21875 56 50.046875 50.171875 
Q 54.890625 44.34375 54.890625 33.015625 
z
" id="DejaVuSans-104"/>
      <path d="M 56.203125 29.59375 
L 56.203125 25.203125 
L 14.890625 25.203125 
Q 15.484375 15.921875 20.484375 11.0625 
Q 25.484375 6.203125 34.421875 6.203125 
Q 39.59375 6.203125 44.453125 7.46875 
Q 49.3125 8.734375 54.109375 11.28125 
L 54.109375 2.78125 
Q 49.265625 0.734375 44.1875 -0.34375 
Q 39.109375 -1.421875 33.890625 -1.421875 
Q 20.796875 -1.421875 13.15625 6.1875 
Q 5.515625 13.8125 5.515625 26.8125 
Q 5.515625 40.234375 12.765625 48.109375 
Q 20.015625 56 32.328125 56 
Q 43.359375 56 49.78125 48.890625 
Q 56.203125 41.796875 56.203125 29.59375 
z
M 47.21875 32.234375 
Q 47.125 39.59375 43.09375 43.984375 
Q 39.0625 48.390625 32.421875 48.390625 
Q 24.90625 48.390625 20.390625 44.140625 
Q 15.875 39.890625 15.1875 32.171875 
z
" id="DejaVuSans-101"/>
      <path d="M 52 44.1875 
Q 55.375 50.25 60.0625 53.125 
Q 64.75 56 71.09375 56 
Q 79.640625 56 84.28125 50.015625 
Q 88.921875 44.046875 88.921875 33.015625 
L 88.921875 0 
L 79.890625 0 
L 79.890625 32.71875 
Q 79.890625 40.578125 77.09375 44.375 
Q 74.3125 48.1875 68.609375 48.1875 
Q 61.625 48.1875 57.5625 43.546875 
Q 53.515625 38.921875 53.515625 30.90625 
L 53.515625 0 
L 44.484375 0 
L 44.484375 32.71875 
Q 44.484375 40.625 41.703125 44.40625 
Q 38.921875 48.1875 33.109375 48.1875 
Q 26.21875 48.1875 22.15625 43.53125 
Q 18.109375 38.875 18.109375 30.90625 
L 18.109375 0 
L 9.078125 0 
L 9.078125 54.6875 
L 18.109375 54.6875 
L 18.109375 46.1875 
Q 21.1875 51.21875 25.484375 53.609375 
Q 29.78125 56 35.6875 56 
Q 41.65625 56 45.828125 52.96875 
Q 50 49.953125 52 44.1875 
z
" id="DejaVuSans-109"/>
      <path d="M 25.390625 72.90625 
L 33.6875 72.90625 
L 8.296875 -9.28125 
L 0 -9.28125 
z
" id="DejaVuSans-47"/>
     </defs>
     <g transform="translate(28.617187 129.559812)rotate(-90)scale(0.1 -0.1)">
      <use xlink:href="#DejaVuSans-72"/>
      <use x="75.195312" xlink:href="#DejaVuSans-97"/>
      <use x="136.474609" xlink:href="#DejaVuSans-115"/>
      <use x="188.574219" xlink:href="#DejaVuSans-116"/>
      <use x="227.783203" xlink:href="#DejaVuSans-105"/>
      <use x="255.566406" xlink:href="#DejaVuSans-103"/>
      <use x="319.042969" xlink:href="#DejaVuSans-104"/>
      <use x="382.421875" xlink:href="#DejaVuSans-101"/>
      <use x="443.945312" xlink:href="#DejaVuSans-116"/>
      <use x="483.154297" xlink:href="#DejaVuSans-32"/>
      <use x="514.941406" xlink:href="#DejaVuSans-91"/>
      <use x="553.955078" xlink:href="#DejaVuSans-109"/>
      <use x="651.367188" xlink:href="#DejaVuSans-47"/>
      <use x="685.058594" xlink:href="#DejaVuSans-115"/>
      <use x="737.158203" xlink:href="#DejaVuSans-93"/>
     </g>
    </g>
   </g>
   <g id="line2d_21">
    <path clip-path="url(#p82a31718b5)" d="M 73.832727 135.552 
L 78.468508 135.552 
L 78.891403 131.320378 
L 81.889136 131.320378 
L 82.317384 129.480542 
L 84.458622 129.480542 
L 84.88687 126.720789 
L 86.176966 126.720789 
L 86.605214 124.329002 
L 87.889956 124.329002 
L 88.318204 122.305183 
L 89.174699 122.305183 
L 89.6083 119.729413 
L 90.464795 119.729413 
L 90.88769 116.969659 
L 91.315938 116.969659 
L 91.749538 114.025922 
L 92.177786 114.025922 
L 92.606034 111.634136 
L 93.034281 111.634136 
L 93.462529 109.610316 
L 93.901483 109.610316 
L 94.774037 106.482595 
L 95.212991 106.482595 
L 95.651945 105.19471 
L 96.096252 104.458776 
L 96.535206 104.458776 
L 96.97416 102.986908 
L 97.857421 102.986908 
L 98.296374 100.227154 
L 98.735328 100.595121 
L 99.174282 98.755285 
L 99.618589 98.755285 
L 100.057543 98.387318 
L 100.491144 96.547483 
L 100.930097 96.179515 
L 101.374404 95.259598 
L 101.813358 93.971713 
L 102.252312 93.971713 
L 102.691266 92.683828 
L 103.13022 93.051795 
L 103.574527 91.211959 
L 104.013481 90.660008 
L 104.452434 89.74009 
L 104.891388 88.084238 
L 105.335695 88.636189 
L 105.774649 88.084238 
L 106.20825 86.796353 
L 107.091511 86.796353 
L 107.530464 84.956517 
L 107.969418 84.220583 
L 108.408372 84.220583 
L 108.852679 82.196764 
L 109.291633 82.932698 
L 109.730587 82.196764 
L 110.169541 80.724895 
L 110.608494 81.46083 
L 111.052801 81.46083 
L 111.491755 79.988961 
L 111.930709 79.988961 
L 112.36431 77.597175 
L 112.808617 77.597175 
L 113.686524 75.757339 
L 114.125478 73.917503 
L 114.569785 73.917503 
L 115.008739 71.893684 
L 115.447693 71.893684 
L 115.886647 68.581979 
L 116.330954 68.581979 
L 116.769908 67.478078 
L 117.208861 67.478078 
L 117.647815 65.086292 
L 118.081416 66.374177 
L 118.525723 62.510522 
L 118.964677 65.086292 
L 119.403631 62.510522 
L 119.842584 62.510522 
L 120.286891 63.798407 
L 120.725845 59.750768 
L 121.164799 61.038653 
L 121.603753 59.750768 
L 122.04806 56.623047 
L 122.487014 58.094916 
L 122.925968 54.967195 
L 123.364921 54.967195 
L 123.803875 53.311343 
L 124.242829 54.967195 
L 124.681783 51.655491 
L 125.120737 51.655491 
L 125.559691 49.815655 
L 126.003998 51.655491 
L 126.442951 49.815655 
L 127.781225 49.815655 
L 128.236238 47.791836 
L 128.691252 47.791836 
L 129.146265 49.815655 
L 129.606631 47.791836 
L 130.516657 51.655491 
L 130.977023 49.815655 
L 131.88705 49.815655 
L 132.342063 51.655491 
L 132.802429 51.655491 
L 133.257442 56.623047 
L 133.712455 53.311343 
L 135.082848 58.094916 
L 135.537861 56.623047 
L 136.45324 59.750768 
L 136.908253 58.094916 
L 137.36862 58.094916 
L 137.823633 59.750768 
L 138.278646 58.094916 
L 138.733659 59.750768 
L 139.194025 56.623047 
L 139.649038 59.750768 
L 140.104052 58.094916 
L 140.564418 59.750768 
L 141.929457 54.967195 
L 142.389823 56.623047 
L 142.844836 56.623047 
L 143.29985 54.967195 
L 143.754863 56.623047 
L 144.215229 54.967195 
L 144.670242 58.094916 
L 145.585621 54.967195 
L 146.040635 56.623047 
L 146.950661 56.623047 
L 147.411027 54.967195 
L 147.86604 58.094916 
L 148.321053 56.623047 
L 149.236433 56.623047 
L 149.691446 58.094916 
L 150.146459 56.623047 
L 150.606825 56.623047 
L 151.061838 58.094916 
L 151.977218 58.094916 
L 152.432231 59.750768 
L 152.887244 59.750768 
L 153.342257 62.510522 
L 153.802623 59.750768 
L 154.71265 59.750768 
L 155.173016 61.038653 
L 155.628029 59.750768 
L 156.083042 59.750768 
L 156.538055 61.038653 
L 156.998421 59.750768 
L 157.453435 62.510522 
L 157.908448 62.510522 
L 158.363461 65.086292 
L 158.823827 62.510522 
L 159.27884 66.374177 
L 159.733853 65.086292 
L 160.19422 66.374177 
L 160.649233 65.086292 
L 161.104246 66.374177 
L 161.559259 65.086292 
L 162.019625 67.478078 
L 162.474638 66.374177 
L 162.929651 68.581979 
L 163.390018 66.374177 
L 163.845031 67.478078 
L 164.300044 67.478078 
L 164.755057 68.581979 
L 165.215423 66.374177 
L 165.670436 67.478078 
L 166.12545 67.478078 
L 166.585816 68.581979 
L 167.495842 68.581979 
L 167.950855 69.869864 
L 168.411221 68.581979 
L 168.866234 68.581979 
L 169.321248 67.478078 
L 169.781614 68.581979 
L 170.236627 67.478078 
L 170.69164 68.581979 
L 171.146653 67.478078 
L 171.607019 68.581979 
L 172.062033 67.478078 
L 172.517046 65.086292 
L 172.972059 67.478078 
L 173.432425 67.478078 
L 173.887438 66.374177 
L 174.342451 66.374177 
L 174.802818 65.086292 
L 175.257831 66.374177 
L 175.712844 63.798407 
L 176.167857 66.374177 
L 176.628223 65.086292 
L 177.083236 67.478078 
L 177.538249 65.086292 
L 177.998616 67.478078 
L 178.453629 65.086292 
L 178.908642 66.374177 
L 179.363655 63.798407 
L 179.824021 65.086292 
L 180.279034 62.510522 
L 180.734048 61.038653 
L 181.194414 62.510522 
L 181.649427 59.750768 
L 182.10444 61.038653 
L 182.559453 59.750768 
L 183.474833 59.750768 
L 183.929846 61.038653 
L 184.390212 61.038653 
L 185.300238 63.798407 
L 185.755251 62.510522 
L 186.670631 62.510522 
L 187.125644 63.798407 
L 188.041023 63.798407 
L 188.496036 62.510522 
L 188.951049 63.798407 
L 189.411416 62.510522 
L 189.866429 65.086292 
L 190.321442 63.798407 
L 190.776455 63.798407 
L 191.236821 65.086292 
L 191.691834 63.798407 
L 192.607214 63.798407 
L 193.062227 65.086292 
L 193.51724 63.798407 
L 193.972253 65.086292 
L 194.887632 65.086292 
L 195.342646 63.798407 
L 195.803012 65.086292 
L 196.258025 63.798407 
L 196.713038 63.798407 
L 197.168051 65.086292 
L 197.628417 63.798407 
L 198.083431 63.798407 
L 198.538444 62.510522 
L 198.99881 65.086292 
L 199.453823 61.038653 
L 199.908836 62.510522 
L 200.363849 61.038653 
L 201.734242 61.038653 
L 202.189255 63.798407 
L 203.104634 61.038653 
L 203.559647 62.510522 
L 204.020014 61.038653 
L 204.93004 61.038653 
L 205.385053 59.750768 
L 205.845419 61.038653 
L 206.300432 59.750768 
L 206.755446 59.750768 
L 207.215812 61.038653 
L 207.670825 58.094916 
L 208.580851 61.038653 
L 209.041217 59.750768 
L 209.496231 59.750768 
L 209.951244 61.038653 
L 210.41161 59.750768 
L 210.866623 58.094916 
L 211.321636 59.750768 
L 211.776649 56.623047 
L 212.692029 56.623047 
L 213.607408 53.311343 
L 214.517434 53.311343 
L 214.972447 54.967195 
L 215.432814 53.311343 
L 216.34284 53.311343 
L 216.797853 56.623047 
L 217.258219 53.311343 
L 217.713232 53.311343 
L 218.168245 51.655491 
L 218.628612 54.967195 
L 219.083625 51.655491 
L 219.993651 51.655491 
L 220.454017 53.311343 
L 221.364044 53.311343 
L 221.82441 51.655491 
L 222.279423 53.311343 
L 222.734436 53.311343 
L 223.189449 54.967195 
L 223.649815 54.967195 
L 224.559842 51.655491 
L 225.475221 54.967195 
L 225.930234 53.311343 
L 226.845614 53.311343 
L 227.300627 56.623047 
L 227.75564 53.311343 
L 228.216006 53.311343 
L 228.671019 54.967195 
L 229.126032 58.094916 
L 229.581045 54.967195 
L 230.041412 54.967195 
L 230.496425 58.094916 
L 231.406451 58.094916 
L 232.32183 61.038653 
L 232.776844 59.750768 
L 233.23721 65.086292 
L 233.692223 63.798407 
L 234.147236 65.086292 
L 235.062615 69.869864 
L 235.972642 71.893684 
L 236.888021 73.917503 
L 237.343034 77.597175 
L 238.258413 77.597175 
L 238.713427 81.46083 
L 239.16844 82.196764 
L 240.083819 88.084238 
L 240.993845 93.971713 
L 241.454212 93.971713 
L 242.364238 102.986908 
L 242.824604 102.986908 
L 243.279617 114.393889 
L 244.65001 114.393889 
L 245.105023 135.552 
L 366.989658 135.552 
L 367.444671 135.368016 
L 367.905037 135.368016 
L 368.36005 135.552 
L 382.053269 135.552 
L 382.513635 134.080131 
L 389.815258 134.080131 
L 390.270271 132.792246 
L 398.487273 132.792246 
L 398.487273 132.792246 
" style="fill:none;stroke:#ff0000;stroke-dasharray:5.55,2.4;stroke-dashoffset:0;stroke-width:1.5;"/>
   </g>
   <g id="line2d_22">
    <path clip-path="url(#p82a31718b5)" d="M 73.832727 135.552 
L 80.59904 135.552 
L 81.027288 132.608263 
L 83.60748 132.608263 
L 84.030375 127.82469 
L 85.315117 127.82469 
L 85.748718 125.432903 
L 87.033461 125.432903 
L 87.456356 123.225101 
L 88.746452 123.225101 
L 89.174699 121.017298 
L 90.036548 121.017298 
L 90.464795 118.257544 
L 90.88769 118.257544 
L 91.315938 115.681774 
L 91.749538 115.681774 
L 92.177786 112.922021 
L 92.606034 112.922021 
L 93.034281 110.530234 
L 93.462529 110.530234 
L 93.901483 108.506415 
L 94.340437 108.506415 
L 94.774037 107.586497 
L 95.212991 107.586497 
L 96.096252 105.19471 
L 96.535206 105.19471 
L 97.413114 102.434957 
L 97.857421 102.434957 
L 98.296374 101.515039 
L 99.174282 98.939269 
L 99.618589 98.019351 
L 100.057543 98.019351 
L 100.491144 96.547483 
L 101.374404 94.523663 
L 101.813358 94.523663 
L 102.252312 92.683828 
L 102.691266 92.131877 
L 103.13022 92.131877 
L 103.574527 91.211959 
L 104.013481 90.660008 
L 104.891388 88.636189 
L 105.335695 88.636189 
L 105.774649 88.084238 
L 106.20825 88.084238 
L 106.647204 86.796353 
L 107.091511 86.244402 
L 107.530464 86.244402 
L 107.969418 84.220583 
L 108.852679 82.932698 
L 109.291633 82.932698 
L 109.730587 82.196764 
L 110.169541 82.196764 
L 110.608494 81.46083 
L 111.052801 79.988961 
L 111.491755 80.724895 
L 111.930709 79.253027 
L 112.36431 78.333109 
L 112.808617 76.677257 
L 113.247571 76.677257 
L 113.686524 74.837421 
L 114.569785 72.997585 
L 115.008739 72.997585 
L 115.447693 71.893684 
L 115.886647 69.869864 
L 116.330954 69.869864 
L 116.769908 67.478078 
L 117.208861 67.478078 
L 117.647815 65.086292 
L 118.525723 65.086292 
L 118.964677 63.798407 
L 119.842584 63.798407 
L 120.286891 61.038653 
L 120.725845 61.038653 
L 121.164799 59.750768 
L 121.603753 61.038653 
L 122.04806 58.094916 
L 122.487014 56.623047 
L 122.925968 56.623047 
L 123.803875 53.311343 
L 124.681783 53.311343 
L 125.559691 49.815655 
L 126.881905 49.815655 
L 127.320859 51.655491 
L 127.781225 47.791836 
L 129.606631 47.791836 
L 130.061644 45.952 
L 130.516657 47.791836 
L 130.977023 47.791836 
L 131.88705 51.655491 
L 132.342063 51.655491 
L 133.257442 54.967195 
L 133.712455 53.311343 
L 134.172822 56.623047 
L 134.627835 56.623047 
L 135.082848 58.094916 
L 135.537861 56.623047 
L 136.45324 59.750768 
L 136.908253 58.094916 
L 137.36862 58.094916 
L 137.823633 61.038653 
L 138.278646 58.094916 
L 139.194025 61.038653 
L 139.649038 59.750768 
L 140.104052 59.750768 
L 140.564418 58.094916 
L 141.019431 59.750768 
L 141.929457 56.623047 
L 142.844836 56.623047 
L 143.29985 58.094916 
L 143.754863 54.967195 
L 144.215229 54.967195 
L 144.670242 56.623047 
L 145.125255 54.967195 
L 145.585621 54.967195 
L 146.495648 58.094916 
L 146.950661 56.623047 
L 147.411027 58.094916 
L 147.86604 56.623047 
L 148.321053 58.094916 
L 148.78142 56.623047 
L 150.606825 56.623047 
L 151.061838 58.094916 
L 151.977218 58.094916 
L 152.432231 61.038653 
L 152.887244 59.750768 
L 153.802623 59.750768 
L 154.257636 58.094916 
L 154.71265 59.750768 
L 155.173016 62.510522 
L 155.628029 59.750768 
L 156.083042 62.510522 
L 156.538055 59.750768 
L 156.998421 61.038653 
L 157.453435 59.750768 
L 157.908448 61.038653 
L 158.363461 65.086292 
L 158.823827 62.510522 
L 159.27884 63.798407 
L 159.733853 66.374177 
L 160.19422 65.086292 
L 160.649233 65.086292 
L 161.104246 63.798407 
L 162.019625 66.374177 
L 162.929651 66.374177 
L 163.390018 67.478078 
L 163.845031 67.478078 
L 164.300044 68.581979 
L 164.755057 68.581979 
L 165.215423 67.478078 
L 165.670436 68.581979 
L 166.12545 67.478078 
L 166.585816 68.581979 
L 167.040829 68.581979 
L 167.495842 69.869864 
L 167.950855 68.581979 
L 168.411221 68.581979 
L 168.866234 67.478078 
L 169.321248 68.581979 
L 169.781614 66.374177 
L 170.236627 68.581979 
L 170.69164 68.581979 
L 171.146653 66.374177 
L 171.607019 68.581979 
L 172.062033 67.478078 
L 172.517046 68.581979 
L 172.972059 66.374177 
L 173.432425 67.478078 
L 173.887438 66.374177 
L 174.802818 66.374177 
L 175.257831 63.798407 
L 175.712844 66.374177 
L 176.167857 65.086292 
L 176.628223 65.086292 
L 177.083236 66.374177 
L 177.538249 66.374177 
L 177.998616 65.086292 
L 178.908642 65.086292 
L 179.824021 62.510522 
L 180.279034 63.798407 
L 180.734048 61.038653 
L 181.194414 63.798407 
L 181.649427 59.750768 
L 182.10444 62.510522 
L 182.559453 59.750768 
L 183.019819 59.750768 
L 183.474833 61.038653 
L 183.929846 59.750768 
L 184.845225 62.510522 
L 185.300238 61.038653 
L 185.755251 62.510522 
L 186.670631 62.510522 
L 187.125644 63.798407 
L 187.580657 62.510522 
L 188.496036 62.510522 
L 188.951049 63.798407 
L 189.866429 63.798407 
L 190.321442 65.086292 
L 190.776455 63.798407 
L 191.236821 65.086292 
L 191.691834 63.798407 
L 192.146848 65.086292 
L 192.607214 63.798407 
L 193.51724 63.798407 
L 193.972253 65.086292 
L 194.432619 63.798407 
L 194.887632 65.086292 
L 195.342646 63.798407 
L 196.713038 63.798407 
L 197.168051 65.086292 
L 197.628417 62.510522 
L 198.083431 63.798407 
L 198.538444 63.798407 
L 198.99881 65.086292 
L 199.453823 62.510522 
L 199.908836 61.038653 
L 200.363849 62.510522 
L 200.824216 61.038653 
L 201.734242 63.798407 
L 202.189255 61.038653 
L 202.649621 63.798407 
L 203.104634 61.038653 
L 203.559647 62.510522 
L 204.475027 59.750768 
L 204.93004 61.038653 
L 205.385053 58.094916 
L 205.845419 58.094916 
L 206.300432 61.038653 
L 206.755446 59.750768 
L 207.670825 59.750768 
L 208.125838 58.094916 
L 208.580851 61.038653 
L 209.041217 58.094916 
L 209.951244 61.038653 
L 210.41161 58.094916 
L 211.321636 58.094916 
L 212.237016 54.967195 
L 213.147042 54.967195 
L 213.607408 53.311343 
L 214.517434 53.311343 
L 214.972447 54.967195 
L 215.432814 53.311343 
L 216.34284 53.311343 
L 216.797853 54.967195 
L 217.258219 53.311343 
L 217.713232 53.311343 
L 218.168245 51.655491 
L 219.993651 51.655491 
L 220.454017 53.311343 
L 220.90903 51.655491 
L 221.364044 53.311343 
L 222.279423 53.311343 
L 222.734436 54.967195 
L 223.189449 54.967195 
L 223.649815 53.311343 
L 226.845614 53.311343 
L 227.300627 54.967195 
L 227.75564 53.311343 
L 228.216006 54.967195 
L 228.671019 54.967195 
L 229.126032 58.094916 
L 229.581045 56.623047 
L 230.041412 58.094916 
L 231.406451 58.094916 
L 232.32183 61.038653 
L 232.776844 61.038653 
L 233.23721 63.798407 
L 233.692223 63.798407 
L 234.147236 66.374177 
L 235.062615 68.581979 
L 235.517629 70.789782 
L 235.972642 71.893684 
L 236.433008 71.893684 
L 236.888021 74.837421 
L 237.798047 78.333109 
L 238.258413 78.333109 
L 238.713427 82.196764 
L 239.16844 83.668632 
L 239.628806 86.244402 
L 240.083819 88.084238 
L 240.993845 95.259598 
L 241.454212 95.259598 
L 241.909225 98.019351 
L 242.364238 103.906825 
L 243.279617 103.906825 
L 243.73463 116.049741 
L 244.65001 116.049741 
L 245.105023 135.552 
L 367.444671 135.552 
L 367.905037 135.368016 
L 368.36005 135.368016 
L 368.815063 135.552 
L 382.968648 135.552 
L 383.423662 134.080131 
L 390.270271 134.080131 
L 390.730637 132.792246 
L 398.487273 132.792246 
L 398.487273 132.792246 
" style="fill:none;stroke:#0000ff;stroke-dasharray:5.55,2.4;stroke-dashoffset:0;stroke-width:1.5;"/>
   </g>
   <g id="patch_3">
    <path d="M 57.6 140.032 
L 57.6 41.472 
" style="fill:none;stroke:#000000;stroke-linecap:square;stroke-linejoin:miter;stroke-width:0.8;"/>
   </g>
   <g id="patch_4">
    <path d="M 414.72 140.032 
L 414.72 41.472 
" style="fill:none;stroke:#000000;stroke-linecap:square;stroke-linejoin:miter;stroke-width:0.8;"/>
   </g>
   <g id="patch_5">
    <path d="M 57.6 140.032 
L 414.72 140.032 
" style="fill:none;stroke:#000000;stroke-linecap:square;stroke-linejoin:miter;stroke-width:0.8;"/>
   </g>
   <g id="patch_6">
    <path d="M 57.6 41.472 
L 414.72 41.472 
" style="fill:none;stroke:#000000;stroke-linecap:square;stroke-linejoin:miter;stroke-width:0.8;"/>
   </g>
   <g id="text_13">
    <!-- Hastighet över tid -->
    <defs>
     <path d="M 30.609375 48.390625 
Q 23.390625 48.390625 19.1875 42.75 
Q 14.984375 37.109375 14.984375 27.296875 
Q 14.984375 17.484375 19.15625 11.84375 
Q 23.34375 6.203125 30.609375 6.203125 
Q 37.796875 6.203125 41.984375 11.859375 
Q 46.1875 17.53125 46.1875 27.296875 
Q 46.1875 37.015625 41.984375 42.703125 
Q 37.796875 48.390625 30.609375 48.390625 
z
M 30.609375 56 
Q 42.328125 56 49.015625 48.375 
Q 55.71875 40.765625 55.71875 27.296875 
Q 55.71875 13.875 49.015625 6.21875 
Q 42.328125 -1.421875 30.609375 -1.421875 
Q 18.84375 -1.421875 12.171875 6.21875 
Q 5.515625 13.875 5.515625 27.296875 
Q 5.515625 40.765625 12.171875 48.375 
Q 18.84375 56 30.609375 56 
z
M 35.203125 75.78125 
L 45.125 75.78125 
L 45.125 65.921875 
L 35.203125 65.921875 
z
M 16.109375 75.78125 
L 26.03125 75.78125 
L 26.03125 65.921875 
L 16.109375 65.921875 
z
" id="DejaVuSans-246"/>
     <path d="M 2.984375 54.6875 
L 12.5 54.6875 
L 29.59375 8.796875 
L 46.6875 54.6875 
L 56.203125 54.6875 
L 35.6875 0 
L 23.484375 0 
z
" id="DejaVuSans-118"/>
     <path d="M 41.109375 46.296875 
Q 39.59375 47.171875 37.8125 47.578125 
Q 36.03125 48 33.890625 48 
Q 26.265625 48 22.1875 43.046875 
Q 18.109375 38.09375 18.109375 28.8125 
L 18.109375 0 
L 9.078125 0 
L 9.078125 54.6875 
L 18.109375 54.6875 
L 18.109375 46.1875 
Q 20.953125 51.171875 25.484375 53.578125 
Q 30.03125 56 36.53125 56 
Q 37.453125 56 38.578125 55.875 
Q 39.703125 55.765625 41.0625 55.515625 
z
" id="DejaVuSans-114"/>
    </defs>
    <g transform="translate(182.147812 35.472)scale(0.12 -0.12)">
     <use xlink:href="#DejaVuSans-72"/>
     <use x="75.195312" xlink:href="#DejaVuSans-97"/>
     <use x="136.474609" xlink:href="#DejaVuSans-115"/>
     <use x="188.574219" xlink:href="#DejaVuSans-116"/>
     <use x="227.783203" xlink:href="#DejaVuSans-105"/>
     <use x="255.566406" xlink:href="#DejaVuSans-103"/>
     <use x="319.042969" xlink:href="#DejaVuSans-104"/>
     <use x="382.421875" xlink:href="#DejaVuSans-101"/>
     <use x="443.945312" xlink:href="#DejaVuSans-116"/>
     <use x="483.154297" xlink:href="#DejaVuSans-32"/>
     <use x="514.941406" xlink:href="#DejaVuSans-246"/>
     <use x="576.123047" xlink:href="#DejaVuSans-118"/>
     <use x="635.302734" xlink:href="#DejaVuSans-101"/>
     <use x="696.826172" xlink:href="#DejaVuSans-114"/>
     <use x="737.939453" xlink:href="#DejaVuSans-32"/>
     <use x="769.726562" xlink:href="#DejaVuSans-116"/>
     <use x="808.935547" xlink:href="#DejaVuSans-105"/>
     <use x="836.71875" xlink:href="#DejaVuSans-100"/>
    </g>
   </g>
   <g id="legend_1">
    <g id="patch_7">
     <path d="M 314.43875 78.82825 
L 407.72 78.82825 
Q 409.72 78.82825 409.72 76.82825 
L 409.72 48.472 
Q 409.72 46.472 407.72 46.472 
L 314.43875 46.472 
Q 312.43875 46.472 312.43875 48.472 
L 312.43875 76.82825 
Q 312.43875 78.82825 314.43875 78.82825 
z
" style="fill:#ffffff;opacity:0.8;stroke:#cccccc;stroke-linejoin:miter;"/>
    </g>
    <g id="line2d_23">
     <path d="M 316.43875 54.570437 
L 336.43875 54.570437 
" style="fill:none;stroke:#ff0000;stroke-dasharray:5.55,2.4;stroke-dashoffset:0;stroke-width:1.5;"/>
    </g>
    <g id="line2d_24"/>
    <g id="text_14">
     <!-- Vänster Hjul -->
     <defs>
      <path d="M 28.609375 0 
L 0.78125 72.90625 
L 11.078125 72.90625 
L 34.1875 11.53125 
L 57.328125 72.90625 
L 67.578125 72.90625 
L 39.796875 0 
z
" id="DejaVuSans-86"/>
      <path d="M 34.28125 27.484375 
Q 23.390625 27.484375 19.1875 25 
Q 14.984375 22.515625 14.984375 16.5 
Q 14.984375 11.71875 18.140625 8.90625 
Q 21.296875 6.109375 26.703125 6.109375 
Q 34.1875 6.109375 38.703125 11.40625 
Q 43.21875 16.703125 43.21875 25.484375 
L 43.21875 27.484375 
z
M 52.203125 31.203125 
L 52.203125 0 
L 43.21875 0 
L 43.21875 8.296875 
Q 40.140625 3.328125 35.546875 0.953125 
Q 30.953125 -1.421875 24.3125 -1.421875 
Q 15.921875 -1.421875 10.953125 3.296875 
Q 6 8.015625 6 15.921875 
Q 6 25.140625 12.171875 29.828125 
Q 18.359375 34.515625 30.609375 34.515625 
L 43.21875 34.515625 
L 43.21875 35.40625 
Q 43.21875 41.609375 39.140625 45 
Q 35.0625 48.390625 27.6875 48.390625 
Q 23 48.390625 18.546875 47.265625 
Q 14.109375 46.140625 10.015625 43.890625 
L 10.015625 52.203125 
Q 14.9375 54.109375 19.578125 55.046875 
Q 24.21875 56 28.609375 56 
Q 40.484375 56 46.34375 49.84375 
Q 52.203125 43.703125 52.203125 31.203125 
z
M 33.59375 75.78125 
L 43.5 75.78125 
L 43.5 65.921875 
L 33.59375 65.921875 
z
M 14.5 75.78125 
L 24.421875 75.78125 
L 24.421875 65.921875 
L 14.5 65.921875 
z
" id="DejaVuSans-228"/>
      <path d="M 54.890625 33.015625 
L 54.890625 0 
L 45.90625 0 
L 45.90625 32.71875 
Q 45.90625 40.484375 42.875 44.328125 
Q 39.84375 48.1875 33.796875 48.1875 
Q 26.515625 48.1875 22.3125 43.546875 
Q 18.109375 38.921875 18.109375 30.90625 
L 18.109375 0 
L 9.078125 0 
L 9.078125 54.6875 
L 18.109375 54.6875 
L 18.109375 46.1875 
Q 21.34375 51.125 25.703125 53.5625 
Q 30.078125 56 35.796875 56 
Q 45.21875 56 50.046875 50.171875 
Q 54.890625 44.34375 54.890625 33.015625 
z
" id="DejaVuSans-110"/>
      <path d="M 9.421875 54.6875 
L 18.40625 54.6875 
L 18.40625 -0.984375 
Q 18.40625 -11.421875 14.421875 -16.109375 
Q 10.453125 -20.796875 1.609375 -20.796875 
L -1.8125 -20.796875 
L -1.8125 -13.1875 
L 0.59375 -13.1875 
Q 5.71875 -13.1875 7.5625 -10.8125 
Q 9.421875 -8.453125 9.421875 -0.984375 
z
M 9.421875 75.984375 
L 18.40625 75.984375 
L 18.40625 64.59375 
L 9.421875 64.59375 
z
" id="DejaVuSans-106"/>
      <path d="M 8.5 21.578125 
L 8.5 54.6875 
L 17.484375 54.6875 
L 17.484375 21.921875 
Q 17.484375 14.15625 20.5 10.265625 
Q 23.53125 6.390625 29.59375 6.390625 
Q 36.859375 6.390625 41.078125 11.03125 
Q 45.3125 15.671875 45.3125 23.6875 
L 45.3125 54.6875 
L 54.296875 54.6875 
L 54.296875 0 
L 45.3125 0 
L 45.3125 8.40625 
Q 42.046875 3.421875 37.71875 1 
Q 33.40625 -1.421875 27.6875 -1.421875 
Q 18.265625 -1.421875 13.375 4.4375 
Q 8.5 10.296875 8.5 21.578125 
z
M 31.109375 56 
z
" id="DejaVuSans-117"/>
      <path d="M 9.421875 75.984375 
L 18.40625 75.984375 
L 18.40625 0 
L 9.421875 0 
z
" id="DejaVuSans-108"/>
     </defs>
     <g transform="translate(344.43875 58.070437)scale(0.1 -0.1)">
      <use xlink:href="#DejaVuSans-86"/>
      <use x="68.298828" xlink:href="#DejaVuSans-228"/>
      <use x="129.578125" xlink:href="#DejaVuSans-110"/>
      <use x="192.957031" xlink:href="#DejaVuSans-115"/>
      <use x="245.056641" xlink:href="#DejaVuSans-116"/>
      <use x="284.265625" xlink:href="#DejaVuSans-101"/>
      <use x="345.789062" xlink:href="#DejaVuSans-114"/>
      <use x="386.902344" xlink:href="#DejaVuSans-32"/>
      <use x="418.689453" xlink:href="#DejaVuSans-72"/>
      <use x="493.884766" xlink:href="#DejaVuSans-106"/>
      <use x="521.667969" xlink:href="#DejaVuSans-117"/>
      <use x="585.046875" xlink:href="#DejaVuSans-108"/>
     </g>
    </g>
    <g id="line2d_25">
     <path d="M 316.43875 69.248562 
L 336.43875 69.248562 
" style="fill:none;stroke:#0000ff;stroke-dasharray:5.55,2.4;stroke-dashoffset:0;stroke-width:1.5;"/>
    </g>
    <g id="line2d_26"/>
    <g id="text_15">
     <!-- Höger Hjul -->
     <g transform="translate(344.43875 72.748562)scale(0.1 -0.1)">
      <use xlink:href="#DejaVuSans-72"/>
      <use x="75.195312" xlink:href="#DejaVuSans-246"/>
      <use x="136.376953" xlink:href="#DejaVuSans-103"/>
      <use x="199.853516" xlink:href="#DejaVuSans-101"/>
      <use x="261.376953" xlink:href="#DejaVuSans-114"/>
      <use x="302.490234" xlink:href="#DejaVuSans-32"/>
      <use x="334.277344" xlink:href="#DejaVuSans-72"/>
      <use x="409.472656" xlink:href="#DejaVuSans-106"/>
      <use x="437.255859" xlink:href="#DejaVuSans-117"/>
      <use x="500.634766" xlink:href="#DejaVuSans-108"/>
     </g>
    </g>
   </g>
  </g>
  <g id="axes_2">
   <g id="patch_8">
    <path d="M 57.6 307.584 
L 414.72 307.584 
L 414.72 209.024 
L 57.6 209.024 
z
" style="fill:#ffffff;"/>
   </g>
   <g id="matplotlib.axis_3">
    <g id="xtick_8">
     <g id="line2d_27">
      <path clip-path="url(#pbaeceb8da9)" d="M 73.784549 307.584 
L 73.784549 209.024 
" style="fill:none;stroke:#b0b0b0;stroke-linecap:square;stroke-width:0.8;"/>
     </g>
     <g id="line2d_28">
      <g>
       <use style="stroke:#000000;stroke-width:0.8;" x="73.784549" xlink:href="#me2dcd02f5b" y="307.584"/>
      </g>
     </g>
     <g id="text_16">
      <!-- 0 -->
      <g transform="translate(70.603299 322.182437)scale(0.1 -0.1)">
       <use xlink:href="#DejaVuSans-48"/>
      </g>
     </g>
    </g>
    <g id="xtick_9">
     <g id="line2d_29">
      <path clip-path="url(#pbaeceb8da9)" d="M 127.315506 307.584 
L 127.315506 209.024 
" style="fill:none;stroke:#b0b0b0;stroke-linecap:square;stroke-width:0.8;"/>
     </g>
     <g id="line2d_30">
      <g>
       <use style="stroke:#000000;stroke-width:0.8;" x="127.315506" xlink:href="#me2dcd02f5b" y="307.584"/>
      </g>
     </g>
     <g id="text_17">
      <!-- 10 -->
      <g transform="translate(120.953006 322.182437)scale(0.1 -0.1)">
       <use xlink:href="#DejaVuSans-49"/>
       <use x="63.623047" xlink:href="#DejaVuSans-48"/>
      </g>
     </g>
    </g>
    <g id="xtick_10">
     <g id="line2d_31">
      <path clip-path="url(#pbaeceb8da9)" d="M 180.846463 307.584 
L 180.846463 209.024 
" style="fill:none;stroke:#b0b0b0;stroke-linecap:square;stroke-width:0.8;"/>
     </g>
     <g id="line2d_32">
      <g>
       <use style="stroke:#000000;stroke-width:0.8;" x="180.846463" xlink:href="#me2dcd02f5b" y="307.584"/>
      </g>
     </g>
     <g id="text_18">
      <!-- 20 -->
      <g transform="translate(174.483963 322.182437)scale(0.1 -0.1)">
       <use xlink:href="#DejaVuSans-50"/>
       <use x="63.623047" xlink:href="#DejaVuSans-48"/>
      </g>
     </g>
    </g>
    <g id="xtick_11">
     <g id="line2d_33">
      <path clip-path="url(#pbaeceb8da9)" d="M 234.377419 307.584 
L 234.377419 209.024 
" style="fill:none;stroke:#b0b0b0;stroke-linecap:square;stroke-width:0.8;"/>
     </g>
     <g id="line2d_34">
      <g>
       <use style="stroke:#000000;stroke-width:0.8;" x="234.377419" xlink:href="#me2dcd02f5b" y="307.584"/>
      </g>
     </g>
     <g id="text_19">
      <!-- 30 -->
      <g transform="translate(228.014919 322.182437)scale(0.1 -0.1)">
       <use xlink:href="#DejaVuSans-51"/>
       <use x="63.623047" xlink:href="#DejaVuSans-48"/>
      </g>
     </g>
    </g>
    <g id="xtick_12">
     <g id="line2d_35">
      <path clip-path="url(#pbaeceb8da9)" d="M 287.908376 307.584 
L 287.908376 209.024 
" style="fill:none;stroke:#b0b0b0;stroke-linecap:square;stroke-width:0.8;"/>
     </g>
     <g id="line2d_36">
      <g>
       <use style="stroke:#000000;stroke-width:0.8;" x="287.908376" xlink:href="#me2dcd02f5b" y="307.584"/>
      </g>
     </g>
     <g id="text_20">
      <!-- 40 -->
      <g transform="translate(281.545876 322.182437)scale(0.1 -0.1)">
       <use xlink:href="#DejaVuSans-52"/>
       <use x="63.623047" xlink:href="#DejaVuSans-48"/>
      </g>
     </g>
    </g>
    <g id="xtick_13">
     <g id="line2d_37">
      <path clip-path="url(#pbaeceb8da9)" d="M 341.439332 307.584 
L 341.439332 209.024 
" style="fill:none;stroke:#b0b0b0;stroke-linecap:square;stroke-width:0.8;"/>
     </g>
     <g id="line2d_38">
      <g>
       <use style="stroke:#000000;stroke-width:0.8;" x="341.439332" xlink:href="#me2dcd02f5b" y="307.584"/>
      </g>
     </g>
     <g id="text_21">
      <!-- 50 -->
      <g transform="translate(335.076832 322.182437)scale(0.1 -0.1)">
       <use xlink:href="#DejaVuSans-53"/>
       <use x="63.623047" xlink:href="#DejaVuSans-48"/>
      </g>
     </g>
    </g>
    <g id="xtick_14">
     <g id="line2d_39">
      <path clip-path="url(#pbaeceb8da9)" d="M 394.970289 307.584 
L 394.970289 209.024 
" style="fill:none;stroke:#b0b0b0;stroke-linecap:square;stroke-width:0.8;"/>
     </g>
     <g id="line2d_40">
      <g>
       <use style="stroke:#000000;stroke-width:0.8;" x="394.970289" xlink:href="#me2dcd02f5b" y="307.584"/>
      </g>
     </g>
     <g id="text_22">
      <!-- 60 -->
      <g transform="translate(388.607789 322.182437)scale(0.1 -0.1)">
       <use xlink:href="#DejaVuSans-54"/>
       <use x="63.623047" xlink:href="#DejaVuSans-48"/>
      </g>
     </g>
    </g>
    <g id="text_23">
     <!-- Tid [s] -->
     <g transform="translate(220.449844 335.860562)scale(0.1 -0.1)">
      <use xlink:href="#DejaVuSans-84"/>
      <use x="61.037109" xlink:href="#DejaVuSans-105"/>
      <use x="88.820312" xlink:href="#DejaVuSans-100"/>
      <use x="152.296875" xlink:href="#DejaVuSans-32"/>
      <use x="184.083984" xlink:href="#DejaVuSans-91"/>
      <use x="223.097656" xlink:href="#DejaVuSans-115"/>
      <use x="275.197266" xlink:href="#DejaVuSans-93"/>
     </g>
    </g>
   </g>
   <g id="matplotlib.axis_4">
    <g id="ytick_4">
     <g id="line2d_41">
      <path clip-path="url(#pbaeceb8da9)" d="M 57.6 303.104 
L 414.72 303.104 
" style="fill:none;stroke:#b0b0b0;stroke-linecap:square;stroke-width:0.8;"/>
     </g>
     <g id="line2d_42">
      <g>
       <use style="stroke:#000000;stroke-width:0.8;" x="57.6" xlink:href="#m616bf60090" y="303.104"/>
      </g>
     </g>
     <g id="text_24">
      <!-- 0 -->
      <g transform="translate(44.2375 306.903219)scale(0.1 -0.1)">
       <use xlink:href="#DejaVuSans-48"/>
      </g>
     </g>
    </g>
    <g id="ytick_5">
     <g id="line2d_43">
      <path clip-path="url(#pbaeceb8da9)" d="M 57.6 273.152527 
L 414.72 273.152527 
" style="fill:none;stroke:#b0b0b0;stroke-linecap:square;stroke-width:0.8;"/>
     </g>
     <g id="line2d_44">
      <g>
       <use style="stroke:#000000;stroke-width:0.8;" x="57.6" xlink:href="#m616bf60090" y="273.152527"/>
      </g>
     </g>
     <g id="text_25">
      <!-- 10 -->
      <g transform="translate(37.875 276.951746)scale(0.1 -0.1)">
       <use xlink:href="#DejaVuSans-49"/>
       <use x="63.623047" xlink:href="#DejaVuSans-48"/>
      </g>
     </g>
    </g>
    <g id="ytick_6">
     <g id="line2d_45">
      <path clip-path="url(#pbaeceb8da9)" d="M 57.6 243.201055 
L 414.72 243.201055 
" style="fill:none;stroke:#b0b0b0;stroke-linecap:square;stroke-width:0.8;"/>
     </g>
     <g id="line2d_46">
      <g>
       <use style="stroke:#000000;stroke-width:0.8;" x="57.6" xlink:href="#m616bf60090" y="243.201055"/>
      </g>
     </g>
     <g id="text_26">
      <!-- 20 -->
      <g transform="translate(37.875 247.000274)scale(0.1 -0.1)">
       <use xlink:href="#DejaVuSans-50"/>
       <use x="63.623047" xlink:href="#DejaVuSans-48"/>
      </g>
     </g>
    </g>
    <g id="ytick_7">
     <g id="line2d_47">
      <path clip-path="url(#pbaeceb8da9)" d="M 57.6 213.249582 
L 414.72 213.249582 
" style="fill:none;stroke:#b0b0b0;stroke-linecap:square;stroke-width:0.8;"/>
     </g>
     <g id="line2d_48">
      <g>
       <use style="stroke:#000000;stroke-width:0.8;" x="57.6" xlink:href="#m616bf60090" y="213.249582"/>
      </g>
     </g>
     <g id="text_27">
      <!-- 30 -->
      <g transform="translate(37.875 217.048801)scale(0.1 -0.1)">
       <use xlink:href="#DejaVuSans-51"/>
       <use x="63.623047" xlink:href="#DejaVuSans-48"/>
      </g>
     </g>
    </g>
    <g id="text_28">
     <!-- Distans [m] -->
     <defs>
      <path d="M 19.671875 64.796875 
L 19.671875 8.109375 
L 31.59375 8.109375 
Q 46.6875 8.109375 53.6875 14.9375 
Q 60.6875 21.78125 60.6875 36.53125 
Q 60.6875 51.171875 53.6875 57.984375 
Q 46.6875 64.796875 31.59375 64.796875 
z
M 9.8125 72.90625 
L 30.078125 72.90625 
Q 51.265625 72.90625 61.171875 64.09375 
Q 71.09375 55.28125 71.09375 36.53125 
Q 71.09375 17.671875 61.125 8.828125 
Q 51.171875 0 30.078125 0 
L 9.8125 0 
z
" id="DejaVuSans-68"/>
     </defs>
     <g transform="translate(31.795312 287.306344)rotate(-90)scale(0.1 -0.1)">
      <use xlink:href="#DejaVuSans-68"/>
      <use x="77.001953" xlink:href="#DejaVuSans-105"/>
      <use x="104.785156" xlink:href="#DejaVuSans-115"/>
      <use x="156.884766" xlink:href="#DejaVuSans-116"/>
      <use x="196.09375" xlink:href="#DejaVuSans-97"/>
      <use x="257.373047" xlink:href="#DejaVuSans-110"/>
      <use x="320.751953" xlink:href="#DejaVuSans-115"/>
      <use x="372.851562" xlink:href="#DejaVuSans-32"/>
      <use x="404.638672" xlink:href="#DejaVuSans-91"/>
      <use x="443.652344" xlink:href="#DejaVuSans-109"/>
      <use x="541.064453" xlink:href="#DejaVuSans-93"/>
     </g>
    </g>
   </g>
   <g id="line2d_49">
    <path clip-path="url(#pbaeceb8da9)" d="M 73.832727 303.104 
L 81.460889 303.005223 
L 86.176966 302.739954 
L 90.464795 302.277016 
L 93.462529 301.741522 
L 96.97416 300.881851 
L 100.930097 299.697194 
L 104.891388 298.266502 
L 109.730587 296.234443 
L 114.569785 293.915901 
L 118.081416 291.951175 
L 122.487014 289.215808 
L 126.442951 286.474352 
L 135.537861 280.05697 
L 157.453435 265.796903 
L 162.929651 262.56877 
L 181.194414 252.015548 
L 192.146848 245.303095 
L 206.755446 236.374966 
L 214.062421 231.636626 
L 231.866817 219.469753 
L 235.517629 217.29778 
L 238.713427 215.683889 
L 240.993845 214.753316 
L 242.824604 214.183267 
L 244.65001 213.837297 
L 246.015049 213.796892 
L 390.270271 213.694346 
L 398.487273 213.504 
L 398.487273 213.504 
" style="fill:none;stroke:#ff0000;stroke-dasharray:5.55,2.4;stroke-dashoffset:0;stroke-width:1.5;"/>
   </g>
   <g id="line2d_50">
    <path clip-path="url(#pbaeceb8da9)" d="M 73.832727 303.104 
L 84.030375 303.01623 
L 88.746452 302.618947 
L 92.177786 302.132612 
L 95.651945 301.373405 
L 99.618589 300.273764 
L 103.574527 298.914838 
L 107.969418 297.167984 
L 112.808617 294.96909 
L 116.330954 293.133139 
L 120.286891 290.803621 
L 124.242829 288.222416 
L 128.691252 285.042539 
L 134.172822 281.131329 
L 142.844836 275.532865 
L 158.363461 265.491627 
L 165.215423 261.498378 
L 179.363655 253.380349 
L 206.300432 236.930046 
L 213.147042 232.507493 
L 233.692223 218.616973 
L 236.888021 216.848847 
L 239.628806 215.573151 
L 241.909225 214.751207 
L 244.189643 214.205132 
L 245.560036 214.092803 
L 391.18565 213.985542 
L 398.487273 213.816814 
L 398.487273 213.816814 
" style="fill:none;stroke:#0000ff;stroke-dasharray:5.55,2.4;stroke-dashoffset:0;stroke-width:1.5;"/>
   </g>
   <g id="patch_9">
    <path d="M 57.6 307.584 
L 57.6 209.024 
" style="fill:none;stroke:#000000;stroke-linecap:square;stroke-linejoin:miter;stroke-width:0.8;"/>
   </g>
   <g id="patch_10">
    <path d="M 414.72 307.584 
L 414.72 209.024 
" style="fill:none;stroke:#000000;stroke-linecap:square;stroke-linejoin:miter;stroke-width:0.8;"/>
   </g>
   <g id="patch_11">
    <path d="M 57.6 307.584 
L 414.72 307.584 
" style="fill:none;stroke:#000000;stroke-linecap:square;stroke-linejoin:miter;stroke-width:0.8;"/>
   </g>
   <g id="patch_12">
    <path d="M 57.6 209.024 
L 414.72 209.024 
" style="fill:none;stroke:#000000;stroke-linecap:square;stroke-linejoin:miter;stroke-width:0.8;"/>
   </g>
   <g id="text_29">
    <!-- Distans över tid -->
    <g transform="translate(188.7675 203.024)scale(0.12 -0.12)">
     <use xlink:href="#DejaVuSans-68"/>
     <use x="77.001953" xlink:href="#DejaVuSans-105"/>
     <use x="104.785156" xlink:href="#DejaVuSans-115"/>
     <use x="156.884766" xlink:href="#DejaVuSans-116"/>
     <use x="196.09375" xlink:href="#DejaVuSans-97"/>
     <use x="257.373047" xlink:href="#DejaVuSans-110"/>
     <use x="320.751953" xlink:href="#DejaVuSans-115"/>
     <use x="372.851562" xlink:href="#DejaVuSans-32"/>
     <use x="404.638672" xlink:href="#DejaVuSans-246"/>
     <use x="465.820312" xlink:href="#DejaVuSans-118"/>
     <use x="525" xlink:href="#DejaVuSans-101"/>
     <use x="586.523438" xlink:href="#DejaVuSans-114"/>
     <use x="627.636719" xlink:href="#DejaVuSans-32"/>
     <use x="659.423828" xlink:href="#DejaVuSans-116"/>
     <use x="698.632812" xlink:href="#DejaVuSans-105"/>
     <use x="726.416016" xlink:href="#DejaVuSans-100"/>
    </g>
   </g>
   <g id="legend_2">
    <g id="patch_13">
     <path d="M 314.43875 302.584 
L 407.72 302.584 
Q 409.72 302.584 409.72 300.584 
L 409.72 272.22775 
Q 409.72 270.22775 407.72 270.22775 
L 314.43875 270.22775 
Q 312.43875 270.22775 312.43875 272.22775 
L 312.43875 300.584 
Q 312.43875 302.584 314.43875 302.584 
z
" style="fill:#ffffff;opacity:0.8;stroke:#cccccc;stroke-linejoin:miter;"/>
    </g>
    <g id="line2d_51">
     <path d="M 316.43875 278.326187 
L 336.43875 278.326187 
" style="fill:none;stroke:#ff0000;stroke-dasharray:5.55,2.4;stroke-dashoffset:0;stroke-width:1.5;"/>
    </g>
    <g id="line2d_52"/>
    <g id="text_30">
     <!-- Vänster Hjul -->
     <g transform="translate(344.43875 281.826187)scale(0.1 -0.1)">
      <use xlink:href="#DejaVuSans-86"/>
      <use x="68.298828" xlink:href="#DejaVuSans-228"/>
      <use x="129.578125" xlink:href="#DejaVuSans-110"/>
      <use x="192.957031" xlink:href="#DejaVuSans-115"/>
      <use x="245.056641" xlink:href="#DejaVuSans-116"/>
      <use x="284.265625" xlink:href="#DejaVuSans-101"/>
      <use x="345.789062" xlink:href="#DejaVuSans-114"/>
      <use x="386.902344" xlink:href="#DejaVuSans-32"/>
      <use x="418.689453" xlink:href="#DejaVuSans-72"/>
      <use x="493.884766" xlink:href="#DejaVuSans-106"/>
      <use x="521.667969" xlink:href="#DejaVuSans-117"/>
      <use x="585.046875" xlink:href="#DejaVuSans-108"/>
     </g>
    </g>
    <g id="line2d_53">
     <path d="M 316.43875 293.004312 
L 336.43875 293.004312 
" style="fill:none;stroke:#0000ff;stroke-dasharray:5.55,2.4;stroke-dashoffset:0;stroke-width:1.5;"/>
    </g>
    <g id="line2d_54"/>
    <g id="text_31">
     <!-- Höger Hjul -->
     <g transform="translate(344.43875 296.504312)scale(0.1 -0.1)">
      <use xlink:href="#DejaVuSans-72"/>
      <use x="75.195312" xlink:href="#DejaVuSans-246"/>
      <use x="136.376953" xlink:href="#DejaVuSans-103"/>
      <use x="199.853516" xlink:href="#DejaVuSans-101"/>
      <use x="261.376953" xlink:href="#DejaVuSans-114"/>
      <use x="302.490234" xlink:href="#DejaVuSans-32"/>
      <use x="334.277344" xlink:href="#DejaVuSans-72"/>
      <use x="409.472656" xlink:href="#DejaVuSans-106"/>
      <use x="437.255859" xlink:href="#DejaVuSans-117"/>
      <use x="500.634766" xlink:href="#DejaVuSans-108"/>
     </g>
    </g>
   </g>
  </g>
  <g id="text_32">
   <!-- Test nummer 3 -->
   <defs>
    <path d="M 0.484375 72.90625 
L 67.671875 72.90625 
L 67.671875 58.6875 
L 43.5 58.6875 
L 43.5 0 
L 24.703125 0 
L 24.703125 58.6875 
L 0.484375 58.6875 
z
" id="DejaVuSans-Bold-84"/>
    <path d="M 62.984375 27.484375 
L 62.984375 22.515625 
L 22.125 22.515625 
Q 22.75 16.359375 26.5625 13.28125 
Q 30.375 10.203125 37.203125 10.203125 
Q 42.71875 10.203125 48.5 11.84375 
Q 54.296875 13.484375 60.40625 16.796875 
L 60.40625 3.328125 
Q 54.203125 0.984375 48 -0.21875 
Q 41.796875 -1.421875 35.59375 -1.421875 
Q 20.75 -1.421875 12.515625 6.125 
Q 4.296875 13.671875 4.296875 27.296875 
Q 4.296875 40.671875 12.375 48.328125 
Q 20.453125 56 34.625 56 
Q 47.515625 56 55.25 48.234375 
Q 62.984375 40.484375 62.984375 27.484375 
z
M 45.015625 33.296875 
Q 45.015625 38.28125 42.109375 41.328125 
Q 39.203125 44.390625 34.515625 44.390625 
Q 29.4375 44.390625 26.265625 41.53125 
Q 23.09375 38.671875 22.3125 33.296875 
z
" id="DejaVuSans-Bold-101"/>
    <path d="M 51.125 52.984375 
L 51.125 39.703125 
Q 45.515625 42.046875 40.28125 43.21875 
Q 35.0625 44.390625 30.421875 44.390625 
Q 25.4375 44.390625 23.015625 43.140625 
Q 20.609375 41.890625 20.609375 39.3125 
Q 20.609375 37.203125 22.4375 36.078125 
Q 24.265625 34.96875 29 34.421875 
L 32.078125 33.984375 
Q 45.515625 32.28125 50.140625 28.375 
Q 54.78125 24.46875 54.78125 16.109375 
Q 54.78125 7.375 48.328125 2.96875 
Q 41.890625 -1.421875 29.109375 -1.421875 
Q 23.6875 -1.421875 17.890625 -0.5625 
Q 12.109375 0.296875 6 2 
L 6 15.28125 
Q 11.234375 12.75 16.71875 11.46875 
Q 22.21875 10.203125 27.875 10.203125 
Q 33.015625 10.203125 35.59375 11.609375 
Q 38.1875 13.03125 38.1875 15.828125 
Q 38.1875 18.171875 36.40625 19.3125 
Q 34.625 20.453125 29.296875 21.09375 
L 26.21875 21.484375 
Q 14.546875 22.953125 9.859375 26.90625 
Q 5.171875 30.859375 5.171875 38.921875 
Q 5.171875 47.609375 11.125 51.796875 
Q 17.09375 56 29.390625 56 
Q 34.234375 56 39.546875 55.265625 
Q 44.875 54.546875 51.125 52.984375 
z
" id="DejaVuSans-Bold-115"/>
    <path d="M 27.484375 70.21875 
L 27.484375 54.6875 
L 45.515625 54.6875 
L 45.515625 42.1875 
L 27.484375 42.1875 
L 27.484375 19 
Q 27.484375 15.1875 29 13.84375 
Q 30.515625 12.5 35.015625 12.5 
L 44 12.5 
L 44 0 
L 29 0 
Q 18.65625 0 14.328125 4.3125 
Q 10.015625 8.640625 10.015625 19 
L 10.015625 42.1875 
L 1.3125 42.1875 
L 1.3125 54.6875 
L 10.015625 54.6875 
L 10.015625 70.21875 
z
" id="DejaVuSans-Bold-116"/>
    <path id="DejaVuSans-Bold-32"/>
    <path d="M 63.375 33.296875 
L 63.375 0 
L 45.796875 0 
L 45.796875 5.421875 
L 45.796875 25.484375 
Q 45.796875 32.5625 45.484375 35.25 
Q 45.171875 37.9375 44.390625 39.203125 
Q 43.359375 40.921875 41.59375 41.875 
Q 39.84375 42.828125 37.59375 42.828125 
Q 32.125 42.828125 29 38.59375 
Q 25.875 34.375 25.875 26.90625 
L 25.875 0 
L 8.40625 0 
L 8.40625 54.6875 
L 25.875 54.6875 
L 25.875 46.6875 
Q 29.828125 51.46875 34.265625 53.734375 
Q 38.71875 56 44.09375 56 
Q 53.5625 56 58.46875 50.1875 
Q 63.375 44.390625 63.375 33.296875 
z
" id="DejaVuSans-Bold-110"/>
    <path d="M 7.8125 21.296875 
L 7.8125 54.6875 
L 25.390625 54.6875 
L 25.390625 49.21875 
Q 25.390625 44.78125 25.34375 38.0625 
Q 25.296875 31.34375 25.296875 29.109375 
Q 25.296875 22.515625 25.640625 19.609375 
Q 25.984375 16.703125 26.8125 15.375 
Q 27.875 13.671875 29.609375 12.734375 
Q 31.34375 11.8125 33.59375 11.8125 
Q 39.0625 11.8125 42.1875 16.015625 
Q 45.3125 20.21875 45.3125 27.6875 
L 45.3125 54.6875 
L 62.796875 54.6875 
L 62.796875 0 
L 45.3125 0 
L 45.3125 7.90625 
Q 41.359375 3.125 36.9375 0.84375 
Q 32.515625 -1.421875 27.203125 -1.421875 
Q 17.71875 -1.421875 12.765625 4.390625 
Q 7.8125 10.203125 7.8125 21.296875 
z
" id="DejaVuSans-Bold-117"/>
    <path d="M 59.078125 45.609375 
Q 62.40625 50.6875 66.96875 53.34375 
Q 71.53125 56 77 56 
Q 86.421875 56 91.359375 50.1875 
Q 96.296875 44.390625 96.296875 33.296875 
L 96.296875 0 
L 78.71875 0 
L 78.71875 28.515625 
Q 78.765625 29.15625 78.78125 29.828125 
Q 78.8125 30.515625 78.8125 31.78125 
Q 78.8125 37.59375 77.09375 40.203125 
Q 75.390625 42.828125 71.578125 42.828125 
Q 66.609375 42.828125 63.890625 38.71875 
Q 61.1875 34.625 61.078125 26.859375 
L 61.078125 0 
L 43.5 0 
L 43.5 28.515625 
Q 43.5 37.59375 41.9375 40.203125 
Q 40.375 42.828125 36.375 42.828125 
Q 31.34375 42.828125 28.609375 38.703125 
Q 25.875 34.578125 25.875 26.90625 
L 25.875 0 
L 8.296875 0 
L 8.296875 54.6875 
L 25.875 54.6875 
L 25.875 46.6875 
Q 29.109375 51.3125 33.28125 53.65625 
Q 37.453125 56 42.484375 56 
Q 48.140625 56 52.484375 53.265625 
Q 56.84375 50.53125 59.078125 45.609375 
z
" id="DejaVuSans-Bold-109"/>
    <path d="M 49.03125 39.796875 
Q 46.734375 40.875 44.453125 41.375 
Q 42.1875 41.890625 39.890625 41.890625 
Q 33.15625 41.890625 29.515625 37.5625 
Q 25.875 33.25 25.875 25.203125 
L 25.875 0 
L 8.40625 0 
L 8.40625 54.6875 
L 25.875 54.6875 
L 25.875 45.703125 
Q 29.25 51.078125 33.609375 53.53125 
Q 37.984375 56 44.09375 56 
Q 44.96875 56 45.984375 55.921875 
Q 47.015625 55.859375 48.96875 55.609375 
z
" id="DejaVuSans-Bold-114"/>
    <path d="M 46.578125 39.3125 
Q 53.953125 37.40625 57.78125 32.6875 
Q 61.625 27.984375 61.625 20.703125 
Q 61.625 9.859375 53.3125 4.21875 
Q 45.015625 -1.421875 29.109375 -1.421875 
Q 23.484375 -1.421875 17.84375 -0.515625 
Q 12.203125 0.390625 6.6875 2.203125 
L 6.6875 16.703125 
Q 11.96875 14.0625 17.15625 12.71875 
Q 22.359375 11.375 27.390625 11.375 
Q 34.859375 11.375 38.84375 13.953125 
Q 42.828125 16.546875 42.828125 21.390625 
Q 42.828125 26.375 38.75 28.9375 
Q 34.671875 31.5 26.703125 31.5 
L 19.1875 31.5 
L 19.1875 43.609375 
L 27.09375 43.609375 
Q 34.1875 43.609375 37.640625 45.828125 
Q 41.109375 48.046875 41.109375 52.59375 
Q 41.109375 56.78125 37.734375 59.078125 
Q 34.375 61.375 28.21875 61.375 
Q 23.6875 61.375 19.046875 60.34375 
Q 14.40625 59.328125 9.8125 57.328125 
L 9.8125 71.09375 
Q 15.375 72.65625 20.84375 73.4375 
Q 26.3125 74.21875 31.59375 74.21875 
Q 45.796875 74.21875 52.84375 69.546875 
Q 59.90625 64.890625 59.90625 55.515625 
Q 59.90625 49.125 56.53125 45.046875 
Q 53.171875 40.96875 46.578125 39.3125 
z
" id="DejaVuSans-Bold-51"/>
   </defs>
   <g transform="translate(179.383125 16.030125)scale(0.12 -0.12)">
    <use xlink:href="#DejaVuSans-Bold-84"/>
    <use x="68.009766" xlink:href="#DejaVuSans-Bold-101"/>
    <use x="135.832031" xlink:href="#DejaVuSans-Bold-115"/>
    <use x="195.353516" xlink:href="#DejaVuSans-Bold-116"/>
    <use x="243.15625" xlink:href="#DejaVuSans-Bold-32"/>
    <use x="277.970703" xlink:href="#DejaVuSans-Bold-110"/>
    <use x="349.162109" xlink:href="#DejaVuSans-Bold-117"/>
    <use x="420.353516" xlink:href="#DejaVuSans-Bold-109"/>
    <use x="524.552734" xlink:href="#DejaVuSans-Bold-109"/>
    <use x="628.751953" xlink:href="#DejaVuSans-Bold-101"/>
    <use x="696.574219" xlink:href="#DejaVuSans-Bold-114"/>
    <use x="745.890625" xlink:href="#DejaVuSans-Bold-32"/>
    <use x="780.705078" xlink:href="#DejaVuSans-Bold-51"/>
   </g>
  </g>
 </g>
 <defs>
  <clipPath id="p82a31718b5">
   <rect height="98.56" width="357.12" x="57.6" y="41.472"/>
  </clipPath>
  <clipPath id="pbaeceb8da9">
   <rect height="98.56" width="357.12" x="57.6" y="209.024"/>
  </clipPath>
 </defs>
</svg>
