<?xml version="1.0" encoding="utf-8" standalone="no"?>
<!DOCTYPE svg PUBLIC "-//W3C//DTD SVG 1.1//EN"
  "http://www.w3.org/Graphics/SVG/1.1/DTD/svg11.dtd">
<!-- Created with matplotlib (https://matplotlib.org/) -->
<svg height="345.6pt" version="1.1" viewBox="0 0 460.8 345.6" width="460.8pt" xmlns="http://www.w3.org/2000/svg" xmlns:xlink="http://www.w3.org/1999/xlink">
 <defs>
  <style type="text/css">
*{stroke-linecap:butt;stroke-linejoin:round;}
  </style>
 </defs>
 <g id="figure_1">
  <g id="patch_1">
   <path d="M 0 345.6 
L 460.8 345.6 
L 460.8 0 
L 0 0 
z
" style="fill:#ffffff;"/>
  </g>
  <g id="axes_1">
   <g id="patch_2">
    <path d="M 57.6 140.032 
L 414.72 140.032 
L 414.72 41.472 
L 57.6 41.472 
z
" style="fill:#ffffff;"/>
   </g>
   <g id="matplotlib.axis_1">
    <g id="xtick_1">
     <g id="line2d_1">
      <path clip-path="url(#pd565b15eb4)" d="M 73.801702 140.032 
L 73.801702 41.472 
" style="fill:none;stroke:#b0b0b0;stroke-linecap:square;stroke-width:0.8;"/>
     </g>
     <g id="line2d_2">
      <defs>
       <path d="M 0 0 
L 0 3.5 
" id="mbb71cde6fb" style="stroke:#000000;stroke-width:0.8;"/>
      </defs>
      <g>
       <use style="stroke:#000000;stroke-width:0.8;" x="73.801702" xlink:href="#mbb71cde6fb" y="140.032"/>
      </g>
     </g>
     <g id="text_1">
      <!-- 0 -->
      <defs>
       <path d="M 31.78125 66.40625 
Q 24.171875 66.40625 20.328125 58.90625 
Q 16.5 51.421875 16.5 36.375 
Q 16.5 21.390625 20.328125 13.890625 
Q 24.171875 6.390625 31.78125 6.390625 
Q 39.453125 6.390625 43.28125 13.890625 
Q 47.125 21.390625 47.125 36.375 
Q 47.125 51.421875 43.28125 58.90625 
Q 39.453125 66.40625 31.78125 66.40625 
z
M 31.78125 74.21875 
Q 44.046875 74.21875 50.515625 64.515625 
Q 56.984375 54.828125 56.984375 36.375 
Q 56.984375 17.96875 50.515625 8.265625 
Q 44.046875 -1.421875 31.78125 -1.421875 
Q 19.53125 -1.421875 13.0625 8.265625 
Q 6.59375 17.96875 6.59375 36.375 
Q 6.59375 54.828125 13.0625 64.515625 
Q 19.53125 74.21875 31.78125 74.21875 
z
" id="DejaVuSans-48"/>
      </defs>
      <g transform="translate(70.620452 154.630437)scale(0.1 -0.1)">
       <use xlink:href="#DejaVuSans-48"/>
      </g>
     </g>
    </g>
    <g id="xtick_2">
     <g id="line2d_3">
      <path clip-path="url(#pd565b15eb4)" d="M 142.746582 140.032 
L 142.746582 41.472 
" style="fill:none;stroke:#b0b0b0;stroke-linecap:square;stroke-width:0.8;"/>
     </g>
     <g id="line2d_4">
      <g>
       <use style="stroke:#000000;stroke-width:0.8;" x="142.746582" xlink:href="#mbb71cde6fb" y="140.032"/>
      </g>
     </g>
     <g id="text_2">
      <!-- 20 -->
      <defs>
       <path d="M 19.1875 8.296875 
L 53.609375 8.296875 
L 53.609375 0 
L 7.328125 0 
L 7.328125 8.296875 
Q 12.9375 14.109375 22.625 23.890625 
Q 32.328125 33.6875 34.8125 36.53125 
Q 39.546875 41.84375 41.421875 45.53125 
Q 43.3125 49.21875 43.3125 52.78125 
Q 43.3125 58.59375 39.234375 62.25 
Q 35.15625 65.921875 28.609375 65.921875 
Q 23.96875 65.921875 18.8125 64.3125 
Q 13.671875 62.703125 7.8125 59.421875 
L 7.8125 69.390625 
Q 13.765625 71.78125 18.9375 73 
Q 24.125 74.21875 28.421875 74.21875 
Q 39.75 74.21875 46.484375 68.546875 
Q 53.21875 62.890625 53.21875 53.421875 
Q 53.21875 48.921875 51.53125 44.890625 
Q 49.859375 40.875 45.40625 35.40625 
Q 44.1875 33.984375 37.640625 27.21875 
Q 31.109375 20.453125 19.1875 8.296875 
z
" id="DejaVuSans-50"/>
      </defs>
      <g transform="translate(136.384082 154.630437)scale(0.1 -0.1)">
       <use xlink:href="#DejaVuSans-50"/>
       <use x="63.623047" xlink:href="#DejaVuSans-48"/>
      </g>
     </g>
    </g>
    <g id="xtick_3">
     <g id="line2d_5">
      <path clip-path="url(#pd565b15eb4)" d="M 211.691462 140.032 
L 211.691462 41.472 
" style="fill:none;stroke:#b0b0b0;stroke-linecap:square;stroke-width:0.8;"/>
     </g>
     <g id="line2d_6">
      <g>
       <use style="stroke:#000000;stroke-width:0.8;" x="211.691462" xlink:href="#mbb71cde6fb" y="140.032"/>
      </g>
     </g>
     <g id="text_3">
      <!-- 40 -->
      <defs>
       <path d="M 37.796875 64.3125 
L 12.890625 25.390625 
L 37.796875 25.390625 
z
M 35.203125 72.90625 
L 47.609375 72.90625 
L 47.609375 25.390625 
L 58.015625 25.390625 
L 58.015625 17.1875 
L 47.609375 17.1875 
L 47.609375 0 
L 37.796875 0 
L 37.796875 17.1875 
L 4.890625 17.1875 
L 4.890625 26.703125 
z
" id="DejaVuSans-52"/>
      </defs>
      <g transform="translate(205.328962 154.630437)scale(0.1 -0.1)">
       <use xlink:href="#DejaVuSans-52"/>
       <use x="63.623047" xlink:href="#DejaVuSans-48"/>
      </g>
     </g>
    </g>
    <g id="xtick_4">
     <g id="line2d_7">
      <path clip-path="url(#pd565b15eb4)" d="M 280.636342 140.032 
L 280.636342 41.472 
" style="fill:none;stroke:#b0b0b0;stroke-linecap:square;stroke-width:0.8;"/>
     </g>
     <g id="line2d_8">
      <g>
       <use style="stroke:#000000;stroke-width:0.8;" x="280.636342" xlink:href="#mbb71cde6fb" y="140.032"/>
      </g>
     </g>
     <g id="text_4">
      <!-- 60 -->
      <defs>
       <path d="M 33.015625 40.375 
Q 26.375 40.375 22.484375 35.828125 
Q 18.609375 31.296875 18.609375 23.390625 
Q 18.609375 15.53125 22.484375 10.953125 
Q 26.375 6.390625 33.015625 6.390625 
Q 39.65625 6.390625 43.53125 10.953125 
Q 47.40625 15.53125 47.40625 23.390625 
Q 47.40625 31.296875 43.53125 35.828125 
Q 39.65625 40.375 33.015625 40.375 
z
M 52.59375 71.296875 
L 52.59375 62.3125 
Q 48.875 64.0625 45.09375 64.984375 
Q 41.3125 65.921875 37.59375 65.921875 
Q 27.828125 65.921875 22.671875 59.328125 
Q 17.53125 52.734375 16.796875 39.40625 
Q 19.671875 43.65625 24.015625 45.921875 
Q 28.375 48.1875 33.59375 48.1875 
Q 44.578125 48.1875 50.953125 41.515625 
Q 57.328125 34.859375 57.328125 23.390625 
Q 57.328125 12.15625 50.6875 5.359375 
Q 44.046875 -1.421875 33.015625 -1.421875 
Q 20.359375 -1.421875 13.671875 8.265625 
Q 6.984375 17.96875 6.984375 36.375 
Q 6.984375 53.65625 15.1875 63.9375 
Q 23.390625 74.21875 37.203125 74.21875 
Q 40.921875 74.21875 44.703125 73.484375 
Q 48.484375 72.75 52.59375 71.296875 
z
" id="DejaVuSans-54"/>
      </defs>
      <g transform="translate(274.273842 154.630437)scale(0.1 -0.1)">
       <use xlink:href="#DejaVuSans-54"/>
       <use x="63.623047" xlink:href="#DejaVuSans-48"/>
      </g>
     </g>
    </g>
    <g id="xtick_5">
     <g id="line2d_9">
      <path clip-path="url(#pd565b15eb4)" d="M 349.581222 140.032 
L 349.581222 41.472 
" style="fill:none;stroke:#b0b0b0;stroke-linecap:square;stroke-width:0.8;"/>
     </g>
     <g id="line2d_10">
      <g>
       <use style="stroke:#000000;stroke-width:0.8;" x="349.581222" xlink:href="#mbb71cde6fb" y="140.032"/>
      </g>
     </g>
     <g id="text_5">
      <!-- 80 -->
      <defs>
       <path d="M 31.78125 34.625 
Q 24.75 34.625 20.71875 30.859375 
Q 16.703125 27.09375 16.703125 20.515625 
Q 16.703125 13.921875 20.71875 10.15625 
Q 24.75 6.390625 31.78125 6.390625 
Q 38.8125 6.390625 42.859375 10.171875 
Q 46.921875 13.96875 46.921875 20.515625 
Q 46.921875 27.09375 42.890625 30.859375 
Q 38.875 34.625 31.78125 34.625 
z
M 21.921875 38.8125 
Q 15.578125 40.375 12.03125 44.71875 
Q 8.5 49.078125 8.5 55.328125 
Q 8.5 64.0625 14.71875 69.140625 
Q 20.953125 74.21875 31.78125 74.21875 
Q 42.671875 74.21875 48.875 69.140625 
Q 55.078125 64.0625 55.078125 55.328125 
Q 55.078125 49.078125 51.53125 44.71875 
Q 48 40.375 41.703125 38.8125 
Q 48.828125 37.15625 52.796875 32.3125 
Q 56.78125 27.484375 56.78125 20.515625 
Q 56.78125 9.90625 50.3125 4.234375 
Q 43.84375 -1.421875 31.78125 -1.421875 
Q 19.734375 -1.421875 13.25 4.234375 
Q 6.78125 9.90625 6.78125 20.515625 
Q 6.78125 27.484375 10.78125 32.3125 
Q 14.796875 37.15625 21.921875 38.8125 
z
M 18.3125 54.390625 
Q 18.3125 48.734375 21.84375 45.5625 
Q 25.390625 42.390625 31.78125 42.390625 
Q 38.140625 42.390625 41.71875 45.5625 
Q 45.3125 48.734375 45.3125 54.390625 
Q 45.3125 60.0625 41.71875 63.234375 
Q 38.140625 66.40625 31.78125 66.40625 
Q 25.390625 66.40625 21.84375 63.234375 
Q 18.3125 60.0625 18.3125 54.390625 
z
" id="DejaVuSans-56"/>
      </defs>
      <g transform="translate(343.218722 154.630437)scale(0.1 -0.1)">
       <use xlink:href="#DejaVuSans-56"/>
       <use x="63.623047" xlink:href="#DejaVuSans-48"/>
      </g>
     </g>
    </g>
    <g id="text_6">
     <!-- Tid [s] -->
     <defs>
      <path d="M -0.296875 72.90625 
L 61.375 72.90625 
L 61.375 64.59375 
L 35.5 64.59375 
L 35.5 0 
L 25.59375 0 
L 25.59375 64.59375 
L -0.296875 64.59375 
z
" id="DejaVuSans-84"/>
      <path d="M 9.421875 54.6875 
L 18.40625 54.6875 
L 18.40625 0 
L 9.421875 0 
z
M 9.421875 75.984375 
L 18.40625 75.984375 
L 18.40625 64.59375 
L 9.421875 64.59375 
z
" id="DejaVuSans-105"/>
      <path d="M 45.40625 46.390625 
L 45.40625 75.984375 
L 54.390625 75.984375 
L 54.390625 0 
L 45.40625 0 
L 45.40625 8.203125 
Q 42.578125 3.328125 38.25 0.953125 
Q 33.9375 -1.421875 27.875 -1.421875 
Q 17.96875 -1.421875 11.734375 6.484375 
Q 5.515625 14.40625 5.515625 27.296875 
Q 5.515625 40.1875 11.734375 48.09375 
Q 17.96875 56 27.875 56 
Q 33.9375 56 38.25 53.625 
Q 42.578125 51.265625 45.40625 46.390625 
z
M 14.796875 27.296875 
Q 14.796875 17.390625 18.875 11.75 
Q 22.953125 6.109375 30.078125 6.109375 
Q 37.203125 6.109375 41.296875 11.75 
Q 45.40625 17.390625 45.40625 27.296875 
Q 45.40625 37.203125 41.296875 42.84375 
Q 37.203125 48.484375 30.078125 48.484375 
Q 22.953125 48.484375 18.875 42.84375 
Q 14.796875 37.203125 14.796875 27.296875 
z
" id="DejaVuSans-100"/>
      <path id="DejaVuSans-32"/>
      <path d="M 8.59375 75.984375 
L 29.296875 75.984375 
L 29.296875 69 
L 17.578125 69 
L 17.578125 -6.203125 
L 29.296875 -6.203125 
L 29.296875 -13.1875 
L 8.59375 -13.1875 
z
" id="DejaVuSans-91"/>
      <path d="M 44.28125 53.078125 
L 44.28125 44.578125 
Q 40.484375 46.53125 36.375 47.5 
Q 32.28125 48.484375 27.875 48.484375 
Q 21.1875 48.484375 17.84375 46.4375 
Q 14.5 44.390625 14.5 40.28125 
Q 14.5 37.15625 16.890625 35.375 
Q 19.28125 33.59375 26.515625 31.984375 
L 29.59375 31.296875 
Q 39.15625 29.25 43.1875 25.515625 
Q 47.21875 21.78125 47.21875 15.09375 
Q 47.21875 7.46875 41.1875 3.015625 
Q 35.15625 -1.421875 24.609375 -1.421875 
Q 20.21875 -1.421875 15.453125 -0.5625 
Q 10.6875 0.296875 5.421875 2 
L 5.421875 11.28125 
Q 10.40625 8.6875 15.234375 7.390625 
Q 20.0625 6.109375 24.8125 6.109375 
Q 31.15625 6.109375 34.5625 8.28125 
Q 37.984375 10.453125 37.984375 14.40625 
Q 37.984375 18.0625 35.515625 20.015625 
Q 33.0625 21.96875 24.703125 23.78125 
L 21.578125 24.515625 
Q 13.234375 26.265625 9.515625 29.90625 
Q 5.8125 33.546875 5.8125 39.890625 
Q 5.8125 47.609375 11.28125 51.796875 
Q 16.75 56 26.8125 56 
Q 31.78125 56 36.171875 55.265625 
Q 40.578125 54.546875 44.28125 53.078125 
z
" id="DejaVuSans-115"/>
      <path d="M 30.421875 75.984375 
L 30.421875 -13.1875 
L 9.71875 -13.1875 
L 9.71875 -6.203125 
L 21.390625 -6.203125 
L 21.390625 69 
L 9.71875 69 
L 9.71875 75.984375 
z
" id="DejaVuSans-93"/>
     </defs>
     <g transform="translate(220.449844 168.308562)scale(0.1 -0.1)">
      <use xlink:href="#DejaVuSans-84"/>
      <use x="61.037109" xlink:href="#DejaVuSans-105"/>
      <use x="88.820312" xlink:href="#DejaVuSans-100"/>
      <use x="152.296875" xlink:href="#DejaVuSans-32"/>
      <use x="184.083984" xlink:href="#DejaVuSans-91"/>
      <use x="223.097656" xlink:href="#DejaVuSans-115"/>
      <use x="275.197266" xlink:href="#DejaVuSans-93"/>
     </g>
    </g>
   </g>
   <g id="matplotlib.axis_2">
    <g id="ytick_1">
     <g id="line2d_11">
      <path clip-path="url(#pd565b15eb4)" d="M 57.6 135.552 
L 414.72 135.552 
" style="fill:none;stroke:#b0b0b0;stroke-linecap:square;stroke-width:0.8;"/>
     </g>
     <g id="line2d_12">
      <defs>
       <path d="M 0 0 
L -3.5 0 
" id="m49a99e2f1b" style="stroke:#000000;stroke-width:0.8;"/>
      </defs>
      <g>
       <use style="stroke:#000000;stroke-width:0.8;" x="57.6" xlink:href="#m49a99e2f1b" y="135.552"/>
      </g>
     </g>
     <g id="text_7">
      <!-- 0 -->
      <g transform="translate(44.2375 139.351219)scale(0.1 -0.1)">
       <use xlink:href="#DejaVuSans-48"/>
      </g>
     </g>
    </g>
    <g id="ytick_2">
     <g id="line2d_13">
      <path clip-path="url(#pd565b15eb4)" d="M 57.6 102.468923 
L 414.72 102.468923 
" style="fill:none;stroke:#b0b0b0;stroke-linecap:square;stroke-width:0.8;"/>
     </g>
     <g id="line2d_14">
      <g>
       <use style="stroke:#000000;stroke-width:0.8;" x="57.6" xlink:href="#m49a99e2f1b" y="102.468923"/>
      </g>
     </g>
     <g id="text_8">
      <!-- 1 -->
      <defs>
       <path d="M 12.40625 8.296875 
L 28.515625 8.296875 
L 28.515625 63.921875 
L 10.984375 60.40625 
L 10.984375 69.390625 
L 28.421875 72.90625 
L 38.28125 72.90625 
L 38.28125 8.296875 
L 54.390625 8.296875 
L 54.390625 0 
L 12.40625 0 
z
" id="DejaVuSans-49"/>
      </defs>
      <g transform="translate(44.2375 106.268142)scale(0.1 -0.1)">
       <use xlink:href="#DejaVuSans-49"/>
      </g>
     </g>
    </g>
    <g id="ytick_3">
     <g id="line2d_15">
      <path clip-path="url(#pd565b15eb4)" d="M 57.6 69.385846 
L 414.72 69.385846 
" style="fill:none;stroke:#b0b0b0;stroke-linecap:square;stroke-width:0.8;"/>
     </g>
     <g id="line2d_16">
      <g>
       <use style="stroke:#000000;stroke-width:0.8;" x="57.6" xlink:href="#m49a99e2f1b" y="69.385846"/>
      </g>
     </g>
     <g id="text_9">
      <!-- 2 -->
      <g transform="translate(44.2375 73.185065)scale(0.1 -0.1)">
       <use xlink:href="#DejaVuSans-50"/>
      </g>
     </g>
    </g>
    <g id="text_10">
     <!-- Hastighet [m/s] -->
     <defs>
      <path d="M 9.8125 72.90625 
L 19.671875 72.90625 
L 19.671875 43.015625 
L 55.515625 43.015625 
L 55.515625 72.90625 
L 65.375 72.90625 
L 65.375 0 
L 55.515625 0 
L 55.515625 34.71875 
L 19.671875 34.71875 
L 19.671875 0 
L 9.8125 0 
z
" id="DejaVuSans-72"/>
      <path d="M 34.28125 27.484375 
Q 23.390625 27.484375 19.1875 25 
Q 14.984375 22.515625 14.984375 16.5 
Q 14.984375 11.71875 18.140625 8.90625 
Q 21.296875 6.109375 26.703125 6.109375 
Q 34.1875 6.109375 38.703125 11.40625 
Q 43.21875 16.703125 43.21875 25.484375 
L 43.21875 27.484375 
z
M 52.203125 31.203125 
L 52.203125 0 
L 43.21875 0 
L 43.21875 8.296875 
Q 40.140625 3.328125 35.546875 0.953125 
Q 30.953125 -1.421875 24.3125 -1.421875 
Q 15.921875 -1.421875 10.953125 3.296875 
Q 6 8.015625 6 15.921875 
Q 6 25.140625 12.171875 29.828125 
Q 18.359375 34.515625 30.609375 34.515625 
L 43.21875 34.515625 
L 43.21875 35.40625 
Q 43.21875 41.609375 39.140625 45 
Q 35.0625 48.390625 27.6875 48.390625 
Q 23 48.390625 18.546875 47.265625 
Q 14.109375 46.140625 10.015625 43.890625 
L 10.015625 52.203125 
Q 14.9375 54.109375 19.578125 55.046875 
Q 24.21875 56 28.609375 56 
Q 40.484375 56 46.34375 49.84375 
Q 52.203125 43.703125 52.203125 31.203125 
z
" id="DejaVuSans-97"/>
      <path d="M 18.3125 70.21875 
L 18.3125 54.6875 
L 36.8125 54.6875 
L 36.8125 47.703125 
L 18.3125 47.703125 
L 18.3125 18.015625 
Q 18.3125 11.328125 20.140625 9.421875 
Q 21.96875 7.515625 27.59375 7.515625 
L 36.8125 7.515625 
L 36.8125 0 
L 27.59375 0 
Q 17.1875 0 13.234375 3.875 
Q 9.28125 7.765625 9.28125 18.015625 
L 9.28125 47.703125 
L 2.6875 47.703125 
L 2.6875 54.6875 
L 9.28125 54.6875 
L 9.28125 70.21875 
z
" id="DejaVuSans-116"/>
      <path d="M 45.40625 27.984375 
Q 45.40625 37.75 41.375 43.109375 
Q 37.359375 48.484375 30.078125 48.484375 
Q 22.859375 48.484375 18.828125 43.109375 
Q 14.796875 37.75 14.796875 27.984375 
Q 14.796875 18.265625 18.828125 12.890625 
Q 22.859375 7.515625 30.078125 7.515625 
Q 37.359375 7.515625 41.375 12.890625 
Q 45.40625 18.265625 45.40625 27.984375 
z
M 54.390625 6.78125 
Q 54.390625 -7.171875 48.1875 -13.984375 
Q 42 -20.796875 29.203125 -20.796875 
Q 24.46875 -20.796875 20.265625 -20.09375 
Q 16.0625 -19.390625 12.109375 -17.921875 
L 12.109375 -9.1875 
Q 16.0625 -11.328125 19.921875 -12.34375 
Q 23.78125 -13.375 27.78125 -13.375 
Q 36.625 -13.375 41.015625 -8.765625 
Q 45.40625 -4.15625 45.40625 5.171875 
L 45.40625 9.625 
Q 42.625 4.78125 38.28125 2.390625 
Q 33.9375 0 27.875 0 
Q 17.828125 0 11.671875 7.65625 
Q 5.515625 15.328125 5.515625 27.984375 
Q 5.515625 40.671875 11.671875 48.328125 
Q 17.828125 56 27.875 56 
Q 33.9375 56 38.28125 53.609375 
Q 42.625 51.21875 45.40625 46.390625 
L 45.40625 54.6875 
L 54.390625 54.6875 
z
" id="DejaVuSans-103"/>
      <path d="M 54.890625 33.015625 
L 54.890625 0 
L 45.90625 0 
L 45.90625 32.71875 
Q 45.90625 40.484375 42.875 44.328125 
Q 39.84375 48.1875 33.796875 48.1875 
Q 26.515625 48.1875 22.3125 43.546875 
Q 18.109375 38.921875 18.109375 30.90625 
L 18.109375 0 
L 9.078125 0 
L 9.078125 75.984375 
L 18.109375 75.984375 
L 18.109375 46.1875 
Q 21.34375 51.125 25.703125 53.5625 
Q 30.078125 56 35.796875 56 
Q 45.21875 56 50.046875 50.171875 
Q 54.890625 44.34375 54.890625 33.015625 
z
" id="DejaVuSans-104"/>
      <path d="M 56.203125 29.59375 
L 56.203125 25.203125 
L 14.890625 25.203125 
Q 15.484375 15.921875 20.484375 11.0625 
Q 25.484375 6.203125 34.421875 6.203125 
Q 39.59375 6.203125 44.453125 7.46875 
Q 49.3125 8.734375 54.109375 11.28125 
L 54.109375 2.78125 
Q 49.265625 0.734375 44.1875 -0.34375 
Q 39.109375 -1.421875 33.890625 -1.421875 
Q 20.796875 -1.421875 13.15625 6.1875 
Q 5.515625 13.8125 5.515625 26.8125 
Q 5.515625 40.234375 12.765625 48.109375 
Q 20.015625 56 32.328125 56 
Q 43.359375 56 49.78125 48.890625 
Q 56.203125 41.796875 56.203125 29.59375 
z
M 47.21875 32.234375 
Q 47.125 39.59375 43.09375 43.984375 
Q 39.0625 48.390625 32.421875 48.390625 
Q 24.90625 48.390625 20.390625 44.140625 
Q 15.875 39.890625 15.1875 32.171875 
z
" id="DejaVuSans-101"/>
      <path d="M 52 44.1875 
Q 55.375 50.25 60.0625 53.125 
Q 64.75 56 71.09375 56 
Q 79.640625 56 84.28125 50.015625 
Q 88.921875 44.046875 88.921875 33.015625 
L 88.921875 0 
L 79.890625 0 
L 79.890625 32.71875 
Q 79.890625 40.578125 77.09375 44.375 
Q 74.3125 48.1875 68.609375 48.1875 
Q 61.625 48.1875 57.5625 43.546875 
Q 53.515625 38.921875 53.515625 30.90625 
L 53.515625 0 
L 44.484375 0 
L 44.484375 32.71875 
Q 44.484375 40.625 41.703125 44.40625 
Q 38.921875 48.1875 33.109375 48.1875 
Q 26.21875 48.1875 22.15625 43.53125 
Q 18.109375 38.875 18.109375 30.90625 
L 18.109375 0 
L 9.078125 0 
L 9.078125 54.6875 
L 18.109375 54.6875 
L 18.109375 46.1875 
Q 21.1875 51.21875 25.484375 53.609375 
Q 29.78125 56 35.6875 56 
Q 41.65625 56 45.828125 52.96875 
Q 50 49.953125 52 44.1875 
z
" id="DejaVuSans-109"/>
      <path d="M 25.390625 72.90625 
L 33.6875 72.90625 
L 8.296875 -9.28125 
L 0 -9.28125 
z
" id="DejaVuSans-47"/>
     </defs>
     <g transform="translate(38.157812 129.559812)rotate(-90)scale(0.1 -0.1)">
      <use xlink:href="#DejaVuSans-72"/>
      <use x="75.195312" xlink:href="#DejaVuSans-97"/>
      <use x="136.474609" xlink:href="#DejaVuSans-115"/>
      <use x="188.574219" xlink:href="#DejaVuSans-116"/>
      <use x="227.783203" xlink:href="#DejaVuSans-105"/>
      <use x="255.566406" xlink:href="#DejaVuSans-103"/>
      <use x="319.042969" xlink:href="#DejaVuSans-104"/>
      <use x="382.421875" xlink:href="#DejaVuSans-101"/>
      <use x="443.945312" xlink:href="#DejaVuSans-116"/>
      <use x="483.154297" xlink:href="#DejaVuSans-32"/>
      <use x="514.941406" xlink:href="#DejaVuSans-91"/>
      <use x="553.955078" xlink:href="#DejaVuSans-109"/>
      <use x="651.367188" xlink:href="#DejaVuSans-47"/>
      <use x="685.058594" xlink:href="#DejaVuSans-115"/>
      <use x="737.158203" xlink:href="#DejaVuSans-93"/>
     </g>
    </g>
   </g>
   <g id="line2d_17">
    <path clip-path="url(#pd565b15eb4)" d="M 73.832727 135.552 
L 77.641932 135.552 
L 77.914264 133.897846 
L 79.296609 133.897846 
L 79.572389 131.508513 
L 80.399727 131.508513 
L 80.675507 129.302974 
L 80.951286 129.302974 
L 81.227066 122.962051 
L 81.506292 122.962051 
L 82.057851 116.253538 
L 82.605963 112.118154 
L 82.88519 110.280205 
L 83.72287 106.971897 
L 84.008992 105.225846 
L 84.291666 104.766359 
L 84.57434 104.766359 
L 84.857014 102.101333 
L 85.143135 102.101333 
L 85.425809 101.549949 
L 85.705036 100.355282 
L 85.98771 100.355282 
L 86.556505 99.068718 
L 86.839179 99.068718 
L 87.121853 98.333538 
L 87.404527 96.128 
L 87.690648 98.333538 
L 87.973322 96.128 
L 88.53867 96.128 
L 88.824791 95.300923 
L 89.107465 95.300923 
L 89.386692 94.473846 
L 89.669366 94.473846 
L 89.955487 95.300923 
L 90.520835 93.646769 
L 91.086183 93.646769 
L 91.654979 91.716923 
L 91.937653 92.727795 
L 92.220327 90.797949 
L 92.506448 91.716923 
L 92.789122 91.716923 
L 93.071796 90.797949 
L 93.351023 90.797949 
L 93.637144 91.716923 
L 94.485166 91.716923 
L 95.053961 89.695179 
L 95.336635 90.797949 
L 95.619309 88.59241 
L 95.901983 89.695179 
L 97.318801 89.695179 
L 97.601475 90.797949 
L 97.884149 89.695179 
L 98.166823 89.695179 
L 98.456391 90.797949 
L 98.74596 88.59241 
L 99.035528 88.59241 
L 99.325097 89.695179 
L 99.618112 89.695179 
L 100.197249 91.716923 
L 100.486818 89.695179 
L 100.779834 90.797949 
L 101.358971 90.797949 
L 101.648539 91.716923 
L 101.941555 91.716923 
L 102.231123 89.695179 
L 102.813708 91.716923 
L 103.103276 90.797949 
L 103.975429 90.797949 
L 104.264997 91.716923 
L 104.554566 90.797949 
L 104.844134 92.727795 
L 105.13715 90.797949 
L 105.426719 91.716923 
L 105.71284 91.716923 
L 106.002408 90.797949 
L 106.295424 90.797949 
L 106.584993 91.716923 
L 106.874561 91.716923 
L 107.167577 90.797949 
L 107.457145 91.716923 
L 108.036282 91.716923 
L 108.329298 90.797949 
L 108.622314 91.716923 
L 108.915329 91.716923 
L 109.208345 90.797949 
L 109.504808 90.797949 
L 109.797824 89.695179 
L 110.09084 91.716923 
L 110.680318 89.695179 
L 110.973334 89.695179 
L 111.26635 90.797949 
L 111.562813 90.797949 
L 111.855829 89.695179 
L 112.148844 89.695179 
L 112.445307 90.797949 
L 113.031339 90.797949 
L 113.324355 89.695179 
L 114.499865 89.695179 
L 114.796328 88.59241 
L 115.089343 88.59241 
L 115.382359 89.695179 
L 116.557869 89.695179 
L 116.854332 90.797949 
L 117.147348 89.695179 
L 118.029843 89.695179 
L 118.322858 90.797949 
L 118.615874 89.695179 
L 119.794832 89.695179 
L 120.087847 90.797949 
L 120.380863 90.797949 
L 120.673879 91.716923 
L 120.970342 90.797949 
L 122.145852 90.797949 
L 122.438868 89.695179 
L 123.028346 89.695179 
L 123.321362 90.797949 
L 125.379367 90.797949 
L 125.672383 89.695179 
L 126.847893 89.695179 
L 127.144356 87.489641 
L 127.437371 89.695179 
L 128.023403 89.695179 
L 128.319866 88.59241 
L 128.612882 90.797949 
L 128.905897 89.695179 
L 129.20236 89.695179 
L 129.495376 90.797949 
L 130.377871 90.797949 
L 130.670886 91.716923 
L 130.963902 90.797949 
L 131.260365 90.797949 
L 131.553381 89.695179 
L 132.435875 89.695179 
L 133.314922 92.727795 
L 133.611385 91.716923 
L 133.904401 93.646769 
L 134.49388 93.646769 
L 134.786896 92.727795 
L 136.551885 92.727795 
L 136.8449 91.716923 
L 137.727395 94.473846 
L 138.020411 93.646769 
L 138.313426 93.646769 
L 138.609889 94.473846 
L 138.902905 94.473846 
L 139.195921 93.646769 
L 139.785399 95.300923 
L 140.078415 94.473846 
L 140.96091 94.473846 
L 141.253925 95.300923 
L 141.546941 95.300923 
L 141.843404 96.128 
L 142.429436 96.128 
L 142.722451 95.300923 
L 143.018914 96.128 
L 143.31193 96.128 
L 143.604946 95.300923 
L 144.194425 96.863179 
L 144.48744 96.863179 
L 144.780456 96.128 
L 145.369935 96.128 
L 145.662951 96.863179 
L 145.959413 96.128 
L 146.252429 96.863179 
L 146.838461 95.300923 
L 147.134924 96.863179 
L 147.427939 96.128 
L 147.720955 96.128 
L 148.017418 98.333538 
L 148.310434 96.863179 
L 148.60345 97.690256 
L 148.896465 97.690256 
L 149.192928 96.863179 
L 149.485944 97.690256 
L 149.77896 97.690256 
L 150.075423 96.128 
L 150.368439 96.863179 
L 150.661454 96.863179 
L 150.95447 96.128 
L 151.250933 96.863179 
L 151.543949 96.128 
L 152.426443 96.128 
L 152.719459 97.690256 
L 153.012475 97.690256 
L 153.308938 96.128 
L 153.601953 97.690256 
L 154.187985 97.690256 
L 154.484448 98.333538 
L 155.070479 98.333538 
L 155.366942 99.068718 
L 155.659958 98.333538 
L 155.952974 99.712 
L 156.24599 96.863179 
L 156.542453 98.333538 
L 156.835468 97.690256 
L 157.128484 98.333538 
L 157.424947 98.333538 
L 157.717963 97.690256 
L 158.010979 98.333538 
L 158.303994 100.355282 
L 158.600457 99.068718 
L 158.893473 100.355282 
L 159.186489 100.355282 
L 159.482952 101.549949 
L 159.775967 101.549949 
L 160.068983 103.755487 
L 160.361999 104.306872 
L 160.658462 106.144821 
L 160.951478 106.604308 
L 161.244493 108.534154 
L 161.833972 110.555897 
L 162.420004 113.864205 
L 162.716467 113.864205 
L 163.302498 117.448205 
L 163.595514 118.367179 
L 163.891977 118.367179 
L 164.478008 120.113231 
L 164.774471 120.113231 
L 165.067487 120.756513 
L 165.360503 122.134974 
L 165.653518 122.134974 
L 165.949981 123.789128 
L 166.536013 123.789128 
L 166.832476 125.351385 
L 167.125492 125.351385 
L 167.418507 126.729846 
L 168.301002 126.729846 
L 168.594018 129.394872 
L 170.945038 129.394872 
L 171.241501 135.552 
L 176.240005 135.552 
L 176.533021 134.724923 
L 177.415515 134.724923 
L 177.708531 135.552 
L 179.177057 135.552 
L 179.47352 133.254564 
L 180.942046 133.254564 
L 181.235061 131.140923 
L 181.82454 131.140923 
L 182.117556 128.935385 
L 182.707035 128.935385 
L 183.00005 126.546051 
L 183.293066 126.546051 
L 183.882545 122.686359 
L 184.17556 122.686359 
L 184.468576 120.940308 
L 184.765039 120.940308 
L 185.058055 119.929436 
L 185.647534 117.26441 
L 185.940549 116.437333 
L 186.233565 116.437333 
L 187.11606 113.68041 
L 187.409075 113.129026 
L 187.705538 111.842462 
L 187.998554 111.199179 
L 188.29157 109.269333 
L 188.584586 108.166564 
L 188.881049 107.798974 
L 189.174064 106.971897 
L 189.46708 105.225846 
L 189.760096 104.306872 
L 190.056559 104.306872 
L 190.349574 102.744615 
L 191.232069 100.998564 
L 191.8181 100.998564 
L 192.114563 100.355282 
L 192.407579 100.355282 
L 192.700595 99.068718 
L 192.997058 99.068718 
L 194.172568 96.128 
L 194.465584 96.128 
L 194.7586 93.646769 
L 195.055063 93.646769 
L 195.348078 91.716923 
L 195.641094 90.797949 
L 195.93411 90.797949 
L 196.230573 88.59241 
L 196.816604 88.59241 
L 197.406083 86.294974 
L 197.699099 86.294974 
L 197.992114 83.721846 
L 198.288577 85.00841 
L 198.581593 83.721846 
L 199.171072 83.721846 
L 199.757103 80.781128 
L 200.346582 80.781128 
L 200.639598 79.218872 
L 201.225629 79.218872 
L 201.522092 77.564718 
L 201.815108 77.564718 
L 202.108124 75.818667 
L 202.697602 75.818667 
L 202.990618 77.564718 
L 203.580097 73.980718 
L 204.166128 73.980718 
L 204.462591 71.958974 
L 204.755607 75.818667 
L 205.048623 71.958974 
L 205.341639 69.845333 
L 206.224133 69.845333 
L 206.520596 67.547897 
L 207.106628 67.547897 
L 207.399643 65.158564 
L 207.696106 65.158564 
L 207.989122 67.547897 
L 208.871616 67.547897 
L 209.164632 65.158564 
L 209.457648 67.547897 
L 209.754111 65.158564 
L 210.340142 65.158564 
L 210.633158 62.585436 
L 211.515653 62.585436 
L 211.812116 65.158564 
L 212.105131 62.585436 
L 212.398147 62.585436 
L 212.691163 59.736615 
L 212.987626 59.736615 
L 213.280642 62.585436 
L 213.573657 62.585436 
L 213.87012 65.158564 
L 214.163136 65.158564 
L 214.456152 62.585436 
L 214.749168 62.585436 
L 215.04563 59.736615 
L 215.338646 62.585436 
L 215.631662 62.585436 
L 215.928125 59.736615 
L 216.514156 59.736615 
L 216.807172 62.585436 
L 217.103635 59.736615 
L 217.982682 59.736615 
L 218.279145 56.704 
L 218.572161 59.736615 
L 218.865177 59.736615 
L 219.16164 56.704 
L 219.454656 59.736615 
L 219.747671 53.395692 
L 220.040687 56.704 
L 220.923182 56.704 
L 221.219645 53.395692 
L 221.51266 56.704 
L 221.805676 53.395692 
L 222.098692 56.704 
L 222.395155 53.395692 
L 222.68817 56.704 
L 222.981186 53.395692 
L 223.277649 56.704 
L 223.570665 53.395692 
L 223.863681 56.704 
L 224.156696 49.811692 
L 224.453159 53.395692 
L 224.746175 53.395692 
L 225.039191 49.811692 
L 225.335654 53.395692 
L 225.62867 49.811692 
L 225.921685 49.811692 
L 226.214701 56.704 
L 226.511164 49.811692 
L 226.80418 53.395692 
L 227.097196 53.395692 
L 227.390211 45.952 
L 227.97969 53.395692 
L 228.272706 49.811692 
L 228.569169 53.395692 
L 228.862184 49.811692 
L 229.1552 49.811692 
L 229.448216 45.952 
L 229.744679 49.811692 
L 230.33071 49.811692 
L 230.627173 53.395692 
L 230.920189 49.811692 
L 231.213205 56.704 
L 231.506221 53.395692 
L 231.802684 56.704 
L 232.095699 56.704 
L 232.685178 62.585436 
L 232.978194 62.585436 
L 233.27121 65.158564 
L 233.564225 65.158564 
L 234.743183 73.980718 
L 235.329214 77.564718 
L 235.62223 77.564718 
L 235.918693 82.251487 
L 236.211709 82.251487 
L 236.504724 83.721846 
L 237.094203 88.59241 
L 237.387219 89.695179 
L 237.976698 95.300923 
L 238.276608 96.128 
L 238.576518 99.068718 
L 238.879876 100.355282 
L 239.179786 104.306872 
L 240.382874 113.864205 
L 240.682784 117.907692 
L 240.986142 117.907692 
L 241.286052 123.237744 
L 242.18923 123.237744 
L 242.48914 135.552 
L 247.308387 135.552 
L 247.611745 134.449231 
L 247.911655 134.449231 
L 248.211565 135.552 
L 249.721458 135.552 
L 250.021368 132.978872 
L 251.527814 132.978872 
L 251.827724 131.60041 
L 253.93399 131.60041 
L 254.2339 132.703179 
L 254.537258 132.703179 
L 254.837168 126.454154 
L 255.137078 126.454154 
L 255.440436 122.410667 
L 255.743793 122.410667 
L 256.347061 117.172513 
L 256.946881 113.129026 
L 257.850059 109.636923 
L 258.453327 108.166564 
L 258.753237 108.901744 
L 259.956325 103.204103 
L 260.259683 103.204103 
L 260.559593 102.101333 
L 260.859503 101.549949 
L 261.162861 100.355282 
L 261.462771 100.355282 
L 261.762681 98.333538 
L 262.069486 99.712 
L 262.669306 98.333538 
L 262.972664 99.068718 
L 263.272574 97.690256 
L 263.572484 98.333538 
L 263.872395 96.863179 
L 264.175752 98.333538 
L 264.475662 97.690256 
L 264.775572 96.128 
L 265.07893 95.300923 
L 265.37884 96.863179 
L 265.982108 95.300923 
L 266.581928 95.300923 
L 266.885286 94.473846 
L 267.185196 95.300923 
L 267.485106 94.473846 
L 267.788464 95.300923 
L 268.691642 95.300923 
L 268.994999 94.473846 
L 271.401175 94.473846 
L 271.704533 92.727795 
L 272.004443 93.646769 
L 272.607711 93.646769 
L 272.907621 95.300923 
L 273.207531 93.646769 
L 273.507441 93.646769 
L 273.810799 94.473846 
L 274.110709 92.727795 
L 274.410619 93.646769 
L 274.717424 92.727795 
L 275.017334 93.646769 
L 275.317245 93.646769 
L 275.620602 94.473846 
L 276.52378 94.473846 
L 276.82369 93.646769 
L 277.726868 93.646769 
L 278.026778 94.473846 
L 278.326689 93.646769 
L 278.630046 94.473846 
L 278.929956 93.646769 
L 279.533224 93.646769 
L 279.833134 94.473846 
L 281.036222 94.473846 
L 281.343027 95.300923 
L 281.642937 95.300923 
L 281.942848 93.646769 
L 282.846025 93.646769 
L 283.145936 94.473846 
L 283.449293 94.473846 
L 283.749203 93.646769 
L 284.352471 95.300923 
L 284.652381 94.473846 
L 284.952292 94.473846 
L 285.255649 93.646769 
L 285.555559 94.473846 
L 285.85547 94.473846 
L 286.158827 92.727795 
L 286.458737 91.716923 
L 286.758647 92.727795 
L 287.365362 92.727795 
L 287.665273 91.716923 
L 287.965183 93.646769 
L 288.26854 91.716923 
L 288.568451 90.797949 
L 289.171718 90.797949 
L 289.471628 89.695179 
L 290.374806 89.695179 
L 290.674717 90.797949 
L 290.978074 90.797949 
L 291.277984 89.695179 
L 291.577895 89.695179 
L 291.881252 90.797949 
L 292.181162 90.797949 
L 292.481072 89.695179 
L 293.08434 89.695179 
L 293.38425 90.797949 
L 293.684161 89.695179 
L 295.493964 89.695179 
L 295.797321 91.716923 
L 296.097231 89.695179 
L 296.397142 90.797949 
L 296.700499 89.695179 
L 297.30032 89.695179 
L 297.60023 90.797949 
L 297.903587 90.797949 
L 298.203498 89.695179 
L 300.313211 89.695179 
L 300.616568 90.797949 
L 300.916479 89.695179 
L 301.819656 89.695179 
L 302.119567 90.797949 
L 302.722834 90.797949 
L 303.022745 89.695179 
L 303.322655 89.695179 
L 303.626012 87.489641 
L 303.925923 88.59241 
L 304.225833 87.489641 
L 304.8291 89.695179 
L 305.129011 88.59241 
L 305.432368 88.59241 
L 306.032189 90.797949 
L 306.338993 89.695179 
L 306.638904 89.695179 
L 306.938814 88.59241 
L 307.841992 88.59241 
L 308.141902 89.695179 
L 308.445259 88.59241 
L 308.74517 88.59241 
L 309.04508 89.695179 
L 309.348437 89.695179 
L 309.648348 91.716923 
L 309.948258 90.797949 
L 310.251615 90.797949 
L 310.551526 91.716923 
L 311.754614 91.716923 
L 312.057971 92.727795 
L 312.357881 91.716923 
L 312.961149 91.716923 
L 313.264507 92.727795 
L 313.564417 94.473846 
L 313.864327 92.727795 
L 314.167684 94.473846 
L 314.467595 93.646769 
L 314.767505 93.646769 
L 315.070862 95.300923 
L 315.370773 93.646769 
L 315.670683 95.300923 
L 315.97404 94.473846 
L 316.273951 95.300923 
L 316.573861 95.300923 
L 316.877218 94.473846 
L 317.477039 96.128 
L 317.776949 95.300923 
L 318.080306 96.128 
L 318.680127 96.128 
L 318.983484 98.333538 
L 319.286842 97.690256 
L 319.89011 97.690256 
L 320.19002 98.333538 
L 320.48993 97.690256 
L 321.093198 99.068718 
L 321.393108 98.333538 
L 321.696465 99.712 
L 321.996376 98.333538 
L 322.296286 98.333538 
L 322.596196 99.068718 
L 322.899554 99.068718 
L 323.199464 99.712 
L 323.499374 99.068718 
L 323.802731 100.355282 
L 324.102642 100.355282 
L 324.402552 101.549949 
L 324.705909 100.355282 
L 325.00582 100.998564 
L 325.30573 100.355282 
L 325.612535 101.549949 
L 325.912445 100.355282 
L 326.212355 100.355282 
L 326.515712 100.998564 
L 327.115533 100.998564 
L 327.415443 101.549949 
L 327.718801 100.355282 
L 328.018711 102.101333 
L 328.621979 100.998564 
L 328.921889 102.101333 
L 329.221799 102.101333 
L 329.525157 102.744615 
L 329.825067 102.101333 
L 330.124977 104.306872 
L 330.428334 102.744615 
L 330.728245 103.755487 
L 331.328065 103.755487 
L 331.631423 104.766359 
L 331.93478 104.306872 
L 332.538048 105.225846 
L 333.137868 104.306872 
L 333.441226 105.225846 
L 333.741136 103.755487 
L 334.041046 104.766359 
L 334.344404 104.766359 
L 334.644314 105.225846 
L 334.944224 104.766359 
L 335.247582 104.766359 
L 335.547492 105.225846 
L 335.847402 104.766359 
L 336.150759 105.685333 
L 336.75058 105.685333 
L 337.05049 105.225846 
L 337.353848 105.225846 
L 337.653758 106.144821 
L 337.953668 106.144821 
L 338.260473 106.604308 
L 338.560383 106.604308 
L 338.860293 107.431385 
L 339.163651 106.971897 
L 339.463561 107.798974 
L 339.763471 108.166564 
L 340.066829 109.636923 
L 340.366739 109.269333 
L 342.173095 116.988718 
L 342.473005 116.988718 
L 343.076273 119.378051 
L 343.376183 119.378051 
L 343.979451 123.421538 
L 344.582718 123.421538 
L 344.886076 125.810872 
L 345.485896 125.810872 
L 345.785806 128.200205 
L 348.19543 128.200205 
L 348.49534 135.552 
L 351.508231 135.552 
L 351.811589 134.449231 
L 352.411409 134.449231 
L 352.714767 135.552 
L 353.014677 130.589538 
L 353.917855 130.589538 
L 354.217765 129.027282 
L 398.487273 129.027282 
L 398.487273 129.027282 
" style="fill:none;stroke:#ff0000;stroke-dasharray:5.55,2.4;stroke-dashoffset:0;stroke-width:1.5;"/>
   </g>
   <g id="line2d_18">
    <path clip-path="url(#pd565b15eb4)" d="M 73.832727 135.552 
L 79.848168 135.552 
L 80.127395 134.449231 
L 80.675507 134.449231 
L 80.951286 126.546051 
L 81.227066 126.546051 
L 81.506292 121.307897 
L 82.333631 113.404718 
L 82.88519 110.280205 
L 83.72287 106.604308 
L 84.008992 106.144821 
L 84.291666 103.755487 
L 84.857014 102.744615 
L 85.143135 101.549949 
L 85.425809 101.549949 
L 85.705036 99.712 
L 85.98771 99.712 
L 86.270384 99.068718 
L 86.556505 99.068718 
L 86.839179 97.690256 
L 87.121853 97.690256 
L 87.690648 96.128 
L 87.973322 96.863179 
L 88.255996 95.300923 
L 88.53867 96.128 
L 89.107465 94.473846 
L 89.669366 94.473846 
L 89.955487 95.300923 
L 90.520835 93.646769 
L 90.803509 93.646769 
L 91.086183 92.727795 
L 91.372305 93.646769 
L 91.937653 91.716923 
L 93.071796 91.716923 
L 93.351023 90.797949 
L 93.637144 91.716923 
L 94.202492 91.716923 
L 94.485166 90.797949 
L 94.76784 91.716923 
L 95.336635 89.695179 
L 96.470779 89.695179 
L 96.753453 88.59241 
L 97.318801 90.797949 
L 97.601475 89.695179 
L 99.907681 89.695179 
L 100.197249 90.797949 
L 100.486818 89.695179 
L 100.779834 90.797949 
L 101.069402 89.695179 
L 101.358971 91.716923 
L 101.648539 90.797949 
L 101.941555 91.716923 
L 102.231123 90.797949 
L 103.392845 90.797949 
L 103.682413 91.716923 
L 103.975429 91.716923 
L 104.264997 90.797949 
L 104.554566 91.716923 
L 105.13715 91.716923 
L 105.426719 90.797949 
L 106.002408 92.727795 
L 106.295424 90.797949 
L 106.584993 90.797949 
L 106.874561 91.716923 
L 107.167577 91.716923 
L 107.457145 90.797949 
L 107.746714 91.716923 
L 108.915329 91.716923 
L 109.208345 90.797949 
L 109.504808 90.797949 
L 109.797824 89.695179 
L 110.09084 90.797949 
L 110.387303 89.695179 
L 110.680318 90.797949 
L 111.26635 90.797949 
L 111.562813 89.695179 
L 111.855829 90.797949 
L 113.031339 90.797949 
L 113.324355 89.695179 
L 116.557869 89.695179 
L 116.854332 90.797949 
L 117.147348 90.797949 
L 117.440364 89.695179 
L 117.736827 90.797949 
L 118.029843 90.797949 
L 118.322858 89.695179 
L 118.615874 89.695179 
L 118.912337 90.797949 
L 119.205353 90.797949 
L 119.498369 89.695179 
L 119.794832 90.797949 
L 120.087847 89.695179 
L 120.380863 90.797949 
L 120.970342 90.797949 
L 121.263357 91.716923 
L 121.556373 90.797949 
L 122.145852 90.797949 
L 122.438868 91.716923 
L 122.731883 90.797949 
L 123.614378 90.797949 
L 123.907394 91.716923 
L 124.203857 90.797949 
L 124.789888 90.797949 
L 125.086351 89.695179 
L 125.672383 89.695179 
L 125.965398 90.797949 
L 126.261861 89.695179 
L 127.144356 89.695179 
L 127.437371 88.59241 
L 128.023403 90.797949 
L 128.612882 90.797949 
L 128.905897 89.695179 
L 129.20236 89.695179 
L 129.495376 90.797949 
L 130.081408 90.797949 
L 130.377871 89.695179 
L 130.670886 90.797949 
L 131.260365 90.797949 
L 131.553381 89.695179 
L 132.139412 89.695179 
L 132.435875 90.797949 
L 132.728891 90.797949 
L 133.021907 92.727795 
L 133.314922 91.716923 
L 133.611385 91.716923 
L 134.197417 93.646769 
L 134.49388 92.727795 
L 135.079911 92.727795 
L 135.372927 91.716923 
L 135.66939 92.727795 
L 135.962406 91.716923 
L 136.255422 91.716923 
L 136.551885 93.646769 
L 136.8449 92.727795 
L 137.137916 93.646769 
L 137.727395 93.646769 
L 138.020411 94.473846 
L 138.313426 93.646769 
L 138.609889 93.646769 
L 138.902905 94.473846 
L 139.195921 94.473846 
L 139.488937 93.646769 
L 139.785399 94.473846 
L 140.078415 93.646769 
L 140.371431 93.646769 
L 140.667894 95.300923 
L 140.96091 94.473846 
L 141.253925 94.473846 
L 141.546941 95.300923 
L 141.843404 96.863179 
L 142.13642 95.300923 
L 142.429436 95.300923 
L 142.722451 96.128 
L 143.018914 95.300923 
L 143.31193 95.300923 
L 143.604946 96.128 
L 143.901409 95.300923 
L 144.194425 96.128 
L 144.48744 95.300923 
L 144.780456 95.300923 
L 145.076919 96.863179 
L 145.369935 96.863179 
L 145.662951 95.300923 
L 145.959413 95.300923 
L 146.252429 96.128 
L 146.545445 96.128 
L 146.838461 96.863179 
L 147.134924 96.128 
L 147.427939 96.128 
L 147.720955 96.863179 
L 148.60345 96.863179 
L 148.896465 97.690256 
L 149.192928 96.863179 
L 149.485944 96.863179 
L 149.77896 96.128 
L 150.661454 96.128 
L 150.95447 95.300923 
L 151.250933 96.128 
L 151.543949 96.128 
L 151.836965 96.863179 
L 152.12998 96.128 
L 153.601953 96.128 
L 153.894969 97.690256 
L 154.187985 96.863179 
L 154.484448 96.863179 
L 155.070479 98.333538 
L 155.659958 98.333538 
L 155.952974 97.690256 
L 156.24599 98.333538 
L 156.835468 98.333538 
L 157.128484 97.690256 
L 157.424947 97.690256 
L 157.717963 99.068718 
L 158.010979 97.690256 
L 158.303994 99.068718 
L 158.600457 99.068718 
L 158.893473 99.712 
L 159.186489 100.998564 
L 159.482952 100.355282 
L 159.775967 102.744615 
L 160.068983 102.744615 
L 160.361999 103.755487 
L 160.658462 106.144821 
L 160.951478 106.604308 
L 161.244493 108.166564 
L 161.833972 109.912615 
L 162.126988 110.923487 
L 163.009482 116.437333 
L 163.302498 117.907692 
L 163.595514 117.907692 
L 163.891977 119.102359 
L 164.184993 119.653744 
L 164.478008 119.653744 
L 165.067487 121.307897 
L 165.360503 121.307897 
L 165.653518 122.594462 
L 165.949981 122.594462 
L 166.242997 124.616205 
L 166.832476 124.616205 
L 167.125492 125.810872 
L 167.711523 125.810872 
L 168.007986 127.648821 
L 168.890481 127.648821 
L 169.183496 130.221949 
L 171.534517 130.221949 
L 171.827532 135.552 
L 178.298009 135.552 
L 178.591025 134.816821 
L 179.766535 134.816821 
L 180.059551 135.552 
L 180.352567 131.968 
L 181.531524 131.968 
L 181.82454 129.946256 
L 182.117556 129.946256 
L 182.414019 127.556923 
L 183.00005 127.556923 
L 183.293066 125.535179 
L 183.589529 125.535179 
L 184.17556 121.951179 
L 184.468576 121.951179 
L 184.765039 120.113231 
L 185.058055 119.010462 
L 185.351071 119.010462 
L 185.647534 117.632 
L 185.940549 116.988718 
L 186.233565 115.426462 
L 186.823044 114.139897 
L 188.29157 109.269333 
L 188.584586 108.901744 
L 189.174064 105.685333 
L 189.46708 105.685333 
L 189.760096 103.755487 
L 190.349574 102.744615 
L 190.64259 101.549949 
L 190.939053 101.549949 
L 191.232069 100.998564 
L 192.114563 100.998564 
L 192.407579 99.712 
L 192.997058 98.333538 
L 193.290074 99.068718 
L 193.583089 96.863179 
L 193.876105 96.863179 
L 194.172568 96.128 
L 194.465584 94.473846 
L 194.7586 93.646769 
L 195.055063 91.716923 
L 195.348078 91.716923 
L 196.230573 88.59241 
L 196.523588 87.489641 
L 197.113067 87.489641 
L 197.406083 85.00841 
L 197.699099 86.294974 
L 197.992114 83.721846 
L 198.581593 83.721846 
L 199.171072 80.781128 
L 199.464088 82.251487 
L 199.757103 82.251487 
L 200.050119 79.218872 
L 200.346582 80.781128 
L 200.639598 79.218872 
L 201.522092 79.218872 
L 201.815108 77.564718 
L 202.108124 77.564718 
L 202.404587 75.818667 
L 202.697602 75.818667 
L 202.990618 73.980718 
L 203.283634 75.818667 
L 203.580097 75.818667 
L 203.873113 73.980718 
L 204.462591 73.980718 
L 204.755607 71.958974 
L 205.048623 71.958974 
L 205.341639 73.980718 
L 206.224133 67.547897 
L 206.520596 71.958974 
L 206.813612 69.845333 
L 207.399643 69.845333 
L 207.989122 65.158564 
L 208.871616 65.158564 
L 209.164632 62.585436 
L 209.457648 62.585436 
L 209.754111 65.158564 
L 210.047127 62.585436 
L 210.340142 62.585436 
L 210.633158 65.158564 
L 211.222637 65.158564 
L 211.812116 59.736615 
L 212.105131 62.585436 
L 213.280642 62.585436 
L 213.573657 59.736615 
L 214.163136 59.736615 
L 214.456152 65.158564 
L 214.749168 62.585436 
L 215.04563 65.158564 
L 215.631662 59.736615 
L 215.928125 62.585436 
L 216.221141 59.736615 
L 216.514156 62.585436 
L 216.807172 62.585436 
L 217.396651 56.704 
L 217.689667 59.736615 
L 217.982682 56.704 
L 218.279145 56.704 
L 218.572161 59.736615 
L 219.16164 53.395692 
L 219.454656 56.704 
L 219.747671 53.395692 
L 220.040687 56.704 
L 220.33715 56.704 
L 220.630166 53.395692 
L 220.923182 56.704 
L 221.219645 53.395692 
L 221.51266 56.704 
L 221.805676 53.395692 
L 222.098692 56.704 
L 222.395155 53.395692 
L 222.68817 56.704 
L 222.981186 49.811692 
L 223.277649 56.704 
L 223.570665 49.811692 
L 223.863681 56.704 
L 224.156696 49.811692 
L 224.453159 53.395692 
L 224.746175 49.811692 
L 225.039191 49.811692 
L 225.335654 53.395692 
L 225.921685 53.395692 
L 226.214701 49.811692 
L 226.80418 49.811692 
L 227.097196 45.952 
L 227.390211 45.952 
L 227.686674 53.395692 
L 227.97969 49.811692 
L 228.569169 49.811692 
L 228.862184 45.952 
L 229.448216 45.952 
L 229.744679 49.811692 
L 230.627173 49.811692 
L 230.920189 53.395692 
L 231.506221 53.395692 
L 231.802684 59.736615 
L 232.095699 56.704 
L 232.388715 56.704 
L 232.685178 62.585436 
L 232.978194 65.158564 
L 233.27121 65.158564 
L 233.564225 62.585436 
L 233.860688 65.158564 
L 234.44672 73.980718 
L 235.036198 73.980718 
L 235.329214 79.218872 
L 235.62223 77.564718 
L 236.211709 83.721846 
L 237.094203 87.489641 
L 237.680235 91.716923 
L 237.976698 95.300923 
L 238.276608 95.300923 
L 238.879876 101.549949 
L 239.779606 108.901744 
L 240.082964 111.199179 
L 240.682784 118.091487 
L 240.986142 118.091487 
L 241.286052 123.329641 
L 242.18923 123.329641 
L 242.48914 135.552 
L 247.308387 135.552 
L 247.611745 134.449231 
L 247.911655 134.449231 
L 248.211565 135.552 
L 249.721458 135.552 
L 250.021368 132.886974 
L 251.527814 132.886974 
L 251.827724 131.60041 
L 253.93399 131.60041 
L 254.2339 132.611282 
L 254.537258 132.611282 
L 254.837168 126.546051 
L 255.137078 126.546051 
L 255.743793 119.745641 
L 256.043703 119.745641 
L 256.646971 115.058872 
L 256.946881 113.129026 
L 257.250239 112.118154 
L 257.850059 109.269333 
L 258.153417 108.534154 
L 258.453327 108.166564 
L 258.753237 108.534154 
L 259.053147 106.144821 
L 259.356505 106.144821 
L 259.956325 103.204103 
L 260.259683 102.744615 
L 260.559593 100.998564 
L 260.859503 101.549949 
L 261.162861 100.355282 
L 261.462771 99.712 
L 261.762681 99.712 
L 262.069486 98.333538 
L 262.369396 99.068718 
L 262.972664 99.068718 
L 263.272574 97.690256 
L 263.572484 99.068718 
L 263.872395 96.863179 
L 264.175752 96.863179 
L 264.475662 97.690256 
L 264.775572 96.128 
L 265.07893 96.128 
L 265.37884 95.300923 
L 266.581928 95.300923 
L 266.885286 94.473846 
L 267.185196 94.473846 
L 267.485106 95.300923 
L 268.088374 95.300923 
L 268.391731 94.473846 
L 268.691642 95.300923 
L 268.994999 94.473846 
L 269.294909 95.300923 
L 269.59482 94.473846 
L 270.198087 96.128 
L 270.497997 94.473846 
L 271.101265 94.473846 
L 271.401175 95.300923 
L 272.004443 93.646769 
L 272.304353 94.473846 
L 272.607711 93.646769 
L 272.907621 94.473846 
L 273.207531 93.646769 
L 273.507441 94.473846 
L 273.810799 92.727795 
L 274.110709 94.473846 
L 274.410619 95.300923 
L 274.717424 92.727795 
L 275.017334 94.473846 
L 275.317245 93.646769 
L 275.620602 93.646769 
L 275.920512 94.473846 
L 276.220423 93.646769 
L 276.82369 93.646769 
L 277.426958 95.300923 
L 277.726868 94.473846 
L 278.630046 94.473846 
L 278.929956 93.646769 
L 279.229867 94.473846 
L 281.036222 94.473846 
L 281.343027 95.300923 
L 281.642937 94.473846 
L 282.846025 94.473846 
L 283.145936 93.646769 
L 283.749203 95.300923 
L 284.049114 95.300923 
L 284.352471 94.473846 
L 285.255649 94.473846 
L 285.555559 93.646769 
L 285.85547 93.646769 
L 286.158827 92.727795 
L 286.758647 92.727795 
L 287.062005 93.646769 
L 287.365362 92.727795 
L 287.965183 92.727795 
L 288.26854 90.797949 
L 288.568451 91.716923 
L 288.868361 90.797949 
L 289.171718 90.797949 
L 289.771539 88.59241 
L 290.074896 89.695179 
L 290.674717 89.695179 
L 291.277984 91.716923 
L 291.577895 90.797949 
L 291.881252 90.797949 
L 292.181162 89.695179 
L 292.481072 90.797949 
L 292.780983 89.695179 
L 294.894143 89.695179 
L 295.194054 88.59241 
L 295.493964 89.695179 
L 297.60023 89.695179 
L 297.903587 88.59241 
L 298.203498 89.695179 
L 298.503408 89.695179 
L 298.806765 88.59241 
L 299.106675 89.695179 
L 299.406586 88.59241 
L 299.709943 88.59241 
L 300.009853 89.695179 
L 300.313211 88.59241 
L 300.616568 89.695179 
L 303.322655 89.695179 
L 303.626012 88.59241 
L 304.225833 88.59241 
L 304.52919 89.695179 
L 304.8291 88.59241 
L 305.129011 88.59241 
L 305.432368 89.695179 
L 306.338993 89.695179 
L 306.638904 88.59241 
L 307.238724 88.59241 
L 307.542082 89.695179 
L 307.841992 88.59241 
L 308.141902 88.59241 
L 308.445259 89.695179 
L 309.04508 89.695179 
L 309.348437 90.797949 
L 309.648348 90.797949 
L 309.948258 91.716923 
L 310.851436 91.716923 
L 311.154793 92.727795 
L 311.454703 92.727795 
L 312.057971 90.797949 
L 312.357881 90.797949 
L 313.264507 93.646769 
L 313.564417 92.727795 
L 313.864327 93.646769 
L 314.167684 92.727795 
L 314.467595 92.727795 
L 315.070862 94.473846 
L 315.370773 93.646769 
L 315.670683 94.473846 
L 315.97404 93.646769 
L 316.273951 95.300923 
L 316.573861 94.473846 
L 317.177128 94.473846 
L 317.477039 96.128 
L 318.380217 96.128 
L 318.680127 96.863179 
L 318.983484 96.863179 
L 319.286842 98.333538 
L 319.586752 96.863179 
L 319.89011 97.690256 
L 320.19002 99.068718 
L 320.48993 97.690256 
L 320.793287 98.333538 
L 321.393108 98.333538 
L 321.696465 99.068718 
L 321.996376 97.690256 
L 322.296286 97.690256 
L 323.199464 99.712 
L 323.499374 99.068718 
L 323.802731 99.712 
L 324.402552 99.712 
L 324.705909 100.355282 
L 325.912445 100.355282 
L 326.212355 100.998564 
L 326.515712 100.355282 
L 326.815623 100.355282 
L 327.115533 100.998564 
L 327.415443 100.355282 
L 327.718801 100.998564 
L 328.018711 100.998564 
L 328.621979 102.101333 
L 328.921889 100.998564 
L 329.221799 102.101333 
L 329.525157 101.549949 
L 329.825067 102.744615 
L 330.124977 101.549949 
L 330.728245 102.744615 
L 331.028155 103.755487 
L 331.328065 104.306872 
L 331.631423 103.755487 
L 331.93478 103.755487 
L 332.23469 105.225846 
L 332.538048 104.306872 
L 332.837958 104.306872 
L 333.137868 105.225846 
L 333.441226 104.766359 
L 333.741136 103.755487 
L 334.041046 104.306872 
L 334.344404 105.225846 
L 334.644314 104.306872 
L 334.944224 104.766359 
L 335.547492 104.766359 
L 335.847402 104.306872 
L 336.150759 105.685333 
L 336.45067 104.766359 
L 336.75058 104.766359 
L 337.05049 105.685333 
L 337.353848 104.766359 
L 337.953668 106.604308 
L 338.260473 106.144821 
L 339.163651 107.431385 
L 339.463561 107.431385 
L 340.066829 109.269333 
L 340.366739 109.269333 
L 340.666649 110.923487 
L 340.970007 111.842462 
L 341.869737 116.069744 
L 342.173095 116.069744 
L 343.076273 119.653744 
L 343.376183 119.653744 
L 343.676093 121.58359 
L 343.979451 121.58359 
L 344.279361 123.789128 
L 344.582718 123.789128 
L 344.886076 126.178462 
L 345.785806 126.178462 
L 346.089164 128.843487 
L 348.19543 128.843487 
L 348.49534 135.552 
L 351.811589 135.552 
L 352.111499 134.449231 
L 353.014677 134.449231 
L 353.314587 129.578667 
L 398.487273 129.486769 
L 398.487273 129.486769 
" style="fill:none;stroke:#0000ff;stroke-dasharray:5.55,2.4;stroke-dashoffset:0;stroke-width:1.5;"/>
   </g>
   <g id="patch_3">
    <path d="M 57.6 140.032 
L 57.6 41.472 
" style="fill:none;stroke:#000000;stroke-linecap:square;stroke-linejoin:miter;stroke-width:0.8;"/>
   </g>
   <g id="patch_4">
    <path d="M 414.72 140.032 
L 414.72 41.472 
" style="fill:none;stroke:#000000;stroke-linecap:square;stroke-linejoin:miter;stroke-width:0.8;"/>
   </g>
   <g id="patch_5">
    <path d="M 57.6 140.032 
L 414.72 140.032 
" style="fill:none;stroke:#000000;stroke-linecap:square;stroke-linejoin:miter;stroke-width:0.8;"/>
   </g>
   <g id="patch_6">
    <path d="M 57.6 41.472 
L 414.72 41.472 
" style="fill:none;stroke:#000000;stroke-linecap:square;stroke-linejoin:miter;stroke-width:0.8;"/>
   </g>
   <g id="text_11">
    <!-- Hastighet ver tid -->
    <defs>
     <path d="M 30.609375 48.390625 
Q 23.390625 48.390625 19.1875 42.75 
Q 14.984375 37.109375 14.984375 27.296875 
Q 14.984375 17.484375 19.15625 11.84375 
Q 23.34375 6.203125 30.609375 6.203125 
Q 37.796875 6.203125 41.984375 11.859375 
Q 46.1875 17.53125 46.1875 27.296875 
Q 46.1875 37.015625 41.984375 42.703125 
Q 37.796875 48.390625 30.609375 48.390625 
z
M 30.609375 56 
Q 42.328125 56 49.015625 48.375 
Q 55.71875 40.765625 55.71875 27.296875 
Q 55.71875 13.875 49.015625 6.21875 
Q 42.328125 -1.421875 30.609375 -1.421875 
Q 18.84375 -1.421875 12.171875 6.21875 
Q 5.515625 13.875 5.515625 27.296875 
Q 5.515625 40.765625 12.171875 48.375 
Q 18.84375 56 30.609375 56 
z
M 35.203125 75.78125 
L 45.125 75.78125 
L 45.125 65.921875 
L 35.203125 65.921875 
z
M 16.109375 75.78125 
L 26.03125 75.78125 
L 26.03125 65.921875 
L 16.109375 65.921875 
z
" id="DejaVuSans-246"/>
     <path d="M 2.984375 54.6875 
L 12.5 54.6875 
L 29.59375 8.796875 
L 46.6875 54.6875 
L 56.203125 54.6875 
L 35.6875 0 
L 23.484375 0 
z
" id="DejaVuSans-118"/>
     <path d="M 41.109375 46.296875 
Q 39.59375 47.171875 37.8125 47.578125 
Q 36.03125 48 33.890625 48 
Q 26.265625 48 22.1875 43.046875 
Q 18.109375 38.09375 18.109375 28.8125 
L 18.109375 0 
L 9.078125 0 
L 9.078125 54.6875 
L 18.109375 54.6875 
L 18.109375 46.1875 
Q 20.953125 51.171875 25.484375 53.578125 
Q 30.03125 56 36.53125 56 
Q 37.453125 56 38.578125 55.875 
Q 39.703125 55.765625 41.0625 55.515625 
z
" id="DejaVuSans-114"/>
    </defs>
    <g transform="translate(182.147812 35.472)scale(0.12 -0.12)">
     <use xlink:href="#DejaVuSans-72"/>
     <use x="75.195312" xlink:href="#DejaVuSans-97"/>
     <use x="136.474609" xlink:href="#DejaVuSans-115"/>
     <use x="188.574219" xlink:href="#DejaVuSans-116"/>
     <use x="227.783203" xlink:href="#DejaVuSans-105"/>
     <use x="255.566406" xlink:href="#DejaVuSans-103"/>
     <use x="319.042969" xlink:href="#DejaVuSans-104"/>
     <use x="382.421875" xlink:href="#DejaVuSans-101"/>
     <use x="443.945312" xlink:href="#DejaVuSans-116"/>
     <use x="483.154297" xlink:href="#DejaVuSans-32"/>
     <use x="514.941406" xlink:href="#DejaVuSans-246"/>
     <use x="576.123047" xlink:href="#DejaVuSans-118"/>
     <use x="635.302734" xlink:href="#DejaVuSans-101"/>
     <use x="696.826172" xlink:href="#DejaVuSans-114"/>
     <use x="737.939453" xlink:href="#DejaVuSans-32"/>
     <use x="769.726562" xlink:href="#DejaVuSans-116"/>
     <use x="808.935547" xlink:href="#DejaVuSans-105"/>
     <use x="836.71875" xlink:href="#DejaVuSans-100"/>
    </g>
   </g>
   <g id="legend_1">
    <g id="patch_7">
     <path d="M 314.43875 78.82825 
L 407.72 78.82825 
Q 409.72 78.82825 409.72 76.82825 
L 409.72 48.472 
Q 409.72 46.472 407.72 46.472 
L 314.43875 46.472 
Q 312.43875 46.472 312.43875 48.472 
L 312.43875 76.82825 
Q 312.43875 78.82825 314.43875 78.82825 
z
" style="fill:#ffffff;opacity:0.8;stroke:#cccccc;stroke-linejoin:miter;"/>
    </g>
    <g id="line2d_19">
     <path d="M 316.43875 54.570437 
L 336.43875 54.570437 
" style="fill:none;stroke:#ff0000;stroke-dasharray:5.55,2.4;stroke-dashoffset:0;stroke-width:1.5;"/>
    </g>
    <g id="line2d_20"/>
    <g id="text_12">
     <!-- Vnster Hjul -->
     <defs>
      <path d="M 28.609375 0 
L 0.78125 72.90625 
L 11.078125 72.90625 
L 34.1875 11.53125 
L 57.328125 72.90625 
L 67.578125 72.90625 
L 39.796875 0 
z
" id="DejaVuSans-86"/>
      <path d="M 34.28125 27.484375 
Q 23.390625 27.484375 19.1875 25 
Q 14.984375 22.515625 14.984375 16.5 
Q 14.984375 11.71875 18.140625 8.90625 
Q 21.296875 6.109375 26.703125 6.109375 
Q 34.1875 6.109375 38.703125 11.40625 
Q 43.21875 16.703125 43.21875 25.484375 
L 43.21875 27.484375 
z
M 52.203125 31.203125 
L 52.203125 0 
L 43.21875 0 
L 43.21875 8.296875 
Q 40.140625 3.328125 35.546875 0.953125 
Q 30.953125 -1.421875 24.3125 -1.421875 
Q 15.921875 -1.421875 10.953125 3.296875 
Q 6 8.015625 6 15.921875 
Q 6 25.140625 12.171875 29.828125 
Q 18.359375 34.515625 30.609375 34.515625 
L 43.21875 34.515625 
L 43.21875 35.40625 
Q 43.21875 41.609375 39.140625 45 
Q 35.0625 48.390625 27.6875 48.390625 
Q 23 48.390625 18.546875 47.265625 
Q 14.109375 46.140625 10.015625 43.890625 
L 10.015625 52.203125 
Q 14.9375 54.109375 19.578125 55.046875 
Q 24.21875 56 28.609375 56 
Q 40.484375 56 46.34375 49.84375 
Q 52.203125 43.703125 52.203125 31.203125 
z
M 33.59375 75.78125 
L 43.5 75.78125 
L 43.5 65.921875 
L 33.59375 65.921875 
z
M 14.5 75.78125 
L 24.421875 75.78125 
L 24.421875 65.921875 
L 14.5 65.921875 
z
" id="DejaVuSans-228"/>
      <path d="M 54.890625 33.015625 
L 54.890625 0 
L 45.90625 0 
L 45.90625 32.71875 
Q 45.90625 40.484375 42.875 44.328125 
Q 39.84375 48.1875 33.796875 48.1875 
Q 26.515625 48.1875 22.3125 43.546875 
Q 18.109375 38.921875 18.109375 30.90625 
L 18.109375 0 
L 9.078125 0 
L 9.078125 54.6875 
L 18.109375 54.6875 
L 18.109375 46.1875 
Q 21.34375 51.125 25.703125 53.5625 
Q 30.078125 56 35.796875 56 
Q 45.21875 56 50.046875 50.171875 
Q 54.890625 44.34375 54.890625 33.015625 
z
" id="DejaVuSans-110"/>
      <path d="M 9.421875 54.6875 
L 18.40625 54.6875 
L 18.40625 -0.984375 
Q 18.40625 -11.421875 14.421875 -16.109375 
Q 10.453125 -20.796875 1.609375 -20.796875 
L -1.8125 -20.796875 
L -1.8125 -13.1875 
L 0.59375 -13.1875 
Q 5.71875 -13.1875 7.5625 -10.8125 
Q 9.421875 -8.453125 9.421875 -0.984375 
z
M 9.421875 75.984375 
L 18.40625 75.984375 
L 18.40625 64.59375 
L 9.421875 64.59375 
z
" id="DejaVuSans-106"/>
      <path d="M 8.5 21.578125 
L 8.5 54.6875 
L 17.484375 54.6875 
L 17.484375 21.921875 
Q 17.484375 14.15625 20.5 10.265625 
Q 23.53125 6.390625 29.59375 6.390625 
Q 36.859375 6.390625 41.078125 11.03125 
Q 45.3125 15.671875 45.3125 23.6875 
L 45.3125 54.6875 
L 54.296875 54.6875 
L 54.296875 0 
L 45.3125 0 
L 45.3125 8.40625 
Q 42.046875 3.421875 37.71875 1 
Q 33.40625 -1.421875 27.6875 -1.421875 
Q 18.265625 -1.421875 13.375 4.4375 
Q 8.5 10.296875 8.5 21.578125 
z
M 31.109375 56 
z
" id="DejaVuSans-117"/>
      <path d="M 9.421875 75.984375 
L 18.40625 75.984375 
L 18.40625 0 
L 9.421875 0 
z
" id="DejaVuSans-108"/>
     </defs>
     <g transform="translate(344.43875 58.070437)scale(0.1 -0.1)">
      <use xlink:href="#DejaVuSans-86"/>
      <use x="68.298828" xlink:href="#DejaVuSans-228"/>
      <use x="129.578125" xlink:href="#DejaVuSans-110"/>
      <use x="192.957031" xlink:href="#DejaVuSans-115"/>
      <use x="245.056641" xlink:href="#DejaVuSans-116"/>
      <use x="284.265625" xlink:href="#DejaVuSans-101"/>
      <use x="345.789062" xlink:href="#DejaVuSans-114"/>
      <use x="386.902344" xlink:href="#DejaVuSans-32"/>
      <use x="418.689453" xlink:href="#DejaVuSans-72"/>
      <use x="493.884766" xlink:href="#DejaVuSans-106"/>
      <use x="521.667969" xlink:href="#DejaVuSans-117"/>
      <use x="585.046875" xlink:href="#DejaVuSans-108"/>
     </g>
    </g>
    <g id="line2d_21">
     <path d="M 316.43875 69.248562 
L 336.43875 69.248562 
" style="fill:none;stroke:#0000ff;stroke-dasharray:5.55,2.4;stroke-dashoffset:0;stroke-width:1.5;"/>
    </g>
    <g id="line2d_22"/>
    <g id="text_13">
     <!-- Hger Hjul -->
     <g transform="translate(344.43875 72.748562)scale(0.1 -0.1)">
      <use xlink:href="#DejaVuSans-72"/>
      <use x="75.195312" xlink:href="#DejaVuSans-246"/>
      <use x="136.376953" xlink:href="#DejaVuSans-103"/>
      <use x="199.853516" xlink:href="#DejaVuSans-101"/>
      <use x="261.376953" xlink:href="#DejaVuSans-114"/>
      <use x="302.490234" xlink:href="#DejaVuSans-32"/>
      <use x="334.277344" xlink:href="#DejaVuSans-72"/>
      <use x="409.472656" xlink:href="#DejaVuSans-106"/>
      <use x="437.255859" xlink:href="#DejaVuSans-117"/>
      <use x="500.634766" xlink:href="#DejaVuSans-108"/>
     </g>
    </g>
   </g>
  </g>
  <g id="axes_2">
   <g id="patch_8">
    <path d="M 57.6 307.584 
L 414.72 307.584 
L 414.72 209.024 
L 57.6 209.024 
z
" style="fill:#ffffff;"/>
   </g>
   <g id="matplotlib.axis_3">
    <g id="xtick_6">
     <g id="line2d_23">
      <path clip-path="url(#p092914ab22)" d="M 73.801702 307.584 
L 73.801702 209.024 
" style="fill:none;stroke:#b0b0b0;stroke-linecap:square;stroke-width:0.8;"/>
     </g>
     <g id="line2d_24">
      <g>
       <use style="stroke:#000000;stroke-width:0.8;" x="73.801702" xlink:href="#mbb71cde6fb" y="307.584"/>
      </g>
     </g>
     <g id="text_14">
      <!-- 0 -->
      <g transform="translate(70.620452 322.182437)scale(0.1 -0.1)">
       <use xlink:href="#DejaVuSans-48"/>
      </g>
     </g>
    </g>
    <g id="xtick_7">
     <g id="line2d_25">
      <path clip-path="url(#p092914ab22)" d="M 142.746582 307.584 
L 142.746582 209.024 
" style="fill:none;stroke:#b0b0b0;stroke-linecap:square;stroke-width:0.8;"/>
     </g>
     <g id="line2d_26">
      <g>
       <use style="stroke:#000000;stroke-width:0.8;" x="142.746582" xlink:href="#mbb71cde6fb" y="307.584"/>
      </g>
     </g>
     <g id="text_15">
      <!-- 20 -->
      <g transform="translate(136.384082 322.182437)scale(0.1 -0.1)">
       <use xlink:href="#DejaVuSans-50"/>
       <use x="63.623047" xlink:href="#DejaVuSans-48"/>
      </g>
     </g>
    </g>
    <g id="xtick_8">
     <g id="line2d_27">
      <path clip-path="url(#p092914ab22)" d="M 211.691462 307.584 
L 211.691462 209.024 
" style="fill:none;stroke:#b0b0b0;stroke-linecap:square;stroke-width:0.8;"/>
     </g>
     <g id="line2d_28">
      <g>
       <use style="stroke:#000000;stroke-width:0.8;" x="211.691462" xlink:href="#mbb71cde6fb" y="307.584"/>
      </g>
     </g>
     <g id="text_16">
      <!-- 40 -->
      <g transform="translate(205.328962 322.182437)scale(0.1 -0.1)">
       <use xlink:href="#DejaVuSans-52"/>
       <use x="63.623047" xlink:href="#DejaVuSans-48"/>
      </g>
     </g>
    </g>
    <g id="xtick_9">
     <g id="line2d_29">
      <path clip-path="url(#p092914ab22)" d="M 280.636342 307.584 
L 280.636342 209.024 
" style="fill:none;stroke:#b0b0b0;stroke-linecap:square;stroke-width:0.8;"/>
     </g>
     <g id="line2d_30">
      <g>
       <use style="stroke:#000000;stroke-width:0.8;" x="280.636342" xlink:href="#mbb71cde6fb" y="307.584"/>
      </g>
     </g>
     <g id="text_17">
      <!-- 60 -->
      <g transform="translate(274.273842 322.182437)scale(0.1 -0.1)">
       <use xlink:href="#DejaVuSans-54"/>
       <use x="63.623047" xlink:href="#DejaVuSans-48"/>
      </g>
     </g>
    </g>
    <g id="xtick_10">
     <g id="line2d_31">
      <path clip-path="url(#p092914ab22)" d="M 349.581222 307.584 
L 349.581222 209.024 
" style="fill:none;stroke:#b0b0b0;stroke-linecap:square;stroke-width:0.8;"/>
     </g>
     <g id="line2d_32">
      <g>
       <use style="stroke:#000000;stroke-width:0.8;" x="349.581222" xlink:href="#mbb71cde6fb" y="307.584"/>
      </g>
     </g>
     <g id="text_18">
      <!-- 80 -->
      <g transform="translate(343.218722 322.182437)scale(0.1 -0.1)">
       <use xlink:href="#DejaVuSans-56"/>
       <use x="63.623047" xlink:href="#DejaVuSans-48"/>
      </g>
     </g>
    </g>
    <g id="text_19">
     <!-- Tid [s] -->
     <g transform="translate(220.449844 335.860562)scale(0.1 -0.1)">
      <use xlink:href="#DejaVuSans-84"/>
      <use x="61.037109" xlink:href="#DejaVuSans-105"/>
      <use x="88.820312" xlink:href="#DejaVuSans-100"/>
      <use x="152.296875" xlink:href="#DejaVuSans-32"/>
      <use x="184.083984" xlink:href="#DejaVuSans-91"/>
      <use x="223.097656" xlink:href="#DejaVuSans-115"/>
      <use x="275.197266" xlink:href="#DejaVuSans-93"/>
     </g>
    </g>
   </g>
   <g id="matplotlib.axis_4">
    <g id="ytick_4">
     <g id="line2d_33">
      <path clip-path="url(#p092914ab22)" d="M 57.6 303.104 
L 414.72 303.104 
" style="fill:none;stroke:#b0b0b0;stroke-linecap:square;stroke-width:0.8;"/>
     </g>
     <g id="line2d_34">
      <g>
       <use style="stroke:#000000;stroke-width:0.8;" x="57.6" xlink:href="#m49a99e2f1b" y="303.104"/>
      </g>
     </g>
     <g id="text_20">
      <!-- 0 -->
      <g transform="translate(44.2375 306.903219)scale(0.1 -0.1)">
       <use xlink:href="#DejaVuSans-48"/>
      </g>
     </g>
    </g>
    <g id="ytick_5">
     <g id="line2d_35">
      <path clip-path="url(#p092914ab22)" d="M 57.6 254.752382 
L 414.72 254.752382 
" style="fill:none;stroke:#b0b0b0;stroke-linecap:square;stroke-width:0.8;"/>
     </g>
     <g id="line2d_36">
      <g>
       <use style="stroke:#000000;stroke-width:0.8;" x="57.6" xlink:href="#m49a99e2f1b" y="254.752382"/>
      </g>
     </g>
     <g id="text_21">
      <!-- 50 -->
      <defs>
       <path d="M 10.796875 72.90625 
L 49.515625 72.90625 
L 49.515625 64.59375 
L 19.828125 64.59375 
L 19.828125 46.734375 
Q 21.96875 47.46875 24.109375 47.828125 
Q 26.265625 48.1875 28.421875 48.1875 
Q 40.625 48.1875 47.75 41.5 
Q 54.890625 34.8125 54.890625 23.390625 
Q 54.890625 11.625 47.5625 5.09375 
Q 40.234375 -1.421875 26.90625 -1.421875 
Q 22.3125 -1.421875 17.546875 -0.640625 
Q 12.796875 0.140625 7.71875 1.703125 
L 7.71875 11.625 
Q 12.109375 9.234375 16.796875 8.0625 
Q 21.484375 6.890625 26.703125 6.890625 
Q 35.15625 6.890625 40.078125 11.328125 
Q 45.015625 15.765625 45.015625 23.390625 
Q 45.015625 31 40.078125 35.4375 
Q 35.15625 39.890625 26.703125 39.890625 
Q 22.75 39.890625 18.8125 39.015625 
Q 14.890625 38.140625 10.796875 36.28125 
z
" id="DejaVuSans-53"/>
      </defs>
      <g transform="translate(37.875 258.551601)scale(0.1 -0.1)">
       <use xlink:href="#DejaVuSans-53"/>
       <use x="63.623047" xlink:href="#DejaVuSans-48"/>
      </g>
     </g>
    </g>
    <g id="text_22">
     <!-- Distans [m] -->
     <defs>
      <path d="M 19.671875 64.796875 
L 19.671875 8.109375 
L 31.59375 8.109375 
Q 46.6875 8.109375 53.6875 14.9375 
Q 60.6875 21.78125 60.6875 36.53125 
Q 60.6875 51.171875 53.6875 57.984375 
Q 46.6875 64.796875 31.59375 64.796875 
z
M 9.8125 72.90625 
L 30.078125 72.90625 
Q 51.265625 72.90625 61.171875 64.09375 
Q 71.09375 55.28125 71.09375 36.53125 
Q 71.09375 17.671875 61.125 8.828125 
Q 51.171875 0 30.078125 0 
L 9.8125 0 
z
" id="DejaVuSans-68"/>
     </defs>
     <g transform="translate(31.795312 287.306344)rotate(-90)scale(0.1 -0.1)">
      <use xlink:href="#DejaVuSans-68"/>
      <use x="77.001953" xlink:href="#DejaVuSans-105"/>
      <use x="104.785156" xlink:href="#DejaVuSans-115"/>
      <use x="156.884766" xlink:href="#DejaVuSans-116"/>
      <use x="196.09375" xlink:href="#DejaVuSans-97"/>
      <use x="257.373047" xlink:href="#DejaVuSans-110"/>
      <use x="320.751953" xlink:href="#DejaVuSans-115"/>
      <use x="372.851562" xlink:href="#DejaVuSans-32"/>
      <use x="404.638672" xlink:href="#DejaVuSans-91"/>
      <use x="443.652344" xlink:href="#DejaVuSans-109"/>
      <use x="541.064453" xlink:href="#DejaVuSans-93"/>
     </g>
    </g>
   </g>
   <g id="line2d_37">
    <path clip-path="url(#p092914ab22)" d="M 73.832727 303.104 
L 81.227066 302.999667 
L 82.88519 302.738104 
L 85.705036 302.012483 
L 89.669366 300.734132 
L 94.76784 298.880585 
L 136.8449 282.93558 
L 142.722451 280.904901 
L 155.070479 276.870319 
L 161.244493 275.046083 
L 163.891977 274.564036 
L 167.418507 274.174381 
L 171.534517 273.960643 
L 182.414019 273.860827 
L 185.058055 273.609191 
L 187.998554 273.106127 
L 190.939053 272.367119 
L 195.055063 271.080176 
L 198.288577 269.795046 
L 202.108124 268.02952 
L 206.813612 265.54289 
L 212.691163 262.050483 
L 224.156696 254.613717 
L 233.564225 248.091472 
L 235.62223 246.999443 
L 237.680235 246.130111 
L 239.779606 245.507483 
L 241.585962 245.219907 
L 243.395765 245.141758 
L 253.63408 245.031875 
L 256.043703 244.869119 
L 258.153417 244.469872 
L 261.462771 243.605229 
L 267.185196 241.754254 
L 286.458737 235.034153 
L 295.194054 231.727539 
L 315.070862 224.162572 
L 321.696465 221.985896 
L 329.825067 219.594771 
L 338.260473 217.407899 
L 341.869737 216.621877 
L 344.886076 216.233951 
L 348.798698 216.004581 
L 354.821033 215.90448 
L 398.487273 213.504 
L 398.487273 213.504 
" style="fill:none;stroke:#ff0000;stroke-dasharray:5.55,2.4;stroke-dashoffset:0;stroke-width:1.5;"/>
   </g>
   <g id="line2d_38">
    <path clip-path="url(#p092914ab22)" d="M 73.832727 303.104 
L 81.782072 303.001223 
L 83.72287 302.605838 
L 86.556505 301.807501 
L 91.086183 300.283557 
L 97.318801 297.951598 
L 134.49388 283.909429 
L 144.194425 280.532479 
L 157.424947 276.214027 
L 161.244493 275.124282 
L 163.595514 274.681121 
L 167.125492 274.275051 
L 171.534517 274.024852 
L 176.533021 274.018289 
L 182.707035 273.907532 
L 185.351071 273.631954 
L 188.29157 273.098977 
L 191.232069 272.331978 
L 195.055063 271.124076 
L 198.288577 269.826755 
L 202.108124 268.059023 
L 206.520596 265.754627 
L 209.754111 263.877808 
L 217.689667 258.978804 
L 223.277649 255.220718 
L 229.1552 251.02158 
L 231.802684 249.138296 
L 234.44672 247.535178 
L 236.79774 246.423469 
L 238.879876 245.683338 
L 240.682784 245.284863 
L 242.48914 245.094749 
L 253.63408 244.983738 
L 256.043703 244.815088 
L 258.153417 244.416347 
L 261.162861 243.635103 
L 266.282018 242.001999 
L 282.846025 236.283772 
L 291.277984 233.230945 
L 300.009853 229.86247 
L 313.564417 224.686368 
L 320.19002 222.440187 
L 329.221799 219.727586 
L 335.847402 217.963434 
L 341.269917 216.67541 
L 344.279361 216.24044 
L 347.89552 215.990267 
L 350.301696 215.964902 
L 355.120943 215.854954 
L 398.487273 213.644255 
L 398.487273 213.644255 
" style="fill:none;stroke:#0000ff;stroke-dasharray:5.55,2.4;stroke-dashoffset:0;stroke-width:1.5;"/>
   </g>
   <g id="patch_9">
    <path d="M 57.6 307.584 
L 57.6 209.024 
" style="fill:none;stroke:#000000;stroke-linecap:square;stroke-linejoin:miter;stroke-width:0.8;"/>
   </g>
   <g id="patch_10">
    <path d="M 414.72 307.584 
L 414.72 209.024 
" style="fill:none;stroke:#000000;stroke-linecap:square;stroke-linejoin:miter;stroke-width:0.8;"/>
   </g>
   <g id="patch_11">
    <path d="M 57.6 307.584 
L 414.72 307.584 
" style="fill:none;stroke:#000000;stroke-linecap:square;stroke-linejoin:miter;stroke-width:0.8;"/>
   </g>
   <g id="patch_12">
    <path d="M 57.6 209.024 
L 414.72 209.024 
" style="fill:none;stroke:#000000;stroke-linecap:square;stroke-linejoin:miter;stroke-width:0.8;"/>
   </g>
   <g id="text_23">
    <!-- Distans ver tid -->
    <g transform="translate(188.7675 203.024)scale(0.12 -0.12)">
     <use xlink:href="#DejaVuSans-68"/>
     <use x="77.001953" xlink:href="#DejaVuSans-105"/>
     <use x="104.785156" xlink:href="#DejaVuSans-115"/>
     <use x="156.884766" xlink:href="#DejaVuSans-116"/>
     <use x="196.09375" xlink:href="#DejaVuSans-97"/>
     <use x="257.373047" xlink:href="#DejaVuSans-110"/>
     <use x="320.751953" xlink:href="#DejaVuSans-115"/>
     <use x="372.851562" xlink:href="#DejaVuSans-32"/>
     <use x="404.638672" xlink:href="#DejaVuSans-246"/>
     <use x="465.820312" xlink:href="#DejaVuSans-118"/>
     <use x="525" xlink:href="#DejaVuSans-101"/>
     <use x="586.523438" xlink:href="#DejaVuSans-114"/>
     <use x="627.636719" xlink:href="#DejaVuSans-32"/>
     <use x="659.423828" xlink:href="#DejaVuSans-116"/>
     <use x="698.632812" xlink:href="#DejaVuSans-105"/>
     <use x="726.416016" xlink:href="#DejaVuSans-100"/>
    </g>
   </g>
   <g id="legend_2">
    <g id="patch_13">
     <path d="M 314.43875 302.584 
L 407.72 302.584 
Q 409.72 302.584 409.72 300.584 
L 409.72 272.22775 
Q 409.72 270.22775 407.72 270.22775 
L 314.43875 270.22775 
Q 312.43875 270.22775 312.43875 272.22775 
L 312.43875 300.584 
Q 312.43875 302.584 314.43875 302.584 
z
" style="fill:#ffffff;opacity:0.8;stroke:#cccccc;stroke-linejoin:miter;"/>
    </g>
    <g id="line2d_39">
     <path d="M 316.43875 278.326187 
L 336.43875 278.326187 
" style="fill:none;stroke:#ff0000;stroke-dasharray:5.55,2.4;stroke-dashoffset:0;stroke-width:1.5;"/>
    </g>
    <g id="line2d_40"/>
    <g id="text_24">
     <!-- Vnster Hjul -->
     <g transform="translate(344.43875 281.826187)scale(0.1 -0.1)">
      <use xlink:href="#DejaVuSans-86"/>
      <use x="68.298828" xlink:href="#DejaVuSans-228"/>
      <use x="129.578125" xlink:href="#DejaVuSans-110"/>
      <use x="192.957031" xlink:href="#DejaVuSans-115"/>
      <use x="245.056641" xlink:href="#DejaVuSans-116"/>
      <use x="284.265625" xlink:href="#DejaVuSans-101"/>
      <use x="345.789062" xlink:href="#DejaVuSans-114"/>
      <use x="386.902344" xlink:href="#DejaVuSans-32"/>
      <use x="418.689453" xlink:href="#DejaVuSans-72"/>
      <use x="493.884766" xlink:href="#DejaVuSans-106"/>
      <use x="521.667969" xlink:href="#DejaVuSans-117"/>
      <use x="585.046875" xlink:href="#DejaVuSans-108"/>
     </g>
    </g>
    <g id="line2d_41">
     <path d="M 316.43875 293.004312 
L 336.43875 293.004312 
" style="fill:none;stroke:#0000ff;stroke-dasharray:5.55,2.4;stroke-dashoffset:0;stroke-width:1.5;"/>
    </g>
    <g id="line2d_42"/>
    <g id="text_25">
     <!-- Hger Hjul -->
     <g transform="translate(344.43875 296.504312)scale(0.1 -0.1)">
      <use xlink:href="#DejaVuSans-72"/>
      <use x="75.195312" xlink:href="#DejaVuSans-246"/>
      <use x="136.376953" xlink:href="#DejaVuSans-103"/>
      <use x="199.853516" xlink:href="#DejaVuSans-101"/>
      <use x="261.376953" xlink:href="#DejaVuSans-114"/>
      <use x="302.490234" xlink:href="#DejaVuSans-32"/>
      <use x="334.277344" xlink:href="#DejaVuSans-72"/>
      <use x="409.472656" xlink:href="#DejaVuSans-106"/>
      <use x="437.255859" xlink:href="#DejaVuSans-117"/>
      <use x="500.634766" xlink:href="#DejaVuSans-108"/>
     </g>
    </g>
   </g>
  </g>
  <g id="text_26">
   <!-- Test nummer 6 -->
   <defs>
    <path d="M 0.484375 72.90625 
L 67.671875 72.90625 
L 67.671875 58.6875 
L 43.5 58.6875 
L 43.5 0 
L 24.703125 0 
L 24.703125 58.6875 
L 0.484375 58.6875 
z
" id="DejaVuSans-Bold-84"/>
    <path d="M 62.984375 27.484375 
L 62.984375 22.515625 
L 22.125 22.515625 
Q 22.75 16.359375 26.5625 13.28125 
Q 30.375 10.203125 37.203125 10.203125 
Q 42.71875 10.203125 48.5 11.84375 
Q 54.296875 13.484375 60.40625 16.796875 
L 60.40625 3.328125 
Q 54.203125 0.984375 48 -0.21875 
Q 41.796875 -1.421875 35.59375 -1.421875 
Q 20.75 -1.421875 12.515625 6.125 
Q 4.296875 13.671875 4.296875 27.296875 
Q 4.296875 40.671875 12.375 48.328125 
Q 20.453125 56 34.625 56 
Q 47.515625 56 55.25 48.234375 
Q 62.984375 40.484375 62.984375 27.484375 
z
M 45.015625 33.296875 
Q 45.015625 38.28125 42.109375 41.328125 
Q 39.203125 44.390625 34.515625 44.390625 
Q 29.4375 44.390625 26.265625 41.53125 
Q 23.09375 38.671875 22.3125 33.296875 
z
" id="DejaVuSans-Bold-101"/>
    <path d="M 51.125 52.984375 
L 51.125 39.703125 
Q 45.515625 42.046875 40.28125 43.21875 
Q 35.0625 44.390625 30.421875 44.390625 
Q 25.4375 44.390625 23.015625 43.140625 
Q 20.609375 41.890625 20.609375 39.3125 
Q 20.609375 37.203125 22.4375 36.078125 
Q 24.265625 34.96875 29 34.421875 
L 32.078125 33.984375 
Q 45.515625 32.28125 50.140625 28.375 
Q 54.78125 24.46875 54.78125 16.109375 
Q 54.78125 7.375 48.328125 2.96875 
Q 41.890625 -1.421875 29.109375 -1.421875 
Q 23.6875 -1.421875 17.890625 -0.5625 
Q 12.109375 0.296875 6 2 
L 6 15.28125 
Q 11.234375 12.75 16.71875 11.46875 
Q 22.21875 10.203125 27.875 10.203125 
Q 33.015625 10.203125 35.59375 11.609375 
Q 38.1875 13.03125 38.1875 15.828125 
Q 38.1875 18.171875 36.40625 19.3125 
Q 34.625 20.453125 29.296875 21.09375 
L 26.21875 21.484375 
Q 14.546875 22.953125 9.859375 26.90625 
Q 5.171875 30.859375 5.171875 38.921875 
Q 5.171875 47.609375 11.125 51.796875 
Q 17.09375 56 29.390625 56 
Q 34.234375 56 39.546875 55.265625 
Q 44.875 54.546875 51.125 52.984375 
z
" id="DejaVuSans-Bold-115"/>
    <path d="M 27.484375 70.21875 
L 27.484375 54.6875 
L 45.515625 54.6875 
L 45.515625 42.1875 
L 27.484375 42.1875 
L 27.484375 19 
Q 27.484375 15.1875 29 13.84375 
Q 30.515625 12.5 35.015625 12.5 
L 44 12.5 
L 44 0 
L 29 0 
Q 18.65625 0 14.328125 4.3125 
Q 10.015625 8.640625 10.015625 19 
L 10.015625 42.1875 
L 1.3125 42.1875 
L 1.3125 54.6875 
L 10.015625 54.6875 
L 10.015625 70.21875 
z
" id="DejaVuSans-Bold-116"/>
    <path id="DejaVuSans-Bold-32"/>
    <path d="M 63.375 33.296875 
L 63.375 0 
L 45.796875 0 
L 45.796875 5.421875 
L 45.796875 25.484375 
Q 45.796875 32.5625 45.484375 35.25 
Q 45.171875 37.9375 44.390625 39.203125 
Q 43.359375 40.921875 41.59375 41.875 
Q 39.84375 42.828125 37.59375 42.828125 
Q 32.125 42.828125 29 38.59375 
Q 25.875 34.375 25.875 26.90625 
L 25.875 0 
L 8.40625 0 
L 8.40625 54.6875 
L 25.875 54.6875 
L 25.875 46.6875 
Q 29.828125 51.46875 34.265625 53.734375 
Q 38.71875 56 44.09375 56 
Q 53.5625 56 58.46875 50.1875 
Q 63.375 44.390625 63.375 33.296875 
z
" id="DejaVuSans-Bold-110"/>
    <path d="M 7.8125 21.296875 
L 7.8125 54.6875 
L 25.390625 54.6875 
L 25.390625 49.21875 
Q 25.390625 44.78125 25.34375 38.0625 
Q 25.296875 31.34375 25.296875 29.109375 
Q 25.296875 22.515625 25.640625 19.609375 
Q 25.984375 16.703125 26.8125 15.375 
Q 27.875 13.671875 29.609375 12.734375 
Q 31.34375 11.8125 33.59375 11.8125 
Q 39.0625 11.8125 42.1875 16.015625 
Q 45.3125 20.21875 45.3125 27.6875 
L 45.3125 54.6875 
L 62.796875 54.6875 
L 62.796875 0 
L 45.3125 0 
L 45.3125 7.90625 
Q 41.359375 3.125 36.9375 0.84375 
Q 32.515625 -1.421875 27.203125 -1.421875 
Q 17.71875 -1.421875 12.765625 4.390625 
Q 7.8125 10.203125 7.8125 21.296875 
z
" id="DejaVuSans-Bold-117"/>
    <path d="M 59.078125 45.609375 
Q 62.40625 50.6875 66.96875 53.34375 
Q 71.53125 56 77 56 
Q 86.421875 56 91.359375 50.1875 
Q 96.296875 44.390625 96.296875 33.296875 
L 96.296875 0 
L 78.71875 0 
L 78.71875 28.515625 
Q 78.765625 29.15625 78.78125 29.828125 
Q 78.8125 30.515625 78.8125 31.78125 
Q 78.8125 37.59375 77.09375 40.203125 
Q 75.390625 42.828125 71.578125 42.828125 
Q 66.609375 42.828125 63.890625 38.71875 
Q 61.1875 34.625 61.078125 26.859375 
L 61.078125 0 
L 43.5 0 
L 43.5 28.515625 
Q 43.5 37.59375 41.9375 40.203125 
Q 40.375 42.828125 36.375 42.828125 
Q 31.34375 42.828125 28.609375 38.703125 
Q 25.875 34.578125 25.875 26.90625 
L 25.875 0 
L 8.296875 0 
L 8.296875 54.6875 
L 25.875 54.6875 
L 25.875 46.6875 
Q 29.109375 51.3125 33.28125 53.65625 
Q 37.453125 56 42.484375 56 
Q 48.140625 56 52.484375 53.265625 
Q 56.84375 50.53125 59.078125 45.609375 
z
" id="DejaVuSans-Bold-109"/>
    <path d="M 49.03125 39.796875 
Q 46.734375 40.875 44.453125 41.375 
Q 42.1875 41.890625 39.890625 41.890625 
Q 33.15625 41.890625 29.515625 37.5625 
Q 25.875 33.25 25.875 25.203125 
L 25.875 0 
L 8.40625 0 
L 8.40625 54.6875 
L 25.875 54.6875 
L 25.875 45.703125 
Q 29.25 51.078125 33.609375 53.53125 
Q 37.984375 56 44.09375 56 
Q 44.96875 56 45.984375 55.921875 
Q 47.015625 55.859375 48.96875 55.609375 
z
" id="DejaVuSans-Bold-114"/>
    <path d="M 36.1875 35.984375 
Q 31.25 35.984375 28.78125 32.78125 
Q 26.3125 29.59375 26.3125 23.1875 
Q 26.3125 16.796875 28.78125 13.59375 
Q 31.25 10.40625 36.1875 10.40625 
Q 41.15625 10.40625 43.625 13.59375 
Q 46.09375 16.796875 46.09375 23.1875 
Q 46.09375 29.59375 43.625 32.78125 
Q 41.15625 35.984375 36.1875 35.984375 
z
M 59.421875 71 
L 59.421875 57.515625 
Q 54.78125 59.71875 50.671875 60.765625 
Q 46.578125 61.8125 42.671875 61.8125 
Q 34.28125 61.8125 29.59375 57.140625 
Q 24.90625 52.484375 24.125 43.3125 
Q 27.34375 45.703125 31.09375 46.890625 
Q 34.859375 48.09375 39.3125 48.09375 
Q 50.484375 48.09375 57.34375 41.546875 
Q 64.203125 35.015625 64.203125 24.421875 
Q 64.203125 12.703125 56.53125 5.640625 
Q 48.875 -1.421875 35.984375 -1.421875 
Q 21.78125 -1.421875 13.984375 8.171875 
Q 6.203125 17.78125 6.203125 35.40625 
Q 6.203125 53.46875 15.3125 63.796875 
Q 24.421875 74.125 40.28125 74.125 
Q 45.3125 74.125 50.046875 73.34375 
Q 54.78125 72.5625 59.421875 71 
z
" id="DejaVuSans-Bold-54"/>
   </defs>
   <g transform="translate(179.383125 16.030125)scale(0.12 -0.12)">
    <use xlink:href="#DejaVuSans-Bold-84"/>
    <use x="68.009766" xlink:href="#DejaVuSans-Bold-101"/>
    <use x="135.832031" xlink:href="#DejaVuSans-Bold-115"/>
    <use x="195.353516" xlink:href="#DejaVuSans-Bold-116"/>
    <use x="243.15625" xlink:href="#DejaVuSans-Bold-32"/>
    <use x="277.970703" xlink:href="#DejaVuSans-Bold-110"/>
    <use x="349.162109" xlink:href="#DejaVuSans-Bold-117"/>
    <use x="420.353516" xlink:href="#DejaVuSans-Bold-109"/>
    <use x="524.552734" xlink:href="#DejaVuSans-Bold-109"/>
    <use x="628.751953" xlink:href="#DejaVuSans-Bold-101"/>
    <use x="696.574219" xlink:href="#DejaVuSans-Bold-114"/>
    <use x="745.890625" xlink:href="#DejaVuSans-Bold-32"/>
    <use x="780.705078" xlink:href="#DejaVuSans-Bold-54"/>
   </g>
  </g>
 </g>
 <defs>
  <clipPath id="pd565b15eb4">
   <rect height="98.56" width="357.12" x="57.6" y="41.472"/>
  </clipPath>
  <clipPath id="p092914ab22">
   <rect height="98.56" width="357.12" x="57.6" y="209.024"/>
  </clipPath>
 </defs>
</svg>
