<?xml version="1.0" encoding="utf-8" standalone="no"?>
<!DOCTYPE svg PUBLIC "-//W3C//DTD SVG 1.1//EN"
  "http://www.w3.org/Graphics/SVG/1.1/DTD/svg11.dtd">
<!-- Created with matplotlib (https://matplotlib.org/) -->
<svg height="345.6pt" version="1.1" viewBox="0 0 460.8 345.6" width="460.8pt" xmlns="http://www.w3.org/2000/svg" xmlns:xlink="http://www.w3.org/1999/xlink">
 <defs>
  <style type="text/css">
*{stroke-linecap:butt;stroke-linejoin:round;}
  </style>
 </defs>
 <g id="figure_1">
  <g id="patch_1">
   <path d="M 0 345.6 
L 460.8 345.6 
L 460.8 0 
L 0 0 
z
" style="fill:#ffffff;"/>
  </g>
  <g id="axes_1">
   <g id="patch_2">
    <path d="M 57.6 140.032 
L 414.72 140.032 
L 414.72 41.472 
L 57.6 41.472 
z
" style="fill:#ffffff;"/>
   </g>
   <g id="matplotlib.axis_1">
    <g id="xtick_1">
     <g id="line2d_1">
      <path clip-path="url(#p0494314b19)" d="M 73.814288 140.032 
L 73.814288 41.472 
" style="fill:none;stroke:#b0b0b0;stroke-linecap:square;stroke-width:0.8;"/>
     </g>
     <g id="line2d_2">
      <defs>
       <path d="M 0 0 
L 0 3.5 
" id="m0e693ca617" style="stroke:#000000;stroke-width:0.8;"/>
      </defs>
      <g>
       <use style="stroke:#000000;stroke-width:0.8;" x="73.814288" xlink:href="#m0e693ca617" y="140.032"/>
      </g>
     </g>
     <g id="text_1">
      <!-- 0 -->
      <defs>
       <path d="M 31.78125 66.40625 
Q 24.171875 66.40625 20.328125 58.90625 
Q 16.5 51.421875 16.5 36.375 
Q 16.5 21.390625 20.328125 13.890625 
Q 24.171875 6.390625 31.78125 6.390625 
Q 39.453125 6.390625 43.28125 13.890625 
Q 47.125 21.390625 47.125 36.375 
Q 47.125 51.421875 43.28125 58.90625 
Q 39.453125 66.40625 31.78125 66.40625 
z
M 31.78125 74.21875 
Q 44.046875 74.21875 50.515625 64.515625 
Q 56.984375 54.828125 56.984375 36.375 
Q 56.984375 17.96875 50.515625 8.265625 
Q 44.046875 -1.421875 31.78125 -1.421875 
Q 19.53125 -1.421875 13.0625 8.265625 
Q 6.59375 17.96875 6.59375 36.375 
Q 6.59375 54.828125 13.0625 64.515625 
Q 19.53125 74.21875 31.78125 74.21875 
z
" id="DejaVuSans-48"/>
      </defs>
      <g transform="translate(70.633038 154.630437)scale(0.1 -0.1)">
       <use xlink:href="#DejaVuSans-48"/>
      </g>
     </g>
    </g>
    <g id="xtick_2">
     <g id="line2d_3">
      <path clip-path="url(#p0494314b19)" d="M 114.791536 140.032 
L 114.791536 41.472 
" style="fill:none;stroke:#b0b0b0;stroke-linecap:square;stroke-width:0.8;"/>
     </g>
     <g id="line2d_4">
      <g>
       <use style="stroke:#000000;stroke-width:0.8;" x="114.791536" xlink:href="#m0e693ca617" y="140.032"/>
      </g>
     </g>
     <g id="text_2">
      <!-- 20 -->
      <defs>
       <path d="M 19.1875 8.296875 
L 53.609375 8.296875 
L 53.609375 0 
L 7.328125 0 
L 7.328125 8.296875 
Q 12.9375 14.109375 22.625 23.890625 
Q 32.328125 33.6875 34.8125 36.53125 
Q 39.546875 41.84375 41.421875 45.53125 
Q 43.3125 49.21875 43.3125 52.78125 
Q 43.3125 58.59375 39.234375 62.25 
Q 35.15625 65.921875 28.609375 65.921875 
Q 23.96875 65.921875 18.8125 64.3125 
Q 13.671875 62.703125 7.8125 59.421875 
L 7.8125 69.390625 
Q 13.765625 71.78125 18.9375 73 
Q 24.125 74.21875 28.421875 74.21875 
Q 39.75 74.21875 46.484375 68.546875 
Q 53.21875 62.890625 53.21875 53.421875 
Q 53.21875 48.921875 51.53125 44.890625 
Q 49.859375 40.875 45.40625 35.40625 
Q 44.1875 33.984375 37.640625 27.21875 
Q 31.109375 20.453125 19.1875 8.296875 
z
" id="DejaVuSans-50"/>
      </defs>
      <g transform="translate(108.429036 154.630437)scale(0.1 -0.1)">
       <use xlink:href="#DejaVuSans-50"/>
       <use x="63.623047" xlink:href="#DejaVuSans-48"/>
      </g>
     </g>
    </g>
    <g id="xtick_3">
     <g id="line2d_5">
      <path clip-path="url(#p0494314b19)" d="M 155.768785 140.032 
L 155.768785 41.472 
" style="fill:none;stroke:#b0b0b0;stroke-linecap:square;stroke-width:0.8;"/>
     </g>
     <g id="line2d_6">
      <g>
       <use style="stroke:#000000;stroke-width:0.8;" x="155.768785" xlink:href="#m0e693ca617" y="140.032"/>
      </g>
     </g>
     <g id="text_3">
      <!-- 40 -->
      <defs>
       <path d="M 37.796875 64.3125 
L 12.890625 25.390625 
L 37.796875 25.390625 
z
M 35.203125 72.90625 
L 47.609375 72.90625 
L 47.609375 25.390625 
L 58.015625 25.390625 
L 58.015625 17.1875 
L 47.609375 17.1875 
L 47.609375 0 
L 37.796875 0 
L 37.796875 17.1875 
L 4.890625 17.1875 
L 4.890625 26.703125 
z
" id="DejaVuSans-52"/>
      </defs>
      <g transform="translate(149.406285 154.630437)scale(0.1 -0.1)">
       <use xlink:href="#DejaVuSans-52"/>
       <use x="63.623047" xlink:href="#DejaVuSans-48"/>
      </g>
     </g>
    </g>
    <g id="xtick_4">
     <g id="line2d_7">
      <path clip-path="url(#p0494314b19)" d="M 196.746033 140.032 
L 196.746033 41.472 
" style="fill:none;stroke:#b0b0b0;stroke-linecap:square;stroke-width:0.8;"/>
     </g>
     <g id="line2d_8">
      <g>
       <use style="stroke:#000000;stroke-width:0.8;" x="196.746033" xlink:href="#m0e693ca617" y="140.032"/>
      </g>
     </g>
     <g id="text_4">
      <!-- 60 -->
      <defs>
       <path d="M 33.015625 40.375 
Q 26.375 40.375 22.484375 35.828125 
Q 18.609375 31.296875 18.609375 23.390625 
Q 18.609375 15.53125 22.484375 10.953125 
Q 26.375 6.390625 33.015625 6.390625 
Q 39.65625 6.390625 43.53125 10.953125 
Q 47.40625 15.53125 47.40625 23.390625 
Q 47.40625 31.296875 43.53125 35.828125 
Q 39.65625 40.375 33.015625 40.375 
z
M 52.59375 71.296875 
L 52.59375 62.3125 
Q 48.875 64.0625 45.09375 64.984375 
Q 41.3125 65.921875 37.59375 65.921875 
Q 27.828125 65.921875 22.671875 59.328125 
Q 17.53125 52.734375 16.796875 39.40625 
Q 19.671875 43.65625 24.015625 45.921875 
Q 28.375 48.1875 33.59375 48.1875 
Q 44.578125 48.1875 50.953125 41.515625 
Q 57.328125 34.859375 57.328125 23.390625 
Q 57.328125 12.15625 50.6875 5.359375 
Q 44.046875 -1.421875 33.015625 -1.421875 
Q 20.359375 -1.421875 13.671875 8.265625 
Q 6.984375 17.96875 6.984375 36.375 
Q 6.984375 53.65625 15.1875 63.9375 
Q 23.390625 74.21875 37.203125 74.21875 
Q 40.921875 74.21875 44.703125 73.484375 
Q 48.484375 72.75 52.59375 71.296875 
z
" id="DejaVuSans-54"/>
      </defs>
      <g transform="translate(190.383533 154.630437)scale(0.1 -0.1)">
       <use xlink:href="#DejaVuSans-54"/>
       <use x="63.623047" xlink:href="#DejaVuSans-48"/>
      </g>
     </g>
    </g>
    <g id="xtick_5">
     <g id="line2d_9">
      <path clip-path="url(#p0494314b19)" d="M 237.723282 140.032 
L 237.723282 41.472 
" style="fill:none;stroke:#b0b0b0;stroke-linecap:square;stroke-width:0.8;"/>
     </g>
     <g id="line2d_10">
      <g>
       <use style="stroke:#000000;stroke-width:0.8;" x="237.723282" xlink:href="#m0e693ca617" y="140.032"/>
      </g>
     </g>
     <g id="text_5">
      <!-- 80 -->
      <defs>
       <path d="M 31.78125 34.625 
Q 24.75 34.625 20.71875 30.859375 
Q 16.703125 27.09375 16.703125 20.515625 
Q 16.703125 13.921875 20.71875 10.15625 
Q 24.75 6.390625 31.78125 6.390625 
Q 38.8125 6.390625 42.859375 10.171875 
Q 46.921875 13.96875 46.921875 20.515625 
Q 46.921875 27.09375 42.890625 30.859375 
Q 38.875 34.625 31.78125 34.625 
z
M 21.921875 38.8125 
Q 15.578125 40.375 12.03125 44.71875 
Q 8.5 49.078125 8.5 55.328125 
Q 8.5 64.0625 14.71875 69.140625 
Q 20.953125 74.21875 31.78125 74.21875 
Q 42.671875 74.21875 48.875 69.140625 
Q 55.078125 64.0625 55.078125 55.328125 
Q 55.078125 49.078125 51.53125 44.71875 
Q 48 40.375 41.703125 38.8125 
Q 48.828125 37.15625 52.796875 32.3125 
Q 56.78125 27.484375 56.78125 20.515625 
Q 56.78125 9.90625 50.3125 4.234375 
Q 43.84375 -1.421875 31.78125 -1.421875 
Q 19.734375 -1.421875 13.25 4.234375 
Q 6.78125 9.90625 6.78125 20.515625 
Q 6.78125 27.484375 10.78125 32.3125 
Q 14.796875 37.15625 21.921875 38.8125 
z
M 18.3125 54.390625 
Q 18.3125 48.734375 21.84375 45.5625 
Q 25.390625 42.390625 31.78125 42.390625 
Q 38.140625 42.390625 41.71875 45.5625 
Q 45.3125 48.734375 45.3125 54.390625 
Q 45.3125 60.0625 41.71875 63.234375 
Q 38.140625 66.40625 31.78125 66.40625 
Q 25.390625 66.40625 21.84375 63.234375 
Q 18.3125 60.0625 18.3125 54.390625 
z
" id="DejaVuSans-56"/>
      </defs>
      <g transform="translate(231.360782 154.630437)scale(0.1 -0.1)">
       <use xlink:href="#DejaVuSans-56"/>
       <use x="63.623047" xlink:href="#DejaVuSans-48"/>
      </g>
     </g>
    </g>
    <g id="xtick_6">
     <g id="line2d_11">
      <path clip-path="url(#p0494314b19)" d="M 278.700531 140.032 
L 278.700531 41.472 
" style="fill:none;stroke:#b0b0b0;stroke-linecap:square;stroke-width:0.8;"/>
     </g>
     <g id="line2d_12">
      <g>
       <use style="stroke:#000000;stroke-width:0.8;" x="278.700531" xlink:href="#m0e693ca617" y="140.032"/>
      </g>
     </g>
     <g id="text_6">
      <!-- 100 -->
      <defs>
       <path d="M 12.40625 8.296875 
L 28.515625 8.296875 
L 28.515625 63.921875 
L 10.984375 60.40625 
L 10.984375 69.390625 
L 28.421875 72.90625 
L 38.28125 72.90625 
L 38.28125 8.296875 
L 54.390625 8.296875 
L 54.390625 0 
L 12.40625 0 
z
" id="DejaVuSans-49"/>
      </defs>
      <g transform="translate(269.156781 154.630437)scale(0.1 -0.1)">
       <use xlink:href="#DejaVuSans-49"/>
       <use x="63.623047" xlink:href="#DejaVuSans-48"/>
       <use x="127.246094" xlink:href="#DejaVuSans-48"/>
      </g>
     </g>
    </g>
    <g id="xtick_7">
     <g id="line2d_13">
      <path clip-path="url(#p0494314b19)" d="M 319.677779 140.032 
L 319.677779 41.472 
" style="fill:none;stroke:#b0b0b0;stroke-linecap:square;stroke-width:0.8;"/>
     </g>
     <g id="line2d_14">
      <g>
       <use style="stroke:#000000;stroke-width:0.8;" x="319.677779" xlink:href="#m0e693ca617" y="140.032"/>
      </g>
     </g>
     <g id="text_7">
      <!-- 120 -->
      <g transform="translate(310.134029 154.630437)scale(0.1 -0.1)">
       <use xlink:href="#DejaVuSans-49"/>
       <use x="63.623047" xlink:href="#DejaVuSans-50"/>
       <use x="127.246094" xlink:href="#DejaVuSans-48"/>
      </g>
     </g>
    </g>
    <g id="xtick_8">
     <g id="line2d_15">
      <path clip-path="url(#p0494314b19)" d="M 360.655028 140.032 
L 360.655028 41.472 
" style="fill:none;stroke:#b0b0b0;stroke-linecap:square;stroke-width:0.8;"/>
     </g>
     <g id="line2d_16">
      <g>
       <use style="stroke:#000000;stroke-width:0.8;" x="360.655028" xlink:href="#m0e693ca617" y="140.032"/>
      </g>
     </g>
     <g id="text_8">
      <!-- 140 -->
      <g transform="translate(351.111278 154.630437)scale(0.1 -0.1)">
       <use xlink:href="#DejaVuSans-49"/>
       <use x="63.623047" xlink:href="#DejaVuSans-52"/>
       <use x="127.246094" xlink:href="#DejaVuSans-48"/>
      </g>
     </g>
    </g>
    <g id="xtick_9">
     <g id="line2d_17">
      <path clip-path="url(#p0494314b19)" d="M 401.632277 140.032 
L 401.632277 41.472 
" style="fill:none;stroke:#b0b0b0;stroke-linecap:square;stroke-width:0.8;"/>
     </g>
     <g id="line2d_18">
      <g>
       <use style="stroke:#000000;stroke-width:0.8;" x="401.632277" xlink:href="#m0e693ca617" y="140.032"/>
      </g>
     </g>
     <g id="text_9">
      <!-- 160 -->
      <g transform="translate(392.088527 154.630437)scale(0.1 -0.1)">
       <use xlink:href="#DejaVuSans-49"/>
       <use x="63.623047" xlink:href="#DejaVuSans-54"/>
       <use x="127.246094" xlink:href="#DejaVuSans-48"/>
      </g>
     </g>
    </g>
    <g id="text_10">
     <!-- Tid [s] -->
     <defs>
      <path d="M -0.296875 72.90625 
L 61.375 72.90625 
L 61.375 64.59375 
L 35.5 64.59375 
L 35.5 0 
L 25.59375 0 
L 25.59375 64.59375 
L -0.296875 64.59375 
z
" id="DejaVuSans-84"/>
      <path d="M 9.421875 54.6875 
L 18.40625 54.6875 
L 18.40625 0 
L 9.421875 0 
z
M 9.421875 75.984375 
L 18.40625 75.984375 
L 18.40625 64.59375 
L 9.421875 64.59375 
z
" id="DejaVuSans-105"/>
      <path d="M 45.40625 46.390625 
L 45.40625 75.984375 
L 54.390625 75.984375 
L 54.390625 0 
L 45.40625 0 
L 45.40625 8.203125 
Q 42.578125 3.328125 38.25 0.953125 
Q 33.9375 -1.421875 27.875 -1.421875 
Q 17.96875 -1.421875 11.734375 6.484375 
Q 5.515625 14.40625 5.515625 27.296875 
Q 5.515625 40.1875 11.734375 48.09375 
Q 17.96875 56 27.875 56 
Q 33.9375 56 38.25 53.625 
Q 42.578125 51.265625 45.40625 46.390625 
z
M 14.796875 27.296875 
Q 14.796875 17.390625 18.875 11.75 
Q 22.953125 6.109375 30.078125 6.109375 
Q 37.203125 6.109375 41.296875 11.75 
Q 45.40625 17.390625 45.40625 27.296875 
Q 45.40625 37.203125 41.296875 42.84375 
Q 37.203125 48.484375 30.078125 48.484375 
Q 22.953125 48.484375 18.875 42.84375 
Q 14.796875 37.203125 14.796875 27.296875 
z
" id="DejaVuSans-100"/>
      <path id="DejaVuSans-32"/>
      <path d="M 8.59375 75.984375 
L 29.296875 75.984375 
L 29.296875 69 
L 17.578125 69 
L 17.578125 -6.203125 
L 29.296875 -6.203125 
L 29.296875 -13.1875 
L 8.59375 -13.1875 
z
" id="DejaVuSans-91"/>
      <path d="M 44.28125 53.078125 
L 44.28125 44.578125 
Q 40.484375 46.53125 36.375 47.5 
Q 32.28125 48.484375 27.875 48.484375 
Q 21.1875 48.484375 17.84375 46.4375 
Q 14.5 44.390625 14.5 40.28125 
Q 14.5 37.15625 16.890625 35.375 
Q 19.28125 33.59375 26.515625 31.984375 
L 29.59375 31.296875 
Q 39.15625 29.25 43.1875 25.515625 
Q 47.21875 21.78125 47.21875 15.09375 
Q 47.21875 7.46875 41.1875 3.015625 
Q 35.15625 -1.421875 24.609375 -1.421875 
Q 20.21875 -1.421875 15.453125 -0.5625 
Q 10.6875 0.296875 5.421875 2 
L 5.421875 11.28125 
Q 10.40625 8.6875 15.234375 7.390625 
Q 20.0625 6.109375 24.8125 6.109375 
Q 31.15625 6.109375 34.5625 8.28125 
Q 37.984375 10.453125 37.984375 14.40625 
Q 37.984375 18.0625 35.515625 20.015625 
Q 33.0625 21.96875 24.703125 23.78125 
L 21.578125 24.515625 
Q 13.234375 26.265625 9.515625 29.90625 
Q 5.8125 33.546875 5.8125 39.890625 
Q 5.8125 47.609375 11.28125 51.796875 
Q 16.75 56 26.8125 56 
Q 31.78125 56 36.171875 55.265625 
Q 40.578125 54.546875 44.28125 53.078125 
z
" id="DejaVuSans-115"/>
      <path d="M 30.421875 75.984375 
L 30.421875 -13.1875 
L 9.71875 -13.1875 
L 9.71875 -6.203125 
L 21.390625 -6.203125 
L 21.390625 69 
L 9.71875 69 
L 9.71875 75.984375 
z
" id="DejaVuSans-93"/>
     </defs>
     <g transform="translate(220.449844 168.308562)scale(0.1 -0.1)">
      <use xlink:href="#DejaVuSans-84"/>
      <use x="61.037109" xlink:href="#DejaVuSans-105"/>
      <use x="88.820312" xlink:href="#DejaVuSans-100"/>
      <use x="152.296875" xlink:href="#DejaVuSans-32"/>
      <use x="184.083984" xlink:href="#DejaVuSans-91"/>
      <use x="223.097656" xlink:href="#DejaVuSans-115"/>
      <use x="275.197266" xlink:href="#DejaVuSans-93"/>
     </g>
    </g>
   </g>
   <g id="matplotlib.axis_2">
    <g id="ytick_1">
     <g id="line2d_19">
      <path clip-path="url(#p0494314b19)" d="M 57.6 135.552 
L 414.72 135.552 
" style="fill:none;stroke:#b0b0b0;stroke-linecap:square;stroke-width:0.8;"/>
     </g>
     <g id="line2d_20">
      <defs>
       <path d="M 0 0 
L -3.5 0 
" id="mb03d58cb15" style="stroke:#000000;stroke-width:0.8;"/>
      </defs>
      <g>
       <use style="stroke:#000000;stroke-width:0.8;" x="57.6" xlink:href="#mb03d58cb15" y="135.552"/>
      </g>
     </g>
     <g id="text_11">
      <!-- 0 -->
      <g transform="translate(44.2375 139.351219)scale(0.1 -0.1)">
       <use xlink:href="#DejaVuSans-48"/>
      </g>
     </g>
    </g>
    <g id="ytick_2">
     <g id="line2d_21">
      <path clip-path="url(#p0494314b19)" d="M 57.6 97.957594 
L 414.72 97.957594 
" style="fill:none;stroke:#b0b0b0;stroke-linecap:square;stroke-width:0.8;"/>
     </g>
     <g id="line2d_22">
      <g>
       <use style="stroke:#000000;stroke-width:0.8;" x="57.6" xlink:href="#mb03d58cb15" y="97.957594"/>
      </g>
     </g>
     <g id="text_12">
      <!-- 1 -->
      <g transform="translate(44.2375 101.756813)scale(0.1 -0.1)">
       <use xlink:href="#DejaVuSans-49"/>
      </g>
     </g>
    </g>
    <g id="ytick_3">
     <g id="line2d_23">
      <path clip-path="url(#p0494314b19)" d="M 57.6 60.363189 
L 414.72 60.363189 
" style="fill:none;stroke:#b0b0b0;stroke-linecap:square;stroke-width:0.8;"/>
     </g>
     <g id="line2d_24">
      <g>
       <use style="stroke:#000000;stroke-width:0.8;" x="57.6" xlink:href="#mb03d58cb15" y="60.363189"/>
      </g>
     </g>
     <g id="text_13">
      <!-- 2 -->
      <g transform="translate(44.2375 64.162408)scale(0.1 -0.1)">
       <use xlink:href="#DejaVuSans-50"/>
      </g>
     </g>
    </g>
    <g id="text_14">
     <!-- Hastighet [m/s] -->
     <defs>
      <path d="M 9.8125 72.90625 
L 19.671875 72.90625 
L 19.671875 43.015625 
L 55.515625 43.015625 
L 55.515625 72.90625 
L 65.375 72.90625 
L 65.375 0 
L 55.515625 0 
L 55.515625 34.71875 
L 19.671875 34.71875 
L 19.671875 0 
L 9.8125 0 
z
" id="DejaVuSans-72"/>
      <path d="M 34.28125 27.484375 
Q 23.390625 27.484375 19.1875 25 
Q 14.984375 22.515625 14.984375 16.5 
Q 14.984375 11.71875 18.140625 8.90625 
Q 21.296875 6.109375 26.703125 6.109375 
Q 34.1875 6.109375 38.703125 11.40625 
Q 43.21875 16.703125 43.21875 25.484375 
L 43.21875 27.484375 
z
M 52.203125 31.203125 
L 52.203125 0 
L 43.21875 0 
L 43.21875 8.296875 
Q 40.140625 3.328125 35.546875 0.953125 
Q 30.953125 -1.421875 24.3125 -1.421875 
Q 15.921875 -1.421875 10.953125 3.296875 
Q 6 8.015625 6 15.921875 
Q 6 25.140625 12.171875 29.828125 
Q 18.359375 34.515625 30.609375 34.515625 
L 43.21875 34.515625 
L 43.21875 35.40625 
Q 43.21875 41.609375 39.140625 45 
Q 35.0625 48.390625 27.6875 48.390625 
Q 23 48.390625 18.546875 47.265625 
Q 14.109375 46.140625 10.015625 43.890625 
L 10.015625 52.203125 
Q 14.9375 54.109375 19.578125 55.046875 
Q 24.21875 56 28.609375 56 
Q 40.484375 56 46.34375 49.84375 
Q 52.203125 43.703125 52.203125 31.203125 
z
" id="DejaVuSans-97"/>
      <path d="M 18.3125 70.21875 
L 18.3125 54.6875 
L 36.8125 54.6875 
L 36.8125 47.703125 
L 18.3125 47.703125 
L 18.3125 18.015625 
Q 18.3125 11.328125 20.140625 9.421875 
Q 21.96875 7.515625 27.59375 7.515625 
L 36.8125 7.515625 
L 36.8125 0 
L 27.59375 0 
Q 17.1875 0 13.234375 3.875 
Q 9.28125 7.765625 9.28125 18.015625 
L 9.28125 47.703125 
L 2.6875 47.703125 
L 2.6875 54.6875 
L 9.28125 54.6875 
L 9.28125 70.21875 
z
" id="DejaVuSans-116"/>
      <path d="M 45.40625 27.984375 
Q 45.40625 37.75 41.375 43.109375 
Q 37.359375 48.484375 30.078125 48.484375 
Q 22.859375 48.484375 18.828125 43.109375 
Q 14.796875 37.75 14.796875 27.984375 
Q 14.796875 18.265625 18.828125 12.890625 
Q 22.859375 7.515625 30.078125 7.515625 
Q 37.359375 7.515625 41.375 12.890625 
Q 45.40625 18.265625 45.40625 27.984375 
z
M 54.390625 6.78125 
Q 54.390625 -7.171875 48.1875 -13.984375 
Q 42 -20.796875 29.203125 -20.796875 
Q 24.46875 -20.796875 20.265625 -20.09375 
Q 16.0625 -19.390625 12.109375 -17.921875 
L 12.109375 -9.1875 
Q 16.0625 -11.328125 19.921875 -12.34375 
Q 23.78125 -13.375 27.78125 -13.375 
Q 36.625 -13.375 41.015625 -8.765625 
Q 45.40625 -4.15625 45.40625 5.171875 
L 45.40625 9.625 
Q 42.625 4.78125 38.28125 2.390625 
Q 33.9375 0 27.875 0 
Q 17.828125 0 11.671875 7.65625 
Q 5.515625 15.328125 5.515625 27.984375 
Q 5.515625 40.671875 11.671875 48.328125 
Q 17.828125 56 27.875 56 
Q 33.9375 56 38.28125 53.609375 
Q 42.625 51.21875 45.40625 46.390625 
L 45.40625 54.6875 
L 54.390625 54.6875 
z
" id="DejaVuSans-103"/>
      <path d="M 54.890625 33.015625 
L 54.890625 0 
L 45.90625 0 
L 45.90625 32.71875 
Q 45.90625 40.484375 42.875 44.328125 
Q 39.84375 48.1875 33.796875 48.1875 
Q 26.515625 48.1875 22.3125 43.546875 
Q 18.109375 38.921875 18.109375 30.90625 
L 18.109375 0 
L 9.078125 0 
L 9.078125 75.984375 
L 18.109375 75.984375 
L 18.109375 46.1875 
Q 21.34375 51.125 25.703125 53.5625 
Q 30.078125 56 35.796875 56 
Q 45.21875 56 50.046875 50.171875 
Q 54.890625 44.34375 54.890625 33.015625 
z
" id="DejaVuSans-104"/>
      <path d="M 56.203125 29.59375 
L 56.203125 25.203125 
L 14.890625 25.203125 
Q 15.484375 15.921875 20.484375 11.0625 
Q 25.484375 6.203125 34.421875 6.203125 
Q 39.59375 6.203125 44.453125 7.46875 
Q 49.3125 8.734375 54.109375 11.28125 
L 54.109375 2.78125 
Q 49.265625 0.734375 44.1875 -0.34375 
Q 39.109375 -1.421875 33.890625 -1.421875 
Q 20.796875 -1.421875 13.15625 6.1875 
Q 5.515625 13.8125 5.515625 26.8125 
Q 5.515625 40.234375 12.765625 48.109375 
Q 20.015625 56 32.328125 56 
Q 43.359375 56 49.78125 48.890625 
Q 56.203125 41.796875 56.203125 29.59375 
z
M 47.21875 32.234375 
Q 47.125 39.59375 43.09375 43.984375 
Q 39.0625 48.390625 32.421875 48.390625 
Q 24.90625 48.390625 20.390625 44.140625 
Q 15.875 39.890625 15.1875 32.171875 
z
" id="DejaVuSans-101"/>
      <path d="M 52 44.1875 
Q 55.375 50.25 60.0625 53.125 
Q 64.75 56 71.09375 56 
Q 79.640625 56 84.28125 50.015625 
Q 88.921875 44.046875 88.921875 33.015625 
L 88.921875 0 
L 79.890625 0 
L 79.890625 32.71875 
Q 79.890625 40.578125 77.09375 44.375 
Q 74.3125 48.1875 68.609375 48.1875 
Q 61.625 48.1875 57.5625 43.546875 
Q 53.515625 38.921875 53.515625 30.90625 
L 53.515625 0 
L 44.484375 0 
L 44.484375 32.71875 
Q 44.484375 40.625 41.703125 44.40625 
Q 38.921875 48.1875 33.109375 48.1875 
Q 26.21875 48.1875 22.15625 43.53125 
Q 18.109375 38.875 18.109375 30.90625 
L 18.109375 0 
L 9.078125 0 
L 9.078125 54.6875 
L 18.109375 54.6875 
L 18.109375 46.1875 
Q 21.1875 51.21875 25.484375 53.609375 
Q 29.78125 56 35.6875 56 
Q 41.65625 56 45.828125 52.96875 
Q 50 49.953125 52 44.1875 
z
" id="DejaVuSans-109"/>
      <path d="M 25.390625 72.90625 
L 33.6875 72.90625 
L 8.296875 -9.28125 
L 0 -9.28125 
z
" id="DejaVuSans-47"/>
     </defs>
     <g transform="translate(38.157812 129.559812)rotate(-90)scale(0.1 -0.1)">
      <use xlink:href="#DejaVuSans-72"/>
      <use x="75.195312" xlink:href="#DejaVuSans-97"/>
      <use x="136.474609" xlink:href="#DejaVuSans-115"/>
      <use x="188.574219" xlink:href="#DejaVuSans-116"/>
      <use x="227.783203" xlink:href="#DejaVuSans-105"/>
      <use x="255.566406" xlink:href="#DejaVuSans-103"/>
      <use x="319.042969" xlink:href="#DejaVuSans-104"/>
      <use x="382.421875" xlink:href="#DejaVuSans-101"/>
      <use x="443.945312" xlink:href="#DejaVuSans-116"/>
      <use x="483.154297" xlink:href="#DejaVuSans-32"/>
      <use x="514.941406" xlink:href="#DejaVuSans-91"/>
      <use x="553.955078" xlink:href="#DejaVuSans-109"/>
      <use x="651.367188" xlink:href="#DejaVuSans-47"/>
      <use x="685.058594" xlink:href="#DejaVuSans-115"/>
      <use x="737.158203" xlink:href="#DejaVuSans-93"/>
     </g>
    </g>
   </g>
   <g id="line2d_25">
    <path clip-path="url(#p0494314b19)" d="M 73.832727 135.552 
L 75.768902 135.552 
L 75.932811 133.254564 
L 76.422489 133.254564 
L 76.586398 128.346406 
L 76.752356 128.346406 
L 76.916265 123.751534 
L 77.080174 123.751534 
L 77.244083 120.931953 
L 77.407992 120.931953 
L 77.73581 117.068084 
L 77.899719 117.068084 
L 78.393495 113.204214 
L 78.725411 111.74221 
L 78.893417 111.74221 
L 79.063473 110.697921 
L 79.229431 110.384634 
L 79.397438 109.549203 
L 79.565444 109.758061 
L 79.7355 108.191627 
L 79.903507 108.191627 
L 80.407527 105.267618 
L 80.577582 104.849902 
L 80.745589 103.596755 
L 80.913596 103.596755 
L 81.251658 102.134751 
L 81.419665 100.046172 
L 81.585623 100.568317 
L 81.753629 98.793026 
L 81.923685 99.419599 
L 82.259698 96.913305 
L 82.427705 96.913305 
L 82.597761 97.539879 
L 82.765767 95.55573 
L 82.933774 95.55573 
L 83.101781 94.824727 
L 83.269788 94.824727 
L 83.439843 94.093725 
L 83.60785 94.093725 
L 83.773808 92.527291 
L 84.11187 92.527291 
L 84.279877 90.752 
L 84.447884 90.752 
L 84.61589 89.81214 
L 84.785946 87.93242 
L 85.289966 87.93242 
L 85.457973 86.888131 
L 85.628028 87.93242 
L 85.796035 85.739413 
L 86.13 85.739413 
L 86.300055 84.695124 
L 86.468062 84.695124 
L 86.636069 83.441977 
L 86.974131 83.441977 
L 87.142138 82.18883 
L 87.310144 82.18883 
L 87.478151 79.578107 
L 87.648207 79.578107 
L 87.816213 80.935683 
L 87.98422 79.578107 
L 88.152227 79.578107 
L 88.318185 78.116103 
L 88.660345 80.935683 
L 88.832449 78.116103 
L 89.006602 79.578107 
L 89.178707 76.654098 
L 89.350811 78.116103 
L 89.697069 78.116103 
L 89.869174 74.983235 
L 90.041278 76.654098 
L 90.387536 76.654098 
L 90.55964 73.312373 
L 90.903849 76.654098 
L 91.078002 73.312373 
L 91.422211 73.312373 
L 91.594316 71.537082 
L 91.768469 73.312373 
L 91.940573 71.537082 
L 92.112678 71.537082 
L 92.286831 73.312373 
L 92.458936 69.657361 
L 92.63104 71.537082 
L 92.803145 69.657361 
L 92.977298 71.537082 
L 93.149402 69.657361 
L 93.321507 71.537082 
L 93.493611 69.657361 
L 94.011973 69.657361 
L 94.184078 67.673212 
L 94.358231 67.673212 
L 94.532384 65.584634 
L 94.704489 67.673212 
L 95.056893 63.287198 
L 95.228998 67.673212 
L 95.403151 65.584634 
L 95.581402 67.673212 
L 95.753506 65.584634 
L 95.92766 60.885333 
L 96.105911 63.287198 
L 96.278015 63.287198 
L 96.452169 65.584634 
L 96.626322 60.885333 
L 96.976677 65.584634 
L 97.150831 63.287198 
L 97.327033 65.584634 
L 97.501186 63.287198 
L 97.675339 63.287198 
L 97.849493 60.885333 
L 98.025695 65.584634 
L 98.199848 63.287198 
L 98.374001 63.287198 
L 98.548155 60.885333 
L 98.724357 63.287198 
L 99.072664 63.287198 
L 99.248866 60.885333 
L 99.597172 60.885333 
L 99.771326 63.287198 
L 99.947528 63.287198 
L 100.295834 58.274611 
L 100.64619 58.274611 
L 100.820343 60.885333 
L 101.344852 60.885333 
L 101.519005 58.274611 
L 103.092532 58.274611 
L 103.266685 55.559459 
L 103.61704 55.559459 
L 103.791194 58.274611 
L 103.965347 58.274611 
L 104.1395 55.559459 
L 104.664009 55.559459 
L 105.014365 49.398154 
L 105.188518 52.63545 
L 105.362671 52.63545 
L 105.538873 55.559459 
L 106.063382 55.559459 
L 106.411689 49.398154 
L 106.585842 52.63545 
L 107.460706 52.63545 
L 107.63486 49.398154 
L 107.809013 52.63545 
L 107.985215 52.63545 
L 108.159368 49.398154 
L 108.333522 49.398154 
L 108.683877 55.559459 
L 108.858031 55.559459 
L 109.032184 58.274611 
L 109.730846 58.274611 
L 109.907048 60.885333 
L 110.779864 60.885333 
L 111.130219 67.673212 
L 111.654728 67.673212 
L 111.828881 69.657361 
L 112.003034 69.657361 
L 113.226205 83.441977 
L 113.400359 83.441977 
L 113.576561 86.888131 
L 113.750714 87.93242 
L 114.449376 98.793026 
L 114.623529 100.046172 
L 114.799732 102.134751 
L 115.148038 108.191627 
L 115.322192 110.697921 
L 115.498394 110.697921 
L 115.672547 117.4858 
L 116.197056 117.4858 
L 116.371209 135.552 
L 294.784101 135.552 
L 294.962352 135.343142 
L 296.023663 135.343142 
L 296.199865 131.374844 
L 296.732569 131.374844 
L 296.908771 129.077408 
L 297.084973 129.077408 
L 297.263224 126.04897 
L 297.615629 126.04897 
L 297.79388 124.064821 
L 297.970082 124.064821 
L 298.322486 121.454098 
L 298.500737 121.454098 
L 298.676939 120.618667 
L 299.207595 120.723096 
L 299.383797 120.30538 
L 299.559999 120.514238 
L 299.73825 120.514238 
L 299.914452 119.887664 
L 300.090654 119.887664 
L 300.268905 119.574378 
L 300.975763 119.678807 
L 301.151965 119.992093 
L 301.328167 119.574378 
L 301.506418 119.574378 
L 301.682621 119.36552 
L 301.858823 118.007944 
L 302.037074 118.007944 
L 302.213276 117.172513 
L 302.567729 117.068084 
L 302.743931 117.172513 
L 303.096336 116.545939 
L 303.274587 116.545939 
L 303.450789 115.919366 
L 303.805242 113.62193 
L 303.981444 113.204214 
L 304.514148 109.235916 
L 304.690351 109.549203 
L 305.044804 108.922629 
L 305.221006 108.922629 
L 305.575459 108.191627 
L 305.751661 108.609343 
L 305.927864 107.565054 
L 306.104066 107.87834 
L 306.282317 107.565054 
L 306.458519 106.834051 
L 306.634721 106.834051 
L 306.812972 106.103049 
L 306.989174 106.103049 
L 307.165376 104.014471 
L 307.51983 104.014471 
L 307.696032 104.432186 
L 307.872234 104.014471 
L 308.050485 104.014471 
L 308.226687 104.432186 
L 308.58114 103.596755 
L 308.757343 102.134751 
L 308.933545 102.656895 
L 309.111796 101.090462 
L 309.287998 100.568317 
L 309.4642 101.090462 
L 309.818653 98.793026 
L 309.994855 100.046172 
L 310.171058 99.419599 
L 310.349309 100.046172 
L 310.525511 100.046172 
L 310.701713 100.568317 
L 310.877915 100.046172 
L 311.056166 100.046172 
L 311.408571 101.090462 
L 311.586822 101.090462 
L 311.763024 102.134751 
L 312.119526 100.568317 
L 312.295728 101.090462 
L 312.648132 100.046172 
L 312.826383 100.046172 
L 313.002585 99.419599 
L 313.178788 100.568317 
L 313.357039 100.568317 
L 313.533241 100.046172 
L 313.709443 100.046172 
L 314.063896 101.090462 
L 314.240098 100.568317 
L 314.416301 100.568317 
L 314.594552 100.046172 
L 314.770754 100.568317 
L 314.946956 100.568317 
L 315.301409 99.419599 
L 315.477611 100.568317 
L 315.832065 100.568317 
L 316.184469 102.134751 
L 316.36272 102.134751 
L 316.538922 103.074611 
L 316.715124 103.074611 
L 316.893375 102.656895 
L 317.069577 102.656895 
L 317.421982 104.014471 
L 317.776435 104.849902 
L 317.952637 104.432186 
L 318.130888 105.267618 
L 318.30709 104.014471 
L 318.661544 103.074611 
L 318.837746 103.074611 
L 319.013948 102.134751 
L 319.19015 102.656895 
L 319.368401 102.656895 
L 319.546652 101.090462 
L 319.722854 101.090462 
L 319.901105 101.612606 
L 320.077307 101.090462 
L 320.25351 101.090462 
L 320.431761 102.656895 
L 320.607963 101.612606 
L 320.784165 102.134751 
L 320.960367 101.090462 
L 321.138618 101.090462 
L 321.491023 100.046172 
L 321.669274 100.568317 
L 321.845476 100.568317 
L 322.19788 99.419599 
L 322.728535 99.419599 
L 322.906786 98.793026 
L 323.082989 100.568317 
L 323.259191 100.046172 
L 323.613644 100.046172 
L 323.789846 101.090462 
L 323.966048 101.090462 
L 324.144299 101.612606 
L 324.320502 102.656895 
L 324.496704 101.090462 
L 324.674955 102.656895 
L 324.851157 102.134751 
L 325.027359 102.656895 
L 325.20561 101.612606 
L 325.381812 102.656895 
L 325.558014 102.134751 
L 325.912468 102.134751 
L 326.08867 101.612606 
L 326.264872 102.656895 
L 326.443123 101.612606 
L 326.619325 104.014471 
L 326.795527 102.656895 
L 326.973778 103.596755 
L 327.152029 102.134751 
L 327.328232 103.074611 
L 327.504434 102.134751 
L 327.682685 102.656895 
L 328.035089 102.656895 
L 328.21334 102.134751 
L 328.389542 102.656895 
L 328.565745 100.568317 
L 328.920198 101.612606 
L 329.0964 100.568317 
L 329.272602 101.090462 
L 329.450853 101.090462 
L 329.627055 101.612606 
L 329.803257 101.612606 
L 329.981508 100.046172 
L 330.157711 101.090462 
L 330.333913 101.090462 
L 330.510115 101.612606 
L 330.688366 101.612606 
L 330.864568 102.134751 
L 331.04077 101.090462 
L 331.219021 101.612606 
L 331.395224 101.090462 
L 331.571426 101.090462 
L 331.749677 101.612606 
L 332.102081 101.612606 
L 332.456534 100.046172 
L 332.808939 100.046172 
L 332.98719 99.419599 
L 333.163392 99.419599 
L 333.515796 100.568317 
L 333.870249 100.568317 
L 334.224703 101.612606 
L 334.400905 100.568317 
L 334.577107 101.090462 
L 334.757407 101.090462 
L 334.933609 101.612606 
L 335.109811 101.612606 
L 335.286013 102.134751 
L 335.640467 101.090462 
L 335.816669 101.612606 
L 336.171122 100.046172 
L 336.347324 101.612606 
L 336.525575 101.090462 
L 336.701777 102.134751 
L 336.877979 101.612606 
L 337.054182 102.134751 
L 337.232433 101.612606 
L 337.408635 101.612606 
L 337.584837 102.134751 
L 337.763088 101.612606 
L 338.115492 102.656895 
L 338.646148 100.046172 
L 338.82235 100.046172 
L 339.000601 99.419599 
L 339.353005 99.419599 
L 339.531256 98.793026 
L 339.707458 100.046172 
L 339.883661 100.046172 
L 340.059863 98.270881 
L 340.414316 99.419599 
L 340.768769 99.419599 
L 340.944971 98.270881 
L 341.121174 98.793026 
L 341.299425 98.270881 
L 341.475627 98.270881 
L 341.651829 98.793026 
L 341.828031 98.270881 
L 342.006282 98.270881 
L 342.182484 97.539879 
L 342.538986 98.793026 
L 342.891391 98.793026 
L 343.245844 97.539879 
L 343.422046 98.270881 
L 343.598248 95.55573 
L 343.776499 96.913305 
L 344.128904 96.913305 
L 344.659559 98.793026 
L 345.014012 98.793026 
L 345.190214 99.419599 
L 345.366416 101.612606 
L 345.544667 100.568317 
L 345.72087 100.568317 
L 345.897072 102.134751 
L 346.251525 100.568317 
L 346.427727 100.568317 
L 346.603929 100.046172 
L 346.78218 100.568317 
L 346.958383 100.046172 
L 347.134585 100.568317 
L 347.489038 100.568317 
L 347.843491 101.612606 
L 348.019693 101.090462 
L 348.195895 101.612606 
L 348.372098 102.656895 
L 348.550349 102.134751 
L 348.726551 103.596755 
L 348.902753 102.134751 
L 349.257206 102.134751 
L 349.433408 100.568317 
L 349.609611 100.568317 
L 349.787862 99.419599 
L 350.140266 100.568317 
L 350.320566 100.568317 
L 350.496768 100.046172 
L 350.67297 100.568317 
L 350.851221 99.419599 
L 351.027423 100.046172 
L 351.203626 99.419599 
L 351.379828 100.568317 
L 351.558079 100.046172 
L 351.734281 100.046172 
L 351.910483 99.419599 
L 352.088734 99.419599 
L 352.441138 97.539879 
L 352.795592 97.539879 
L 352.971794 98.793026 
L 353.147996 98.793026 
L 353.326247 97.539879 
L 353.502449 98.793026 
L 353.678651 97.539879 
L 354.033105 97.539879 
L 354.387558 99.419599 
L 354.739962 97.539879 
L 355.270617 95.55573 
L 355.625071 95.55573 
L 355.801273 96.913305 
L 355.977475 96.286732 
L 356.331928 97.539879 
L 356.50813 97.539879 
L 356.684333 98.270881 
L 356.862584 97.539879 
L 357.038786 98.793026 
L 357.214988 97.539879 
L 357.393239 98.270881 
L 357.569441 97.539879 
L 357.923894 97.539879 
L 358.278348 96.286732 
L 358.632801 97.539879 
L 358.809003 96.286732 
L 358.985205 98.270881 
L 359.51586 98.270881 
L 359.870314 99.419599 
L 360.046516 99.419599 
L 360.222718 98.793026 
L 360.400969 98.793026 
L 361.107827 101.090462 
L 361.284029 101.090462 
L 361.460231 101.612606 
L 361.638482 102.656895 
L 361.990886 101.612606 
L 362.169137 102.656895 
L 362.521542 102.656895 
L 362.697744 102.134751 
L 362.875995 102.656895 
L 363.052197 102.656895 
L 363.40665 103.596755 
L 363.582852 103.596755 
L 363.759055 104.014471 
L 363.937306 103.596755 
L 364.113508 105.267618 
L 364.28971 105.267618 
L 364.465912 106.416336 
L 364.644163 106.103049 
L 364.820365 107.147338 
L 364.996567 106.834051 
L 365.174818 108.191627 
L 365.351021 107.147338 
L 365.529272 108.922629 
L 365.885774 109.758061 
L 366.246374 111.220065 
L 366.428722 110.906779 
L 366.971671 113.830788 
L 367.332271 113.830788 
L 367.875219 116.545939 
L 368.057568 116.545939 
L 368.420217 118.843375 
L 368.602565 118.843375 
L 368.782865 120.30538 
L 368.963165 120.30538 
L 369.145514 121.454098 
L 369.325814 121.454098 
L 369.506114 122.916103 
L 369.688462 122.916103 
L 369.868762 124.795823 
L 370.231411 124.795823 
L 370.411711 127.615403 
L 371.862305 127.615403 
L 372.042605 135.552 
L 380.37328 135.552 
L 380.55358 135.134284 
L 380.918277 135.134284 
L 381.098577 135.552 
L 398.487273 135.552 
L 398.487273 135.552 
" style="fill:none;stroke:#ff0000;stroke-dasharray:5.55,2.4;stroke-dashoffset:0;stroke-width:1.5;"/>
   </g>
   <g id="line2d_26">
    <path clip-path="url(#p0494314b19)" d="M 73.832727 135.552 
L 75.283322 135.552 
L 75.445182 132.73242 
L 76.25858 132.73242 
L 76.422489 129.912839 
L 76.586398 129.912839 
L 76.752356 125.10911 
L 76.916265 125.10911 
L 77.080174 121.662956 
L 77.244083 121.662956 
L 77.57395 117.381371 
L 77.73581 117.381371 
L 78.063628 114.666219 
L 78.227537 113.62193 
L 78.393495 113.62193 
L 78.725411 111.428923 
L 78.893417 111.220065 
L 79.229431 109.549203 
L 79.7355 107.147338 
L 79.903507 107.147338 
L 80.913596 102.656895 
L 81.081603 102.656895 
L 81.419665 100.046172 
L 81.585623 100.568317 
L 81.753629 99.419599 
L 81.923685 99.419599 
L 82.091692 98.793026 
L 82.427705 96.913305 
L 82.597761 96.286732 
L 82.765767 96.286732 
L 83.439843 93.258294 
L 83.60785 94.093725 
L 83.773808 92.527291 
L 84.11187 92.527291 
L 84.279877 89.81214 
L 84.61589 89.81214 
L 84.953953 87.93242 
L 85.121959 87.93242 
L 85.628028 84.695124 
L 85.796035 87.93242 
L 86.13 84.695124 
L 86.300055 84.695124 
L 86.468062 83.441977 
L 86.804075 83.441977 
L 86.974131 82.18883 
L 87.142138 82.18883 
L 87.310144 80.935683 
L 87.478151 82.18883 
L 87.816213 78.116103 
L 88.152227 78.116103 
L 88.318185 79.578107 
L 88.48824 78.116103 
L 88.832449 78.116103 
L 89.006602 79.578107 
L 89.178707 78.116103 
L 89.869174 78.116103 
L 90.041278 76.654098 
L 90.213382 78.116103 
L 90.387536 76.654098 
L 90.55964 78.116103 
L 90.903849 74.983235 
L 91.078002 76.654098 
L 91.250107 73.312373 
L 91.422211 74.983235 
L 91.768469 71.537082 
L 91.940573 73.312373 
L 92.286831 73.312373 
L 92.63104 69.657361 
L 92.803145 73.312373 
L 92.977298 69.657361 
L 93.149402 71.537082 
L 93.321507 67.673212 
L 93.493611 69.657361 
L 93.667764 67.673212 
L 93.839869 69.657361 
L 94.011973 67.673212 
L 94.184078 69.657361 
L 94.358231 67.673212 
L 94.704489 67.673212 
L 94.88274 65.584634 
L 95.056893 65.584634 
L 95.228998 67.673212 
L 95.403151 63.287198 
L 95.581402 65.584634 
L 95.753506 65.584634 
L 95.92766 63.287198 
L 96.105911 63.287198 
L 96.278015 65.584634 
L 96.452169 63.287198 
L 96.626322 65.584634 
L 96.802524 65.584634 
L 96.976677 60.885333 
L 97.150831 63.287198 
L 97.327033 63.287198 
L 97.501186 65.584634 
L 97.675339 63.287198 
L 97.849493 65.584634 
L 98.199848 65.584634 
L 98.374001 60.885333 
L 98.548155 65.584634 
L 98.724357 63.287198 
L 98.89851 63.287198 
L 99.248866 58.274611 
L 99.597172 63.287198 
L 99.771326 63.287198 
L 99.947528 58.274611 
L 100.121681 58.274611 
L 100.295834 60.885333 
L 100.64619 60.885333 
L 100.820343 58.274611 
L 101.170699 58.274611 
L 101.344852 60.885333 
L 101.519005 60.885333 
L 101.695207 55.559459 
L 101.869361 55.559459 
L 102.043514 58.274611 
L 102.217667 55.559459 
L 102.568023 55.559459 
L 102.742176 52.63545 
L 102.918378 55.559459 
L 103.092532 55.559459 
L 103.266685 52.63545 
L 103.61704 52.63545 
L 103.791194 55.559459 
L 103.965347 52.63545 
L 104.1395 55.559459 
L 105.014365 55.559459 
L 105.188518 52.63545 
L 105.713027 52.63545 
L 105.88718 55.559459 
L 106.063382 52.63545 
L 106.237535 52.63545 
L 106.411689 55.559459 
L 106.585842 52.63545 
L 106.936198 52.63545 
L 107.110351 55.559459 
L 107.286553 52.63545 
L 107.460706 55.559459 
L 107.63486 45.952 
L 107.985215 52.63545 
L 109.032184 52.63545 
L 109.208386 58.274611 
L 109.730846 58.274611 
L 109.907048 60.885333 
L 110.081201 55.559459 
L 110.255355 58.274611 
L 110.431557 58.274611 
L 110.60571 63.287198 
L 111.130219 63.287198 
L 111.304372 65.584634 
L 111.478526 69.657361 
L 112.003034 69.657361 
L 112.35339 73.312373 
L 112.701696 78.116103 
L 112.877899 79.578107 
L 113.052052 79.578107 
L 113.226205 83.441977 
L 113.400359 84.695124 
L 113.576561 87.93242 
L 113.750714 87.93242 
L 113.924867 92.527291 
L 114.275223 96.286732 
L 114.623529 101.090462 
L 114.799732 102.134751 
L 115.148038 107.147338 
L 115.672547 112.473212 
L 115.8467 123.020531 
L 116.197056 123.020531 
L 116.371209 135.552 
L 273.625498 135.552 
L 273.801701 134.298853 
L 295.669209 134.298853 
L 295.845411 135.343142 
L 296.376067 135.343142 
L 296.552269 130.226126 
L 296.908771 130.226126 
L 297.084973 127.093259 
L 297.439426 127.093259 
L 297.615629 124.586965 
L 297.79388 124.586965 
L 297.970082 122.811674 
L 298.146284 122.811674 
L 298.322486 121.767385 
L 298.500737 121.767385 
L 298.853142 120.618667 
L 299.559999 120.514238 
L 299.73825 120.200951 
L 299.914452 120.200951 
L 300.090654 119.574378 
L 300.445108 119.469949 
L 300.62131 119.783235 
L 301.328167 119.783235 
L 301.506418 119.469949 
L 301.682621 119.469949 
L 302.037074 117.4858 
L 302.213276 117.4858 
L 302.389478 117.068084 
L 302.567729 117.381371 
L 302.743931 117.068084 
L 302.920133 117.068084 
L 303.096336 116.859226 
L 303.450789 114.979506 
L 303.626991 114.979506 
L 303.981444 113.204214 
L 304.690351 109.549203 
L 305.221006 108.609343 
L 305.397208 108.609343 
L 305.575459 108.922629 
L 305.751661 108.191627 
L 305.927864 108.191627 
L 306.104066 107.87834 
L 306.282317 107.147338 
L 306.458519 107.565054 
L 306.634721 106.103049 
L 306.812972 106.103049 
L 306.989174 105.267618 
L 307.165376 105.267618 
L 307.343627 103.596755 
L 307.51983 104.014471 
L 307.696032 104.014471 
L 307.872234 104.432186 
L 308.050485 104.014471 
L 308.226687 104.014471 
L 308.402889 103.074611 
L 308.757343 103.074611 
L 309.111796 100.568317 
L 309.287998 101.090462 
L 309.640402 99.419599 
L 309.994855 99.419599 
L 310.171058 98.793026 
L 310.349309 99.419599 
L 310.525511 100.568317 
L 310.701713 100.046172 
L 310.877915 101.090462 
L 311.056166 100.568317 
L 311.232368 101.090462 
L 311.408571 101.090462 
L 311.586822 101.612606 
L 311.763024 101.612606 
L 311.941275 100.568317 
L 312.119526 101.090462 
L 312.295728 100.046172 
L 312.47193 100.568317 
L 312.648132 100.568317 
L 312.826383 100.046172 
L 313.357039 100.046172 
L 313.533241 101.090462 
L 313.709443 100.046172 
L 314.063896 101.090462 
L 314.240098 100.046172 
L 314.770754 100.046172 
L 314.946956 99.419599 
L 315.125207 99.419599 
L 315.301409 100.568317 
L 315.477611 99.419599 
L 315.832065 101.090462 
L 316.008267 101.090462 
L 316.36272 102.656895 
L 316.538922 102.656895 
L 316.715124 102.134751 
L 317.069577 103.074611 
L 317.24578 103.074611 
L 317.600233 104.849902 
L 317.776435 104.849902 
L 317.952637 105.267618 
L 318.30709 104.014471 
L 318.483292 103.596755 
L 318.661544 102.134751 
L 318.837746 103.074611 
L 319.013948 102.134751 
L 319.19015 103.074611 
L 319.368401 101.612606 
L 319.546652 102.134751 
L 319.722854 101.090462 
L 319.901105 101.090462 
L 320.077307 101.612606 
L 320.25351 101.090462 
L 320.431761 101.612606 
L 320.784165 101.612606 
L 320.960367 101.090462 
L 321.138618 100.046172 
L 321.31482 101.090462 
L 321.491023 101.090462 
L 321.669274 100.568317 
L 322.021678 100.568317 
L 322.19788 100.046172 
L 322.376131 101.090462 
L 322.552333 100.568317 
L 322.906786 100.568317 
L 323.082989 101.090462 
L 323.259191 100.568317 
L 323.437442 101.090462 
L 323.789846 101.090462 
L 324.144299 103.074611 
L 324.320502 102.656895 
L 324.496704 102.656895 
L 324.674955 103.074611 
L 324.851157 102.656895 
L 325.558014 102.656895 
L 325.734217 103.074611 
L 325.912468 102.134751 
L 326.08867 102.134751 
L 326.264872 102.656895 
L 326.443123 102.656895 
L 326.619325 102.134751 
L 326.795527 102.134751 
L 326.973778 103.074611 
L 327.152029 102.656895 
L 327.328232 103.074611 
L 327.504434 102.134751 
L 327.682685 102.656895 
L 327.858887 102.656895 
L 328.21334 101.612606 
L 328.389542 102.656895 
L 328.565745 101.090462 
L 328.741947 101.090462 
L 328.920198 100.568317 
L 329.0964 100.568317 
L 329.450853 101.612606 
L 329.803257 100.568317 
L 329.981508 100.568317 
L 330.157711 101.090462 
L 330.333913 100.568317 
L 330.510115 101.090462 
L 330.864568 101.090462 
L 331.04077 100.568317 
L 331.219021 101.090462 
L 331.395224 101.090462 
L 331.571426 100.568317 
L 331.749677 101.612606 
L 331.925879 101.612606 
L 332.102081 101.090462 
L 332.278283 101.612606 
L 332.456534 101.090462 
L 332.632736 100.046172 
L 332.98719 100.046172 
L 333.163392 99.419599 
L 333.515796 101.090462 
L 333.694047 100.568317 
L 333.870249 101.090462 
L 334.224703 101.090462 
L 334.400905 100.568317 
L 334.577107 101.090462 
L 334.757407 101.090462 
L 334.933609 101.612606 
L 335.109811 101.612606 
L 335.286013 102.134751 
L 335.640467 101.090462 
L 335.816669 101.612606 
L 335.99492 101.090462 
L 336.171122 101.090462 
L 336.347324 101.612606 
L 336.701777 101.612606 
L 336.877979 102.134751 
L 337.054182 102.134751 
L 337.232433 101.612606 
L 337.408635 102.134751 
L 337.584837 101.612606 
L 337.763088 102.134751 
L 337.93929 102.134751 
L 338.115492 101.612606 
L 338.291694 101.612606 
L 338.646148 100.046172 
L 338.82235 100.568317 
L 339.176803 98.793026 
L 339.353005 98.793026 
L 339.531256 98.270881 
L 339.883661 100.046172 
L 340.238114 98.793026 
L 340.414316 98.793026 
L 340.590518 98.270881 
L 340.768769 98.793026 
L 341.299425 98.793026 
L 341.475627 98.270881 
L 342.006282 98.270881 
L 342.182484 97.539879 
L 342.358686 97.539879 
L 342.538986 98.793026 
L 342.715188 98.793026 
L 342.891391 98.270881 
L 343.069642 98.270881 
L 343.245844 97.539879 
L 343.422046 97.539879 
L 343.598248 96.286732 
L 343.776499 96.913305 
L 343.952701 95.55573 
L 344.128904 96.913305 
L 344.307155 96.913305 
L 344.659559 99.419599 
L 344.835761 98.793026 
L 345.014012 98.793026 
L 345.190214 99.419599 
L 345.544667 101.612606 
L 345.72087 101.090462 
L 345.897072 101.090462 
L 346.075323 100.568317 
L 346.251525 100.568317 
L 346.427727 101.090462 
L 346.78218 100.046172 
L 346.958383 100.046172 
L 347.134585 101.090462 
L 347.312836 100.568317 
L 347.489038 101.090462 
L 347.66524 100.568317 
L 347.843491 101.612606 
L 348.019693 101.090462 
L 348.195895 102.656895 
L 348.550349 102.656895 
L 348.726551 103.074611 
L 348.902753 102.134751 
L 349.081004 102.134751 
L 349.257206 100.568317 
L 349.609611 100.568317 
L 349.787862 100.046172 
L 349.964064 100.046172 
L 350.140266 101.090462 
L 350.320566 100.046172 
L 350.496768 100.046172 
L 350.67297 100.568317 
L 350.851221 99.419599 
L 351.027423 99.419599 
L 351.203626 100.568317 
L 351.379828 100.568317 
L 351.558079 99.419599 
L 351.734281 100.046172 
L 351.910483 99.419599 
L 352.088734 100.046172 
L 352.619389 96.913305 
L 352.971794 98.270881 
L 353.502449 98.270881 
L 353.678651 97.539879 
L 353.856902 98.270881 
L 354.033105 97.539879 
L 354.209307 98.270881 
L 354.387558 98.270881 
L 354.56376 98.793026 
L 354.916164 97.539879 
L 355.270617 95.55573 
L 355.44682 96.286732 
L 355.625071 96.286732 
L 355.801273 97.539879 
L 355.977475 96.913305 
L 356.153677 98.270881 
L 356.331928 97.539879 
L 356.50813 98.270881 
L 356.684333 97.539879 
L 356.862584 97.539879 
L 357.038786 98.793026 
L 357.214988 98.270881 
L 357.393239 98.270881 
L 357.569441 97.539879 
L 357.745643 97.539879 
L 357.923894 96.286732 
L 358.278348 97.539879 
L 358.632801 96.286732 
L 358.985205 98.270881 
L 359.51586 98.270881 
L 359.870314 99.419599 
L 360.046516 98.793026 
L 360.222718 100.046172 
L 360.400969 99.419599 
L 360.577171 99.419599 
L 360.931624 101.090462 
L 361.107827 100.568317 
L 361.460231 102.134751 
L 361.814684 102.134751 
L 362.169137 103.074611 
L 362.345339 101.612606 
L 362.697744 103.074611 
L 363.052197 103.074611 
L 363.228399 103.596755 
L 363.40665 103.596755 
L 363.582852 104.432186 
L 363.759055 103.596755 
L 363.937306 103.596755 
L 364.644163 106.416336 
L 364.820365 106.416336 
L 365.174818 107.87834 
L 365.351021 107.565054 
L 365.529272 108.191627 
L 365.707523 109.235916 
L 366.066074 110.071347 
L 366.246374 110.906779 
L 366.428722 110.906779 
L 366.789322 112.473212 
L 366.971671 112.68207 
L 367.151971 113.830788 
L 367.332271 113.830788 
L 367.875219 116.44151 
L 368.057568 116.44151 
L 368.420217 118.843375 
L 368.602565 118.843375 
L 368.782865 119.992093 
L 368.963165 119.992093 
L 369.145514 121.454098 
L 369.325814 121.454098 
L 369.506114 122.707245 
L 369.688462 122.707245 
L 369.868762 124.586965 
L 370.231411 124.586965 
L 370.411711 126.98883 
L 372.042605 126.98883 
L 372.222905 135.552 
L 380.55358 135.552 
L 380.735929 135.134284 
L 381.098577 135.134284 
L 381.280926 135.552 
L 398.487273 135.552 
L 398.487273 135.552 
" style="fill:none;stroke:#0000ff;stroke-dasharray:5.55,2.4;stroke-dashoffset:0;stroke-width:1.5;"/>
   </g>
   <g id="patch_3">
    <path d="M 57.6 140.032 
L 57.6 41.472 
" style="fill:none;stroke:#000000;stroke-linecap:square;stroke-linejoin:miter;stroke-width:0.8;"/>
   </g>
   <g id="patch_4">
    <path d="M 414.72 140.032 
L 414.72 41.472 
" style="fill:none;stroke:#000000;stroke-linecap:square;stroke-linejoin:miter;stroke-width:0.8;"/>
   </g>
   <g id="patch_5">
    <path d="M 57.6 140.032 
L 414.72 140.032 
" style="fill:none;stroke:#000000;stroke-linecap:square;stroke-linejoin:miter;stroke-width:0.8;"/>
   </g>
   <g id="patch_6">
    <path d="M 57.6 41.472 
L 414.72 41.472 
" style="fill:none;stroke:#000000;stroke-linecap:square;stroke-linejoin:miter;stroke-width:0.8;"/>
   </g>
   <g id="text_15">
    <!-- Hastighet över tid -->
    <defs>
     <path d="M 30.609375 48.390625 
Q 23.390625 48.390625 19.1875 42.75 
Q 14.984375 37.109375 14.984375 27.296875 
Q 14.984375 17.484375 19.15625 11.84375 
Q 23.34375 6.203125 30.609375 6.203125 
Q 37.796875 6.203125 41.984375 11.859375 
Q 46.1875 17.53125 46.1875 27.296875 
Q 46.1875 37.015625 41.984375 42.703125 
Q 37.796875 48.390625 30.609375 48.390625 
z
M 30.609375 56 
Q 42.328125 56 49.015625 48.375 
Q 55.71875 40.765625 55.71875 27.296875 
Q 55.71875 13.875 49.015625 6.21875 
Q 42.328125 -1.421875 30.609375 -1.421875 
Q 18.84375 -1.421875 12.171875 6.21875 
Q 5.515625 13.875 5.515625 27.296875 
Q 5.515625 40.765625 12.171875 48.375 
Q 18.84375 56 30.609375 56 
z
M 35.203125 75.78125 
L 45.125 75.78125 
L 45.125 65.921875 
L 35.203125 65.921875 
z
M 16.109375 75.78125 
L 26.03125 75.78125 
L 26.03125 65.921875 
L 16.109375 65.921875 
z
" id="DejaVuSans-246"/>
     <path d="M 2.984375 54.6875 
L 12.5 54.6875 
L 29.59375 8.796875 
L 46.6875 54.6875 
L 56.203125 54.6875 
L 35.6875 0 
L 23.484375 0 
z
" id="DejaVuSans-118"/>
     <path d="M 41.109375 46.296875 
Q 39.59375 47.171875 37.8125 47.578125 
Q 36.03125 48 33.890625 48 
Q 26.265625 48 22.1875 43.046875 
Q 18.109375 38.09375 18.109375 28.8125 
L 18.109375 0 
L 9.078125 0 
L 9.078125 54.6875 
L 18.109375 54.6875 
L 18.109375 46.1875 
Q 20.953125 51.171875 25.484375 53.578125 
Q 30.03125 56 36.53125 56 
Q 37.453125 56 38.578125 55.875 
Q 39.703125 55.765625 41.0625 55.515625 
z
" id="DejaVuSans-114"/>
    </defs>
    <g transform="translate(182.147812 35.472)scale(0.12 -0.12)">
     <use xlink:href="#DejaVuSans-72"/>
     <use x="75.195312" xlink:href="#DejaVuSans-97"/>
     <use x="136.474609" xlink:href="#DejaVuSans-115"/>
     <use x="188.574219" xlink:href="#DejaVuSans-116"/>
     <use x="227.783203" xlink:href="#DejaVuSans-105"/>
     <use x="255.566406" xlink:href="#DejaVuSans-103"/>
     <use x="319.042969" xlink:href="#DejaVuSans-104"/>
     <use x="382.421875" xlink:href="#DejaVuSans-101"/>
     <use x="443.945312" xlink:href="#DejaVuSans-116"/>
     <use x="483.154297" xlink:href="#DejaVuSans-32"/>
     <use x="514.941406" xlink:href="#DejaVuSans-246"/>
     <use x="576.123047" xlink:href="#DejaVuSans-118"/>
     <use x="635.302734" xlink:href="#DejaVuSans-101"/>
     <use x="696.826172" xlink:href="#DejaVuSans-114"/>
     <use x="737.939453" xlink:href="#DejaVuSans-32"/>
     <use x="769.726562" xlink:href="#DejaVuSans-116"/>
     <use x="808.935547" xlink:href="#DejaVuSans-105"/>
     <use x="836.71875" xlink:href="#DejaVuSans-100"/>
    </g>
   </g>
   <g id="legend_1">
    <g id="patch_7">
     <path d="M 314.43875 78.82825 
L 407.72 78.82825 
Q 409.72 78.82825 409.72 76.82825 
L 409.72 48.472 
Q 409.72 46.472 407.72 46.472 
L 314.43875 46.472 
Q 312.43875 46.472 312.43875 48.472 
L 312.43875 76.82825 
Q 312.43875 78.82825 314.43875 78.82825 
z
" style="fill:#ffffff;opacity:0.8;stroke:#cccccc;stroke-linejoin:miter;"/>
    </g>
    <g id="line2d_27">
     <path d="M 316.43875 54.570437 
L 336.43875 54.570437 
" style="fill:none;stroke:#ff0000;stroke-dasharray:5.55,2.4;stroke-dashoffset:0;stroke-width:1.5;"/>
    </g>
    <g id="line2d_28"/>
    <g id="text_16">
     <!-- Vänster Hjul -->
     <defs>
      <path d="M 28.609375 0 
L 0.78125 72.90625 
L 11.078125 72.90625 
L 34.1875 11.53125 
L 57.328125 72.90625 
L 67.578125 72.90625 
L 39.796875 0 
z
" id="DejaVuSans-86"/>
      <path d="M 34.28125 27.484375 
Q 23.390625 27.484375 19.1875 25 
Q 14.984375 22.515625 14.984375 16.5 
Q 14.984375 11.71875 18.140625 8.90625 
Q 21.296875 6.109375 26.703125 6.109375 
Q 34.1875 6.109375 38.703125 11.40625 
Q 43.21875 16.703125 43.21875 25.484375 
L 43.21875 27.484375 
z
M 52.203125 31.203125 
L 52.203125 0 
L 43.21875 0 
L 43.21875 8.296875 
Q 40.140625 3.328125 35.546875 0.953125 
Q 30.953125 -1.421875 24.3125 -1.421875 
Q 15.921875 -1.421875 10.953125 3.296875 
Q 6 8.015625 6 15.921875 
Q 6 25.140625 12.171875 29.828125 
Q 18.359375 34.515625 30.609375 34.515625 
L 43.21875 34.515625 
L 43.21875 35.40625 
Q 43.21875 41.609375 39.140625 45 
Q 35.0625 48.390625 27.6875 48.390625 
Q 23 48.390625 18.546875 47.265625 
Q 14.109375 46.140625 10.015625 43.890625 
L 10.015625 52.203125 
Q 14.9375 54.109375 19.578125 55.046875 
Q 24.21875 56 28.609375 56 
Q 40.484375 56 46.34375 49.84375 
Q 52.203125 43.703125 52.203125 31.203125 
z
M 33.59375 75.78125 
L 43.5 75.78125 
L 43.5 65.921875 
L 33.59375 65.921875 
z
M 14.5 75.78125 
L 24.421875 75.78125 
L 24.421875 65.921875 
L 14.5 65.921875 
z
" id="DejaVuSans-228"/>
      <path d="M 54.890625 33.015625 
L 54.890625 0 
L 45.90625 0 
L 45.90625 32.71875 
Q 45.90625 40.484375 42.875 44.328125 
Q 39.84375 48.1875 33.796875 48.1875 
Q 26.515625 48.1875 22.3125 43.546875 
Q 18.109375 38.921875 18.109375 30.90625 
L 18.109375 0 
L 9.078125 0 
L 9.078125 54.6875 
L 18.109375 54.6875 
L 18.109375 46.1875 
Q 21.34375 51.125 25.703125 53.5625 
Q 30.078125 56 35.796875 56 
Q 45.21875 56 50.046875 50.171875 
Q 54.890625 44.34375 54.890625 33.015625 
z
" id="DejaVuSans-110"/>
      <path d="M 9.421875 54.6875 
L 18.40625 54.6875 
L 18.40625 -0.984375 
Q 18.40625 -11.421875 14.421875 -16.109375 
Q 10.453125 -20.796875 1.609375 -20.796875 
L -1.8125 -20.796875 
L -1.8125 -13.1875 
L 0.59375 -13.1875 
Q 5.71875 -13.1875 7.5625 -10.8125 
Q 9.421875 -8.453125 9.421875 -0.984375 
z
M 9.421875 75.984375 
L 18.40625 75.984375 
L 18.40625 64.59375 
L 9.421875 64.59375 
z
" id="DejaVuSans-106"/>
      <path d="M 8.5 21.578125 
L 8.5 54.6875 
L 17.484375 54.6875 
L 17.484375 21.921875 
Q 17.484375 14.15625 20.5 10.265625 
Q 23.53125 6.390625 29.59375 6.390625 
Q 36.859375 6.390625 41.078125 11.03125 
Q 45.3125 15.671875 45.3125 23.6875 
L 45.3125 54.6875 
L 54.296875 54.6875 
L 54.296875 0 
L 45.3125 0 
L 45.3125 8.40625 
Q 42.046875 3.421875 37.71875 1 
Q 33.40625 -1.421875 27.6875 -1.421875 
Q 18.265625 -1.421875 13.375 4.4375 
Q 8.5 10.296875 8.5 21.578125 
z
M 31.109375 56 
z
" id="DejaVuSans-117"/>
      <path d="M 9.421875 75.984375 
L 18.40625 75.984375 
L 18.40625 0 
L 9.421875 0 
z
" id="DejaVuSans-108"/>
     </defs>
     <g transform="translate(344.43875 58.070437)scale(0.1 -0.1)">
      <use xlink:href="#DejaVuSans-86"/>
      <use x="68.298828" xlink:href="#DejaVuSans-228"/>
      <use x="129.578125" xlink:href="#DejaVuSans-110"/>
      <use x="192.957031" xlink:href="#DejaVuSans-115"/>
      <use x="245.056641" xlink:href="#DejaVuSans-116"/>
      <use x="284.265625" xlink:href="#DejaVuSans-101"/>
      <use x="345.789062" xlink:href="#DejaVuSans-114"/>
      <use x="386.902344" xlink:href="#DejaVuSans-32"/>
      <use x="418.689453" xlink:href="#DejaVuSans-72"/>
      <use x="493.884766" xlink:href="#DejaVuSans-106"/>
      <use x="521.667969" xlink:href="#DejaVuSans-117"/>
      <use x="585.046875" xlink:href="#DejaVuSans-108"/>
     </g>
    </g>
    <g id="line2d_29">
     <path d="M 316.43875 69.248562 
L 336.43875 69.248562 
" style="fill:none;stroke:#0000ff;stroke-dasharray:5.55,2.4;stroke-dashoffset:0;stroke-width:1.5;"/>
    </g>
    <g id="line2d_30"/>
    <g id="text_17">
     <!-- Höger Hjul -->
     <g transform="translate(344.43875 72.748562)scale(0.1 -0.1)">
      <use xlink:href="#DejaVuSans-72"/>
      <use x="75.195312" xlink:href="#DejaVuSans-246"/>
      <use x="136.376953" xlink:href="#DejaVuSans-103"/>
      <use x="199.853516" xlink:href="#DejaVuSans-101"/>
      <use x="261.376953" xlink:href="#DejaVuSans-114"/>
      <use x="302.490234" xlink:href="#DejaVuSans-32"/>
      <use x="334.277344" xlink:href="#DejaVuSans-72"/>
      <use x="409.472656" xlink:href="#DejaVuSans-106"/>
      <use x="437.255859" xlink:href="#DejaVuSans-117"/>
      <use x="500.634766" xlink:href="#DejaVuSans-108"/>
     </g>
    </g>
   </g>
  </g>
  <g id="axes_2">
   <g id="patch_8">
    <path d="M 57.6 307.584 
L 414.72 307.584 
L 414.72 209.024 
L 57.6 209.024 
z
" style="fill:#ffffff;"/>
   </g>
   <g id="matplotlib.axis_3">
    <g id="xtick_10">
     <g id="line2d_31">
      <path clip-path="url(#p8c5b365ef6)" d="M 73.814288 307.584 
L 73.814288 209.024 
" style="fill:none;stroke:#b0b0b0;stroke-linecap:square;stroke-width:0.8;"/>
     </g>
     <g id="line2d_32">
      <g>
       <use style="stroke:#000000;stroke-width:0.8;" x="73.814288" xlink:href="#m0e693ca617" y="307.584"/>
      </g>
     </g>
     <g id="text_18">
      <!-- 0 -->
      <g transform="translate(70.633038 322.182437)scale(0.1 -0.1)">
       <use xlink:href="#DejaVuSans-48"/>
      </g>
     </g>
    </g>
    <g id="xtick_11">
     <g id="line2d_33">
      <path clip-path="url(#p8c5b365ef6)" d="M 114.791536 307.584 
L 114.791536 209.024 
" style="fill:none;stroke:#b0b0b0;stroke-linecap:square;stroke-width:0.8;"/>
     </g>
     <g id="line2d_34">
      <g>
       <use style="stroke:#000000;stroke-width:0.8;" x="114.791536" xlink:href="#m0e693ca617" y="307.584"/>
      </g>
     </g>
     <g id="text_19">
      <!-- 20 -->
      <g transform="translate(108.429036 322.182437)scale(0.1 -0.1)">
       <use xlink:href="#DejaVuSans-50"/>
       <use x="63.623047" xlink:href="#DejaVuSans-48"/>
      </g>
     </g>
    </g>
    <g id="xtick_12">
     <g id="line2d_35">
      <path clip-path="url(#p8c5b365ef6)" d="M 155.768785 307.584 
L 155.768785 209.024 
" style="fill:none;stroke:#b0b0b0;stroke-linecap:square;stroke-width:0.8;"/>
     </g>
     <g id="line2d_36">
      <g>
       <use style="stroke:#000000;stroke-width:0.8;" x="155.768785" xlink:href="#m0e693ca617" y="307.584"/>
      </g>
     </g>
     <g id="text_20">
      <!-- 40 -->
      <g transform="translate(149.406285 322.182437)scale(0.1 -0.1)">
       <use xlink:href="#DejaVuSans-52"/>
       <use x="63.623047" xlink:href="#DejaVuSans-48"/>
      </g>
     </g>
    </g>
    <g id="xtick_13">
     <g id="line2d_37">
      <path clip-path="url(#p8c5b365ef6)" d="M 196.746033 307.584 
L 196.746033 209.024 
" style="fill:none;stroke:#b0b0b0;stroke-linecap:square;stroke-width:0.8;"/>
     </g>
     <g id="line2d_38">
      <g>
       <use style="stroke:#000000;stroke-width:0.8;" x="196.746033" xlink:href="#m0e693ca617" y="307.584"/>
      </g>
     </g>
     <g id="text_21">
      <!-- 60 -->
      <g transform="translate(190.383533 322.182437)scale(0.1 -0.1)">
       <use xlink:href="#DejaVuSans-54"/>
       <use x="63.623047" xlink:href="#DejaVuSans-48"/>
      </g>
     </g>
    </g>
    <g id="xtick_14">
     <g id="line2d_39">
      <path clip-path="url(#p8c5b365ef6)" d="M 237.723282 307.584 
L 237.723282 209.024 
" style="fill:none;stroke:#b0b0b0;stroke-linecap:square;stroke-width:0.8;"/>
     </g>
     <g id="line2d_40">
      <g>
       <use style="stroke:#000000;stroke-width:0.8;" x="237.723282" xlink:href="#m0e693ca617" y="307.584"/>
      </g>
     </g>
     <g id="text_22">
      <!-- 80 -->
      <g transform="translate(231.360782 322.182437)scale(0.1 -0.1)">
       <use xlink:href="#DejaVuSans-56"/>
       <use x="63.623047" xlink:href="#DejaVuSans-48"/>
      </g>
     </g>
    </g>
    <g id="xtick_15">
     <g id="line2d_41">
      <path clip-path="url(#p8c5b365ef6)" d="M 278.700531 307.584 
L 278.700531 209.024 
" style="fill:none;stroke:#b0b0b0;stroke-linecap:square;stroke-width:0.8;"/>
     </g>
     <g id="line2d_42">
      <g>
       <use style="stroke:#000000;stroke-width:0.8;" x="278.700531" xlink:href="#m0e693ca617" y="307.584"/>
      </g>
     </g>
     <g id="text_23">
      <!-- 100 -->
      <g transform="translate(269.156781 322.182437)scale(0.1 -0.1)">
       <use xlink:href="#DejaVuSans-49"/>
       <use x="63.623047" xlink:href="#DejaVuSans-48"/>
       <use x="127.246094" xlink:href="#DejaVuSans-48"/>
      </g>
     </g>
    </g>
    <g id="xtick_16">
     <g id="line2d_43">
      <path clip-path="url(#p8c5b365ef6)" d="M 319.677779 307.584 
L 319.677779 209.024 
" style="fill:none;stroke:#b0b0b0;stroke-linecap:square;stroke-width:0.8;"/>
     </g>
     <g id="line2d_44">
      <g>
       <use style="stroke:#000000;stroke-width:0.8;" x="319.677779" xlink:href="#m0e693ca617" y="307.584"/>
      </g>
     </g>
     <g id="text_24">
      <!-- 120 -->
      <g transform="translate(310.134029 322.182437)scale(0.1 -0.1)">
       <use xlink:href="#DejaVuSans-49"/>
       <use x="63.623047" xlink:href="#DejaVuSans-50"/>
       <use x="127.246094" xlink:href="#DejaVuSans-48"/>
      </g>
     </g>
    </g>
    <g id="xtick_17">
     <g id="line2d_45">
      <path clip-path="url(#p8c5b365ef6)" d="M 360.655028 307.584 
L 360.655028 209.024 
" style="fill:none;stroke:#b0b0b0;stroke-linecap:square;stroke-width:0.8;"/>
     </g>
     <g id="line2d_46">
      <g>
       <use style="stroke:#000000;stroke-width:0.8;" x="360.655028" xlink:href="#m0e693ca617" y="307.584"/>
      </g>
     </g>
     <g id="text_25">
      <!-- 140 -->
      <g transform="translate(351.111278 322.182437)scale(0.1 -0.1)">
       <use xlink:href="#DejaVuSans-49"/>
       <use x="63.623047" xlink:href="#DejaVuSans-52"/>
       <use x="127.246094" xlink:href="#DejaVuSans-48"/>
      </g>
     </g>
    </g>
    <g id="xtick_18">
     <g id="line2d_47">
      <path clip-path="url(#p8c5b365ef6)" d="M 401.632277 307.584 
L 401.632277 209.024 
" style="fill:none;stroke:#b0b0b0;stroke-linecap:square;stroke-width:0.8;"/>
     </g>
     <g id="line2d_48">
      <g>
       <use style="stroke:#000000;stroke-width:0.8;" x="401.632277" xlink:href="#m0e693ca617" y="307.584"/>
      </g>
     </g>
     <g id="text_26">
      <!-- 160 -->
      <g transform="translate(392.088527 322.182437)scale(0.1 -0.1)">
       <use xlink:href="#DejaVuSans-49"/>
       <use x="63.623047" xlink:href="#DejaVuSans-54"/>
       <use x="127.246094" xlink:href="#DejaVuSans-48"/>
      </g>
     </g>
    </g>
    <g id="text_27">
     <!-- Tid [s] -->
     <g transform="translate(220.449844 335.860562)scale(0.1 -0.1)">
      <use xlink:href="#DejaVuSans-84"/>
      <use x="61.037109" xlink:href="#DejaVuSans-105"/>
      <use x="88.820312" xlink:href="#DejaVuSans-100"/>
      <use x="152.296875" xlink:href="#DejaVuSans-32"/>
      <use x="184.083984" xlink:href="#DejaVuSans-91"/>
      <use x="223.097656" xlink:href="#DejaVuSans-115"/>
      <use x="275.197266" xlink:href="#DejaVuSans-93"/>
     </g>
    </g>
   </g>
   <g id="matplotlib.axis_4">
    <g id="ytick_4">
     <g id="line2d_49">
      <path clip-path="url(#p8c5b365ef6)" d="M 57.6 303.104 
L 414.72 303.104 
" style="fill:none;stroke:#b0b0b0;stroke-linecap:square;stroke-width:0.8;"/>
     </g>
     <g id="line2d_50">
      <g>
       <use style="stroke:#000000;stroke-width:0.8;" x="57.6" xlink:href="#mb03d58cb15" y="303.104"/>
      </g>
     </g>
     <g id="text_28">
      <!-- 0 -->
      <g transform="translate(44.2375 306.903219)scale(0.1 -0.1)">
       <use xlink:href="#DejaVuSans-48"/>
      </g>
     </g>
    </g>
    <g id="ytick_5">
     <g id="line2d_51">
      <path clip-path="url(#p8c5b365ef6)" d="M 57.6 273.470176 
L 414.72 273.470176 
" style="fill:none;stroke:#b0b0b0;stroke-linecap:square;stroke-width:0.8;"/>
     </g>
     <g id="line2d_52">
      <g>
       <use style="stroke:#000000;stroke-width:0.8;" x="57.6" xlink:href="#mb03d58cb15" y="273.470176"/>
      </g>
     </g>
     <g id="text_29">
      <!-- 20 -->
      <g transform="translate(37.875 277.269395)scale(0.1 -0.1)">
       <use xlink:href="#DejaVuSans-50"/>
       <use x="63.623047" xlink:href="#DejaVuSans-48"/>
      </g>
     </g>
    </g>
    <g id="ytick_6">
     <g id="line2d_53">
      <path clip-path="url(#p8c5b365ef6)" d="M 57.6 243.836352 
L 414.72 243.836352 
" style="fill:none;stroke:#b0b0b0;stroke-linecap:square;stroke-width:0.8;"/>
     </g>
     <g id="line2d_54">
      <g>
       <use style="stroke:#000000;stroke-width:0.8;" x="57.6" xlink:href="#mb03d58cb15" y="243.836352"/>
      </g>
     </g>
     <g id="text_30">
      <!-- 40 -->
      <g transform="translate(37.875 247.635571)scale(0.1 -0.1)">
       <use xlink:href="#DejaVuSans-52"/>
       <use x="63.623047" xlink:href="#DejaVuSans-48"/>
      </g>
     </g>
    </g>
    <g id="ytick_7">
     <g id="line2d_55">
      <path clip-path="url(#p8c5b365ef6)" d="M 57.6 214.202528 
L 414.72 214.202528 
" style="fill:none;stroke:#b0b0b0;stroke-linecap:square;stroke-width:0.8;"/>
     </g>
     <g id="line2d_56">
      <g>
       <use style="stroke:#000000;stroke-width:0.8;" x="57.6" xlink:href="#mb03d58cb15" y="214.202528"/>
      </g>
     </g>
     <g id="text_31">
      <!-- 60 -->
      <g transform="translate(37.875 218.001747)scale(0.1 -0.1)">
       <use xlink:href="#DejaVuSans-54"/>
       <use x="63.623047" xlink:href="#DejaVuSans-48"/>
      </g>
     </g>
    </g>
    <g id="text_32">
     <!-- Distans [m] -->
     <defs>
      <path d="M 19.671875 64.796875 
L 19.671875 8.109375 
L 31.59375 8.109375 
Q 46.6875 8.109375 53.6875 14.9375 
Q 60.6875 21.78125 60.6875 36.53125 
Q 60.6875 51.171875 53.6875 57.984375 
Q 46.6875 64.796875 31.59375 64.796875 
z
M 9.8125 72.90625 
L 30.078125 72.90625 
Q 51.265625 72.90625 61.171875 64.09375 
Q 71.09375 55.28125 71.09375 36.53125 
Q 71.09375 17.671875 61.125 8.828125 
Q 51.171875 0 30.078125 0 
L 9.8125 0 
z
" id="DejaVuSans-68"/>
     </defs>
     <g transform="translate(31.795312 287.306344)rotate(-90)scale(0.1 -0.1)">
      <use xlink:href="#DejaVuSans-68"/>
      <use x="77.001953" xlink:href="#DejaVuSans-105"/>
      <use x="104.785156" xlink:href="#DejaVuSans-115"/>
      <use x="156.884766" xlink:href="#DejaVuSans-116"/>
      <use x="196.09375" xlink:href="#DejaVuSans-97"/>
      <use x="257.373047" xlink:href="#DejaVuSans-110"/>
      <use x="320.751953" xlink:href="#DejaVuSans-115"/>
      <use x="372.851562" xlink:href="#DejaVuSans-32"/>
      <use x="404.638672" xlink:href="#DejaVuSans-91"/>
      <use x="443.652344" xlink:href="#DejaVuSans-109"/>
      <use x="541.064453" xlink:href="#DejaVuSans-93"/>
     </g>
    </g>
   </g>
   <g id="line2d_57">
    <path clip-path="url(#p8c5b365ef6)" d="M 73.832727 303.104 
L 76.916265 303.011382 
L 78.063628 302.664168 
L 79.7355 301.898428 
L 81.419665 300.908334 
L 83.439843 299.426792 
L 85.457973 297.686318 
L 87.648207 295.528248 
L 90.903849 291.93567 
L 93.493611 288.783045 
L 96.278015 285.106238 
L 100.820343 278.752369 
L 104.315703 273.579107 
L 108.159368 267.513221 
L 109.730846 265.110583 
L 111.828881 262.233047 
L 113.226205 260.626504 
L 114.449376 259.56313 
L 115.498394 258.958038 
L 116.371209 258.675413 
L 297.084973 258.58116 
L 298.676939 258.231166 
L 302.920133 256.912385 
L 304.690351 256.167852 
L 307.51983 254.637814 
L 310.349309 252.824479 
L 317.421982 248.145961 
L 321.31482 245.693577 
L 327.682685 241.532663 
L 332.808939 238.179831 
L 337.763088 234.918535 
L 341.121174 232.63156 
L 348.726551 227.385386 
L 351.734281 225.375607 
L 355.44682 222.707013 
L 359.339658 219.86275 
L 362.345339 217.845186 
L 365.529272 215.972957 
L 367.694919 215.001377 
L 369.506114 214.431859 
L 371.319357 214.103053 
L 372.585554 214.007013 
L 398.487273 214.002662 
L 398.487273 214.002662 
" style="fill:none;stroke:#ff0000;stroke-dasharray:5.55,2.4;stroke-dashoffset:0;stroke-width:1.5;"/>
   </g>
   <g id="line2d_58">
    <path clip-path="url(#p8c5b365ef6)" d="M 73.832727 303.104 
L 76.752356 302.999633 
L 77.899719 302.668731 
L 79.565444 301.910081 
L 81.585623 300.704209 
L 83.60785 299.203954 
L 85.457973 297.592358 
L 88.318185 294.698151 
L 92.112678 290.432972 
L 94.532384 287.405861 
L 97.675339 283.16468 
L 101.170699 278.239169 
L 103.791194 274.252278 
L 111.304372 262.756751 
L 113.052052 260.673734 
L 114.10107 259.707355 
L 115.148038 259.013011 
L 116.022902 258.661319 
L 116.721565 258.598901 
L 278.344029 258.488261 
L 297.439426 257.943898 
L 299.031393 257.552204 
L 302.920133 256.338262 
L 304.690351 255.599795 
L 307.51983 254.074199 
L 310.349309 252.249776 
L 317.421982 247.57457 
L 320.960367 245.356286 
L 326.973778 241.474181 
L 331.571426 238.483419 
L 342.182484 231.382005 
L 347.134585 227.925849 
L 354.56376 222.877668 
L 363.582852 216.637167 
L 366.066074 215.26617 
L 368.057568 214.421754 
L 369.868762 213.898734 
L 372.222905 213.508341 
L 398.487273 213.504 
L 398.487273 213.504 
" style="fill:none;stroke:#0000ff;stroke-dasharray:5.55,2.4;stroke-dashoffset:0;stroke-width:1.5;"/>
   </g>
   <g id="patch_9">
    <path d="M 57.6 307.584 
L 57.6 209.024 
" style="fill:none;stroke:#000000;stroke-linecap:square;stroke-linejoin:miter;stroke-width:0.8;"/>
   </g>
   <g id="patch_10">
    <path d="M 414.72 307.584 
L 414.72 209.024 
" style="fill:none;stroke:#000000;stroke-linecap:square;stroke-linejoin:miter;stroke-width:0.8;"/>
   </g>
   <g id="patch_11">
    <path d="M 57.6 307.584 
L 414.72 307.584 
" style="fill:none;stroke:#000000;stroke-linecap:square;stroke-linejoin:miter;stroke-width:0.8;"/>
   </g>
   <g id="patch_12">
    <path d="M 57.6 209.024 
L 414.72 209.024 
" style="fill:none;stroke:#000000;stroke-linecap:square;stroke-linejoin:miter;stroke-width:0.8;"/>
   </g>
   <g id="text_33">
    <!-- Distans över tid -->
    <g transform="translate(188.7675 203.024)scale(0.12 -0.12)">
     <use xlink:href="#DejaVuSans-68"/>
     <use x="77.001953" xlink:href="#DejaVuSans-105"/>
     <use x="104.785156" xlink:href="#DejaVuSans-115"/>
     <use x="156.884766" xlink:href="#DejaVuSans-116"/>
     <use x="196.09375" xlink:href="#DejaVuSans-97"/>
     <use x="257.373047" xlink:href="#DejaVuSans-110"/>
     <use x="320.751953" xlink:href="#DejaVuSans-115"/>
     <use x="372.851562" xlink:href="#DejaVuSans-32"/>
     <use x="404.638672" xlink:href="#DejaVuSans-246"/>
     <use x="465.820312" xlink:href="#DejaVuSans-118"/>
     <use x="525" xlink:href="#DejaVuSans-101"/>
     <use x="586.523438" xlink:href="#DejaVuSans-114"/>
     <use x="627.636719" xlink:href="#DejaVuSans-32"/>
     <use x="659.423828" xlink:href="#DejaVuSans-116"/>
     <use x="698.632812" xlink:href="#DejaVuSans-105"/>
     <use x="726.416016" xlink:href="#DejaVuSans-100"/>
    </g>
   </g>
   <g id="legend_2">
    <g id="patch_13">
     <path d="M 314.43875 302.584 
L 407.72 302.584 
Q 409.72 302.584 409.72 300.584 
L 409.72 272.22775 
Q 409.72 270.22775 407.72 270.22775 
L 314.43875 270.22775 
Q 312.43875 270.22775 312.43875 272.22775 
L 312.43875 300.584 
Q 312.43875 302.584 314.43875 302.584 
z
" style="fill:#ffffff;opacity:0.8;stroke:#cccccc;stroke-linejoin:miter;"/>
    </g>
    <g id="line2d_59">
     <path d="M 316.43875 278.326187 
L 336.43875 278.326187 
" style="fill:none;stroke:#ff0000;stroke-dasharray:5.55,2.4;stroke-dashoffset:0;stroke-width:1.5;"/>
    </g>
    <g id="line2d_60"/>
    <g id="text_34">
     <!-- Vänster Hjul -->
     <g transform="translate(344.43875 281.826187)scale(0.1 -0.1)">
      <use xlink:href="#DejaVuSans-86"/>
      <use x="68.298828" xlink:href="#DejaVuSans-228"/>
      <use x="129.578125" xlink:href="#DejaVuSans-110"/>
      <use x="192.957031" xlink:href="#DejaVuSans-115"/>
      <use x="245.056641" xlink:href="#DejaVuSans-116"/>
      <use x="284.265625" xlink:href="#DejaVuSans-101"/>
      <use x="345.789062" xlink:href="#DejaVuSans-114"/>
      <use x="386.902344" xlink:href="#DejaVuSans-32"/>
      <use x="418.689453" xlink:href="#DejaVuSans-72"/>
      <use x="493.884766" xlink:href="#DejaVuSans-106"/>
      <use x="521.667969" xlink:href="#DejaVuSans-117"/>
      <use x="585.046875" xlink:href="#DejaVuSans-108"/>
     </g>
    </g>
    <g id="line2d_61">
     <path d="M 316.43875 293.004312 
L 336.43875 293.004312 
" style="fill:none;stroke:#0000ff;stroke-dasharray:5.55,2.4;stroke-dashoffset:0;stroke-width:1.5;"/>
    </g>
    <g id="line2d_62"/>
    <g id="text_35">
     <!-- Höger Hjul -->
     <g transform="translate(344.43875 296.504312)scale(0.1 -0.1)">
      <use xlink:href="#DejaVuSans-72"/>
      <use x="75.195312" xlink:href="#DejaVuSans-246"/>
      <use x="136.376953" xlink:href="#DejaVuSans-103"/>
      <use x="199.853516" xlink:href="#DejaVuSans-101"/>
      <use x="261.376953" xlink:href="#DejaVuSans-114"/>
      <use x="302.490234" xlink:href="#DejaVuSans-32"/>
      <use x="334.277344" xlink:href="#DejaVuSans-72"/>
      <use x="409.472656" xlink:href="#DejaVuSans-106"/>
      <use x="437.255859" xlink:href="#DejaVuSans-117"/>
      <use x="500.634766" xlink:href="#DejaVuSans-108"/>
     </g>
    </g>
   </g>
  </g>
  <g id="text_36">
   <!-- Test nummer 1 -->
   <defs>
    <path d="M 0.484375 72.90625 
L 67.671875 72.90625 
L 67.671875 58.6875 
L 43.5 58.6875 
L 43.5 0 
L 24.703125 0 
L 24.703125 58.6875 
L 0.484375 58.6875 
z
" id="DejaVuSans-Bold-84"/>
    <path d="M 62.984375 27.484375 
L 62.984375 22.515625 
L 22.125 22.515625 
Q 22.75 16.359375 26.5625 13.28125 
Q 30.375 10.203125 37.203125 10.203125 
Q 42.71875 10.203125 48.5 11.84375 
Q 54.296875 13.484375 60.40625 16.796875 
L 60.40625 3.328125 
Q 54.203125 0.984375 48 -0.21875 
Q 41.796875 -1.421875 35.59375 -1.421875 
Q 20.75 -1.421875 12.515625 6.125 
Q 4.296875 13.671875 4.296875 27.296875 
Q 4.296875 40.671875 12.375 48.328125 
Q 20.453125 56 34.625 56 
Q 47.515625 56 55.25 48.234375 
Q 62.984375 40.484375 62.984375 27.484375 
z
M 45.015625 33.296875 
Q 45.015625 38.28125 42.109375 41.328125 
Q 39.203125 44.390625 34.515625 44.390625 
Q 29.4375 44.390625 26.265625 41.53125 
Q 23.09375 38.671875 22.3125 33.296875 
z
" id="DejaVuSans-Bold-101"/>
    <path d="M 51.125 52.984375 
L 51.125 39.703125 
Q 45.515625 42.046875 40.28125 43.21875 
Q 35.0625 44.390625 30.421875 44.390625 
Q 25.4375 44.390625 23.015625 43.140625 
Q 20.609375 41.890625 20.609375 39.3125 
Q 20.609375 37.203125 22.4375 36.078125 
Q 24.265625 34.96875 29 34.421875 
L 32.078125 33.984375 
Q 45.515625 32.28125 50.140625 28.375 
Q 54.78125 24.46875 54.78125 16.109375 
Q 54.78125 7.375 48.328125 2.96875 
Q 41.890625 -1.421875 29.109375 -1.421875 
Q 23.6875 -1.421875 17.890625 -0.5625 
Q 12.109375 0.296875 6 2 
L 6 15.28125 
Q 11.234375 12.75 16.71875 11.46875 
Q 22.21875 10.203125 27.875 10.203125 
Q 33.015625 10.203125 35.59375 11.609375 
Q 38.1875 13.03125 38.1875 15.828125 
Q 38.1875 18.171875 36.40625 19.3125 
Q 34.625 20.453125 29.296875 21.09375 
L 26.21875 21.484375 
Q 14.546875 22.953125 9.859375 26.90625 
Q 5.171875 30.859375 5.171875 38.921875 
Q 5.171875 47.609375 11.125 51.796875 
Q 17.09375 56 29.390625 56 
Q 34.234375 56 39.546875 55.265625 
Q 44.875 54.546875 51.125 52.984375 
z
" id="DejaVuSans-Bold-115"/>
    <path d="M 27.484375 70.21875 
L 27.484375 54.6875 
L 45.515625 54.6875 
L 45.515625 42.1875 
L 27.484375 42.1875 
L 27.484375 19 
Q 27.484375 15.1875 29 13.84375 
Q 30.515625 12.5 35.015625 12.5 
L 44 12.5 
L 44 0 
L 29 0 
Q 18.65625 0 14.328125 4.3125 
Q 10.015625 8.640625 10.015625 19 
L 10.015625 42.1875 
L 1.3125 42.1875 
L 1.3125 54.6875 
L 10.015625 54.6875 
L 10.015625 70.21875 
z
" id="DejaVuSans-Bold-116"/>
    <path id="DejaVuSans-Bold-32"/>
    <path d="M 63.375 33.296875 
L 63.375 0 
L 45.796875 0 
L 45.796875 5.421875 
L 45.796875 25.484375 
Q 45.796875 32.5625 45.484375 35.25 
Q 45.171875 37.9375 44.390625 39.203125 
Q 43.359375 40.921875 41.59375 41.875 
Q 39.84375 42.828125 37.59375 42.828125 
Q 32.125 42.828125 29 38.59375 
Q 25.875 34.375 25.875 26.90625 
L 25.875 0 
L 8.40625 0 
L 8.40625 54.6875 
L 25.875 54.6875 
L 25.875 46.6875 
Q 29.828125 51.46875 34.265625 53.734375 
Q 38.71875 56 44.09375 56 
Q 53.5625 56 58.46875 50.1875 
Q 63.375 44.390625 63.375 33.296875 
z
" id="DejaVuSans-Bold-110"/>
    <path d="M 7.8125 21.296875 
L 7.8125 54.6875 
L 25.390625 54.6875 
L 25.390625 49.21875 
Q 25.390625 44.78125 25.34375 38.0625 
Q 25.296875 31.34375 25.296875 29.109375 
Q 25.296875 22.515625 25.640625 19.609375 
Q 25.984375 16.703125 26.8125 15.375 
Q 27.875 13.671875 29.609375 12.734375 
Q 31.34375 11.8125 33.59375 11.8125 
Q 39.0625 11.8125 42.1875 16.015625 
Q 45.3125 20.21875 45.3125 27.6875 
L 45.3125 54.6875 
L 62.796875 54.6875 
L 62.796875 0 
L 45.3125 0 
L 45.3125 7.90625 
Q 41.359375 3.125 36.9375 0.84375 
Q 32.515625 -1.421875 27.203125 -1.421875 
Q 17.71875 -1.421875 12.765625 4.390625 
Q 7.8125 10.203125 7.8125 21.296875 
z
" id="DejaVuSans-Bold-117"/>
    <path d="M 59.078125 45.609375 
Q 62.40625 50.6875 66.96875 53.34375 
Q 71.53125 56 77 56 
Q 86.421875 56 91.359375 50.1875 
Q 96.296875 44.390625 96.296875 33.296875 
L 96.296875 0 
L 78.71875 0 
L 78.71875 28.515625 
Q 78.765625 29.15625 78.78125 29.828125 
Q 78.8125 30.515625 78.8125 31.78125 
Q 78.8125 37.59375 77.09375 40.203125 
Q 75.390625 42.828125 71.578125 42.828125 
Q 66.609375 42.828125 63.890625 38.71875 
Q 61.1875 34.625 61.078125 26.859375 
L 61.078125 0 
L 43.5 0 
L 43.5 28.515625 
Q 43.5 37.59375 41.9375 40.203125 
Q 40.375 42.828125 36.375 42.828125 
Q 31.34375 42.828125 28.609375 38.703125 
Q 25.875 34.578125 25.875 26.90625 
L 25.875 0 
L 8.296875 0 
L 8.296875 54.6875 
L 25.875 54.6875 
L 25.875 46.6875 
Q 29.109375 51.3125 33.28125 53.65625 
Q 37.453125 56 42.484375 56 
Q 48.140625 56 52.484375 53.265625 
Q 56.84375 50.53125 59.078125 45.609375 
z
" id="DejaVuSans-Bold-109"/>
    <path d="M 49.03125 39.796875 
Q 46.734375 40.875 44.453125 41.375 
Q 42.1875 41.890625 39.890625 41.890625 
Q 33.15625 41.890625 29.515625 37.5625 
Q 25.875 33.25 25.875 25.203125 
L 25.875 0 
L 8.40625 0 
L 8.40625 54.6875 
L 25.875 54.6875 
L 25.875 45.703125 
Q 29.25 51.078125 33.609375 53.53125 
Q 37.984375 56 44.09375 56 
Q 44.96875 56 45.984375 55.921875 
Q 47.015625 55.859375 48.96875 55.609375 
z
" id="DejaVuSans-Bold-114"/>
    <path d="M 11.71875 12.984375 
L 28.328125 12.984375 
L 28.328125 60.109375 
L 11.28125 56.59375 
L 11.28125 69.390625 
L 28.21875 72.90625 
L 46.09375 72.90625 
L 46.09375 12.984375 
L 62.703125 12.984375 
L 62.703125 0 
L 11.71875 0 
z
" id="DejaVuSans-Bold-49"/>
   </defs>
   <g transform="translate(179.383125 16.030125)scale(0.12 -0.12)">
    <use xlink:href="#DejaVuSans-Bold-84"/>
    <use x="68.009766" xlink:href="#DejaVuSans-Bold-101"/>
    <use x="135.832031" xlink:href="#DejaVuSans-Bold-115"/>
    <use x="195.353516" xlink:href="#DejaVuSans-Bold-116"/>
    <use x="243.15625" xlink:href="#DejaVuSans-Bold-32"/>
    <use x="277.970703" xlink:href="#DejaVuSans-Bold-110"/>
    <use x="349.162109" xlink:href="#DejaVuSans-Bold-117"/>
    <use x="420.353516" xlink:href="#DejaVuSans-Bold-109"/>
    <use x="524.552734" xlink:href="#DejaVuSans-Bold-109"/>
    <use x="628.751953" xlink:href="#DejaVuSans-Bold-101"/>
    <use x="696.574219" xlink:href="#DejaVuSans-Bold-114"/>
    <use x="745.890625" xlink:href="#DejaVuSans-Bold-32"/>
    <use x="780.705078" xlink:href="#DejaVuSans-Bold-49"/>
   </g>
  </g>
 </g>
 <defs>
  <clipPath id="p0494314b19">
   <rect height="98.56" width="357.12" x="57.6" y="41.472"/>
  </clipPath>
  <clipPath id="p8c5b365ef6">
   <rect height="98.56" width="357.12" x="57.6" y="209.024"/>
  </clipPath>
 </defs>
</svg>
